<svg width="16" height="16" viewBox="0 0 16 16" fill="none" xmlns="http://www.w3.org/2000/svg">
<g clip-path="url(#clip0_28315_236462)">
<path d="M7.16674 5.70825H13.8333C14.2916 5.70825 14.6666 6.08325 14.6666 6.54157V14.0415L13 12.3748H7.16674C6.70841 12.3748 6.33342 11.9998 6.33342 11.5415V6.54157C6.33342 6.08325 6.70841 5.70825 7.16674 5.70825Z" fill="#FE7C04"/>
</g>
<g clip-path="url(#clip1_28315_236462)">
<path d="M8.83326 1.95825H2.16669C1.70837 1.95825 1.33754 2.33325 1.33754 2.79157L1.33337 10.2915L3.00002 8.62482H8.83326C9.29159 8.62482 9.66658 8.24983 9.66658 7.7915V2.79157C9.66658 2.33325 9.29159 1.95825 8.83326 1.95825ZM3.41668 4.87488H7.58328C7.81244 4.87488 7.99994 5.06237 7.99994 5.29154C7.99994 5.5207 7.81244 5.7082 7.58328 5.7082H3.41668C3.18751 5.7082 3.00002 5.5207 3.00002 5.29154C3.00002 5.06237 3.18751 4.87488 3.41668 4.87488ZM5.91664 6.95818H3.41668C3.18751 6.95818 3.00002 6.77068 3.00002 6.54152C3.00002 6.31235 3.18751 6.12486 3.41668 6.12486H5.91664C6.1458 6.12486 6.3333 6.31235 6.3333 6.54152C6.3333 6.77068 6.1458 6.95818 5.91664 6.95818ZM7.58328 4.45821H3.41668C3.18751 4.45821 3.00002 4.27072 3.00002 4.04155C3.00002 3.81239 3.18751 3.62489 3.41668 3.62489H7.58328C7.81244 3.62489 7.99994 3.81239 7.99994 4.04155C7.99994 4.27072 7.81244 4.45821 7.58328 4.45821Z" fill="#19809E"/>
</g>
<defs>
<clipPath id="clip0_28315_236462">
<rect width="9.99985" height="9.99985" fill="white" transform="matrix(-1 0 0 1 15.5 4.875)"/>
</clipPath>
<clipPath id="clip1_28315_236462">
<rect width="9.99985" height="9.99985" fill="white" transform="translate(0.5 1.125)"/>
</clipPath>
</defs>
</svg>
