<svg width="42" height="43" viewBox="0 0 42 43" fill="none" xmlns="http://www.w3.org/2000/svg">
<rect y="0.3125" width="42" height="42" rx="21" fill="#18B150"/>
<path fill-rule="evenodd" clip-rule="evenodd" d="M27.9366 14.4149C27.0356 13.5081 25.9637 12.789 24.7828 12.2994C23.602 11.8097 22.3357 11.5593 21.0574 11.5625C15.6971 11.5625 11.3334 15.9251 11.3313 21.2876C11.3313 23.0014 11.7787 24.6741 12.6291 26.1496L11.25 31.1882L16.4056 29.8351C17.8317 30.6114 19.4294 31.0185 21.0531 31.0192H21.0574C26.4167 31.0192 30.7803 26.6566 30.7825 21.2941C30.7862 20.0163 30.5366 18.7504 30.0481 17.5697C29.5596 16.3889 28.8419 15.3167 27.9366 14.4149ZM21.0574 29.3779H21.0542C19.6063 29.3781 18.1851 28.9886 16.9397 28.2502L16.645 28.0747L13.5857 28.8774L14.4014 25.895L14.2097 25.5895C13.4002 24.3008 12.9717 22.8095 12.9736 21.2876C12.9757 16.8308 16.6017 13.2049 21.0607 13.2049C22.1226 13.2025 23.1745 13.4108 24.1554 13.8177C25.1363 14.2245 26.0267 14.8219 26.7752 15.5752C27.5278 16.3249 28.1242 17.2163 28.5301 18.1979C28.936 19.1796 29.1434 20.2319 29.1402 21.2941C29.138 25.7509 25.5121 29.3779 21.0574 29.3779ZM25.4915 23.3232C25.2477 23.2008 24.0539 22.6136 23.8307 22.5324C23.6087 22.4511 23.4472 22.411 23.2847 22.6537C23.1222 22.8964 22.6564 23.4434 22.5145 23.6059C22.3726 23.7684 22.2307 23.7879 21.988 23.6666C21.7453 23.5453 20.9621 23.2885 20.0337 22.4609C19.3111 21.8163 18.8236 21.0211 18.6817 20.7774C18.5397 20.5336 18.6665 20.4025 18.7889 20.2812C18.8983 20.1729 19.0316 19.9974 19.1529 19.8554C19.2742 19.7135 19.3143 19.6128 19.3956 19.4503C19.4768 19.2878 19.4367 19.1459 19.375 19.0245C19.3143 18.9021 18.8279 17.7061 18.6253 17.2197C18.4292 16.7484 18.2288 16.8113 18.0793 16.8048C17.9245 16.7984 17.7695 16.7956 17.6146 16.7961C17.4914 16.7993 17.3701 16.8278 17.2584 16.88C17.1468 16.9322 17.0471 17.0069 16.9657 17.0994C16.7425 17.3432 16.1152 17.9304 16.1152 19.1264C16.1152 20.3224 16.9862 21.4783 17.1076 21.6408C17.2289 21.8033 18.8214 24.257 21.2589 25.31C21.8396 25.5603 22.2924 25.7098 22.6445 25.8224C23.2262 26.0077 23.756 25.9806 24.1752 25.9189C24.6422 25.8495 25.6128 25.3317 25.8154 24.764C26.018 24.1964 26.018 23.7099 25.9573 23.6081C25.8967 23.5063 25.7331 23.4445 25.4915 23.3232Z" fill="white"/>
</svg>
