<svg width="24" height="25" viewBox="0 0 24 25" fill="none" xmlns="http://www.w3.org/2000/svg">
<path d="M8 11.7127C8 12.4827 8.6 13.1127 9.33 13.1127H10.83C11.47 13.1127 11.99 12.5627 11.99 11.8927C11.99 11.1627 11.67 10.9027 11.2 10.7327L8.8 9.8927C8.32 9.7227 8 9.4627 8 8.7327C8 8.0627 8.52 7.5127 9.16 7.5127H10.66C11.4 7.5227 12 8.1427 12 8.9127" stroke="#5F7081" stroke-width="1.5" stroke-linecap="round" stroke-linejoin="round"/>
<path d="M10 13.1621V13.9021" stroke="#5F7081" stroke-width="1.5" stroke-linecap="round" stroke-linejoin="round"/>
<path d="M10 6.72266V7.50266" stroke="#5F7081" stroke-width="1.5" stroke-linecap="round" stroke-linejoin="round"/>
<path d="M9.99 18.2925C14.4028 18.2925 17.98 14.7153 17.98 10.3025C17.98 5.88974 14.4028 2.3125 9.99 2.3125C5.57724 2.3125 2 5.88974 2 10.3025C2 14.7153 5.57724 18.2925 9.99 18.2925Z" stroke="#5F7081" stroke-width="1.5" stroke-linecap="round" stroke-linejoin="round"/>
<path d="M12.9805 20.1925C13.8805 21.4625 15.3505 22.2925 17.0305 22.2925C19.7605 22.2925 21.9805 20.0725 21.9805 17.3425C21.9805 15.6825 21.1605 14.2125 19.9105 13.3125" stroke="#5F7081" stroke-width="1.5" stroke-linecap="round" stroke-linejoin="round"/>
</svg>
