<svg width="36" height="29" viewBox="0 0 36 29" fill="none" xmlns="http://www.w3.org/2000/svg">
<g id="Group">
<path id="Vector" d="M34.2383 16.402V22.1163C34.2383 24.5925 28.2688 27.8306 20.905 27.8306C13.5412 27.8306 7.57166 24.5925 7.57166 22.1163V17.3544L8.13165 17.8477C9.77927 20.0343 14.8745 22.0857 20.905 22.0857C28.2688 22.0857 34.2383 19.0267 34.2383 16.3981C34.2383 14.9219 32.3583 13.3048 29.4078 12.1696L28.5241 12.5926M28.5241 6.8783V12.5926M28.5241 12.5926C28.5241 15.0688 22.5546 18.3069 15.1908 18.3069C7.82701 18.3069 1.85748 15.0688 1.85748 12.5926V6.8783M15.1908 12.5622C22.5546 12.5622 28.5241 9.50311 28.5241 6.87454C28.5241 4.24406 22.5546 1.16406 15.1908 1.16406C7.82695 1.16406 1.85742 4.24406 1.85742 6.87454C1.85742 9.50311 7.82695 12.5622 15.1908 12.5622Z" stroke="#5F7081" stroke-width="2.25" stroke-linecap="round" stroke-linejoin="round"/>
</g>
</svg>
