<svg width="33" height="32" viewBox="0 0 33 32" fill="none" xmlns="http://www.w3.org/2000/svg">
<rect x="0.666016" width="32" height="32" rx="16" fill="#FFE0B2"/>
<path d="M6.45135 11.524L6.51119 12.2539C6.52116 12.3883 6.60094 12.5132 6.72062 12.5804L7.37881 12.9453C7.678 13.1182 7.64808 13.5504 7.31898 13.6752L6.62089 13.9537C6.49124 14.0017 6.39152 14.117 6.3616 14.2418L6.20203 14.9621C6.12225 15.2886 5.69343 15.3942 5.46405 15.1349L4.97539 14.5779C4.88563 14.4723 4.74601 14.4147 4.60639 14.4339L3.84847 14.5011C3.49942 14.5395 3.26008 14.1746 3.44956 13.8865L3.84847 13.2623C3.91828 13.147 3.93822 13.003 3.87839 12.8781L3.56923 12.2155C3.42961 11.8986 3.71882 11.572 4.05789 11.6489L4.79588 11.8313C4.9355 11.8601 5.07511 11.8217 5.18481 11.7353L5.75326 11.2455C6.01255 11.0246 6.43141 11.1879 6.45135 11.524Z" fill="url(#paint0_linear_31059_173380)"/>
<path fill-rule="evenodd" clip-rule="evenodd" d="M6.70106 11.5056L6.7609 12.2354C6.7609 12.2931 6.79082 12.3411 6.84068 12.3699L7.49888 12.7444C7.71828 12.8693 7.84792 13.0998 7.82798 13.3495C7.80803 13.5895 7.64847 13.8008 7.4191 13.8969L6.71104 14.1754C6.66117 14.1946 6.62128 14.2426 6.60133 14.3002L6.44177 15.0109C6.37196 15.3086 6.1027 15.5198 5.78357 15.5198C5.58411 15.5198 5.40461 15.4334 5.27496 15.2894L4.78629 14.7324C4.7464 14.6939 4.70651 14.6747 4.6367 14.6747C4.6367 14.6747 4.63338 14.6747 4.62673 14.6747L3.87878 14.742C3.85218 14.742 3.82891 14.742 3.80897 14.742C3.56962 14.742 3.34025 14.6171 3.22058 14.4154C3.10091 14.2042 3.11087 13.9641 3.24052 13.7624L3.63943 13.1382C3.66935 13.0902 3.67932 13.0325 3.64941 12.9749L3.35022 12.3123C3.26047 12.1106 3.27044 11.8801 3.40009 11.6976C3.51976 11.5152 3.72919 11.3999 3.95856 11.3999C4.01175 11.3999 4.06494 11.4063 4.11813 11.4191L4.8561 11.592C4.8694 11.5984 4.88602 11.6016 4.90597 11.6016C4.94586 11.6016 4.98575 11.5824 5.01567 11.5536L5.58411 11.0734C5.71376 10.9678 5.86335 10.9102 6.03289 10.9102C6.39191 10.9102 6.68112 11.1695 6.70106 11.5056ZM5.75365 11.2463L5.1852 11.7361C5.10542 11.8033 5.0057 11.8417 4.90597 11.8417C4.87273 11.8417 4.83616 11.8385 4.79627 11.8321L4.05829 11.6496C4.02504 11.6432 3.9918 11.64 3.95856 11.64C3.66935 11.64 3.44995 11.9377 3.56962 12.2162L3.87878 12.8789C3.93861 13.0037 3.91867 13.1478 3.84886 13.263L3.44995 13.8872C3.27044 14.1561 3.47987 14.5115 3.80897 14.5115C3.82226 14.5115 3.83556 14.5083 3.84886 14.5019L4.60679 14.4346C4.62008 14.4346 4.63338 14.4346 4.64668 14.4346C4.77633 14.4346 4.896 14.4827 4.97578 14.5787L5.46445 15.1357C5.5542 15.2317 5.6639 15.2798 5.78357 15.2798C5.97305 15.2798 6.15256 15.1645 6.20242 14.9628L6.36199 14.2426C6.39191 14.1177 6.49163 14.0025 6.62128 13.9545L7.31937 13.676C7.64847 13.5511 7.67839 13.119 7.37921 12.9461L6.72101 12.5812C6.60134 12.5139 6.52156 12.3891 6.51158 12.2546L6.45174 11.5248C6.44177 11.2943 6.24231 11.1502 6.03289 11.1502C5.93316 11.1502 5.83343 11.1791 5.75365 11.2463Z" fill="#92632A"/>
<path opacity="0.5" d="M5.43356 12.4546C5.37372 12.5987 5.15433 12.6563 4.96484 12.5795C4.76539 12.5027 4.65569 12.3202 4.71553 12.1761C4.77536 12.0225 4.98479 11.9649 5.18424 12.0417C5.38369 12.1185 5.49339 12.301 5.43356 12.4546Z" fill="url(#paint1_linear_31059_173380)"/>
<path opacity="0.5" d="M5.82281 12.0622C5.78291 12.139 5.66324 12.1775 5.55354 12.1294C5.44384 12.0814 5.38401 11.9854 5.41393 11.8989C5.45382 11.8125 5.57348 11.7837 5.68318 11.8317C5.79288 11.8701 5.85272 11.9758 5.82281 12.0622Z" fill="url(#paint2_linear_31059_173380)"/>
<path d="M7.93636 17.8539L8.36519 18.0556C8.44497 18.094 8.5447 18.0844 8.61451 18.046L9.03337 17.8155C9.23282 17.7098 9.46219 17.8635 9.43228 18.0748L9.37244 18.5357C9.35249 18.6222 9.39239 18.7086 9.45222 18.7662L9.81124 19.0735C9.9708 19.2176 9.89102 19.4865 9.67162 19.5153L9.2029 19.6017C9.11315 19.6209 9.04334 19.669 9.00345 19.7458L8.80399 20.1683C8.71424 20.37 8.42502 20.3796 8.3253 20.1875L8.09593 19.7746C8.05603 19.6978 7.97626 19.6497 7.8865 19.6401L7.40781 19.5921C7.18841 19.5633 7.08868 19.304 7.24824 19.1504L7.57734 18.8238C7.63718 18.7566 7.6671 18.6702 7.64715 18.5934L7.5574 18.1324C7.50754 17.9211 7.73691 17.7579 7.93636 17.8539Z" fill="url(#paint3_linear_31059_173380)"/>
<path fill-rule="evenodd" clip-rule="evenodd" d="M9.56231 17.7197C9.65207 17.8254 9.70193 17.9694 9.68199 18.1135L9.62215 18.5841L9.97119 18.901C10.1208 19.0258 10.1806 19.2179 10.1208 19.4004C10.0709 19.5828 9.91135 19.7173 9.72187 19.7557L9.23321 19.8517L9.03376 20.2743C8.944 20.4471 8.76449 20.5624 8.55507 20.5624C8.36558 20.5624 8.19605 20.4567 8.10629 20.3031L7.85697 19.8805L7.38825 19.8229C7.1888 19.8037 7.01926 19.6789 6.95943 19.506C6.88962 19.3235 6.92951 19.1219 7.06913 18.9874L7.4082 18.6417L7.30847 18.1807C7.27856 18.0367 7.31844 17.883 7.41817 17.7678C7.5179 17.6525 7.65752 17.5853 7.81708 17.5853C7.89686 17.5853 7.97332 17.6013 8.04645 17.6333L8.49523 17.835L8.91408 17.6045C8.99386 17.5661 9.08362 17.5469 9.1634 17.5469C9.31299 17.5469 9.46258 17.6045 9.56231 17.7197ZM9.03376 17.8158L8.6149 18.0463C8.57501 18.0655 8.5318 18.0751 8.48526 18.0751C8.44537 18.0751 8.40547 18.0687 8.36558 18.0559L7.93676 17.8542C7.89686 17.835 7.85697 17.8254 7.81708 17.8254C7.65752 17.8254 7.5179 17.9694 7.55779 18.1327L7.64754 18.5937C7.66749 18.6705 7.63757 18.7569 7.57773 18.8241L7.24863 19.1507C7.08907 19.3043 7.1888 19.5636 7.4082 19.5924L7.88689 19.6404C7.97665 19.65 8.05643 19.6981 8.09632 19.7749L8.32569 20.1878C8.37555 20.2743 8.46531 20.3223 8.55507 20.3223C8.65479 20.3223 8.75452 20.2743 8.80439 20.1686L9.00384 19.7461C9.04373 19.6693 9.11354 19.6212 9.20329 19.602L9.67201 19.5156C9.89141 19.4868 9.97119 19.2179 9.81163 19.0738L9.45261 18.7665C9.39278 18.7089 9.35288 18.6225 9.37283 18.536L9.43267 18.0751C9.46258 17.9118 9.32297 17.7774 9.1634 17.7774C9.12351 17.7774 9.0803 17.7902 9.03376 17.8158Z" fill="#92632A"/>
<path opacity="0.5" d="M8.13603 18.6898C8.20584 18.7667 8.16595 18.8915 8.05625 18.9779C7.95653 19.0548 7.8169 19.0548 7.7471 18.9779C7.68726 18.8915 7.71718 18.7667 7.82688 18.6898C7.93658 18.6034 8.0762 18.6034 8.13603 18.6898Z" fill="url(#paint4_linear_31059_173380)"/>
<path opacity="0.5" d="M8.03508 18.3524C8.07497 18.4004 8.05502 18.4677 7.99518 18.5157C7.93535 18.5637 7.85557 18.5637 7.81567 18.5157C7.77578 18.4677 7.79573 18.4004 7.85557 18.3524C7.9154 18.3044 7.99519 18.3044 8.03508 18.3524Z" fill="url(#paint5_linear_31059_173380)"/>
<path d="M12.0167 13.8493C11.8372 13.4556 11.558 13.1483 11.2887 12.841L11.2588 12.8122C10.5507 12.0151 10.0022 11.3236 9.64319 10.5361C9.24428 9.66221 9.15452 8.76908 9.39387 8.03922C9.65316 7.24213 10.3612 6.6179 11.1092 6.54107C11.3884 6.50266 11.6976 6.54107 12.0666 6.6275C12.5054 6.74274 12.8943 6.8964 13.2035 7.09807C13.4328 7.24213 13.742 7.18451 13.8916 6.97323C14.0412 6.75235 13.9813 6.45464 13.7619 6.31058C13.353 6.04169 12.8644 5.84961 12.3159 5.70556C11.8272 5.58072 11.3884 5.5423 10.9995 5.59032C9.85262 5.71517 8.82542 6.58909 8.44646 7.75111L8.2869 8.33693L8.31682 8.32732C8.19714 9.14362 8.33676 10.0464 8.73567 10.9203C9.17447 11.8614 9.84264 12.6873 10.5108 13.4268L10.5407 13.4652C10.7701 13.7245 10.9895 13.9742 11.1092 14.2335C11.2289 14.4832 11.2388 14.7425 11.1391 14.9057C11.0294 15.0786 10.7601 15.165 10.5707 15.0786C10.3812 14.9922 10.2715 14.7425 10.3413 14.5504C10.431 14.3007 10.2914 14.0318 10.0421 13.9454C9.78281 13.8493 9.4936 13.9838 9.40385 14.2335L9.24428 14.8193L9.34401 14.8097C9.39387 15.2899 9.69306 15.7412 10.1518 15.9429C10.2249 15.9749 10.3014 16.0005 10.3812 16.0197C10.9895 16.1734 11.6776 15.9141 11.9968 15.3763C12.2561 14.9538 12.256 14.3775 12.0167 13.8493Z" fill="url(#paint6_linear_31059_173380)"/>
<path d="M10.2219 16.6057C10.1421 16.5865 10.0657 16.5609 9.99252 16.5289C9.34429 16.2407 9.00522 15.4725 9.24457 14.8194C9.33432 14.5697 9.61356 14.4353 9.88282 14.5313C10.1321 14.6178 10.2718 14.8867 10.182 15.1363C10.1122 15.3188 10.2219 15.5781 10.4114 15.6645C10.6009 15.751 10.8701 15.6645 10.9798 15.4917C11.0796 15.3284 11.0696 15.0691 10.9499 14.8194C10.8302 14.5505 10.6108 14.3104 10.3815 14.0511L10.3515 14.0127C9.68337 13.2733 9.01519 12.4474 8.57639 11.5062C8.07775 10.421 7.97803 9.2878 8.28719 8.33705C8.66615 7.17502 9.69334 6.3011 10.8402 6.17626C11.2291 6.12824 11.6679 6.16665 12.1566 6.2915C12.7051 6.43555 13.1938 6.62762 13.6027 6.89652C13.8221 7.04057 13.8819 7.33828 13.7323 7.55916C13.5827 7.77044 13.2736 7.82806 13.0442 7.68401C12.735 7.48234 12.3461 7.32868 11.9073 7.21344C11.5383 7.1174 11.2291 7.08859 10.9499 7.12701C10.202 7.20383 9.49389 7.82806 9.2346 8.62516C8.99525 9.35502 9.085 10.2385 9.48391 11.1221C9.84293 11.9096 10.3914 12.601 11.0995 13.3981L11.1294 13.4269C11.3987 13.7342 11.6779 14.0415 11.8574 14.4353C12.0968 14.9635 12.0968 15.5397 11.8375 15.9622C11.5184 16.5 10.8302 16.7593 10.2219 16.6057Z" fill="url(#paint7_linear_31059_173380)"/>
<path d="M23.6566 16.7969C24.0156 16.5376 24.4145 16.3936 24.8034 16.2591L24.8433 16.2495C25.8705 15.8846 26.6983 15.5485 27.4163 15.0299C28.2141 14.4633 28.7427 13.7238 28.9122 12.9747C29.0917 12.1584 28.7925 11.2845 28.1742 10.8524C27.9548 10.6987 27.6656 10.5739 27.2966 10.4778C26.8578 10.3722 26.4489 10.3242 26.07 10.353C25.8007 10.3722 25.5614 10.1801 25.5314 9.92082C25.5115 9.65192 25.7209 9.42143 25.9902 9.40223C26.4789 9.36381 26.9974 9.42144 27.5559 9.56549C28.0446 9.69033 28.4435 9.8632 28.7626 10.0841C29.6901 10.7371 30.1389 11.976 29.8796 13.1764L29.72 13.7622L29.7001 13.743C29.3809 14.5113 28.8025 15.222 28.0047 15.7982C27.147 16.4128 26.1398 16.8065 25.1824 17.1427L25.1425 17.1619C24.8034 17.2771 24.4943 17.3828 24.245 17.5652C24.0156 17.7189 23.8859 17.9398 23.8859 18.1318C23.8859 18.3239 24.0854 18.5352 24.2849 18.5448C24.4943 18.564 24.7237 18.3911 24.7636 18.1991C24.8034 17.9398 25.0627 17.7669 25.332 17.8149C25.6013 17.8533 25.7808 18.103 25.7309 18.3623L25.5713 18.9481L25.5015 18.9001C25.2123 19.2939 24.7137 19.5435 24.2051 19.4955C24.1253 19.4891 24.0488 19.4763 23.9757 19.4571C23.3674 19.3035 22.8986 18.7561 22.8887 18.1414C22.8887 17.642 23.1679 17.1427 23.6566 16.7969Z" fill="url(#paint8_linear_31059_173380)"/>
<path d="M23.8155 20.0431C23.8887 20.0623 23.9651 20.0751 24.0449 20.0815C24.763 20.1391 25.4511 19.6301 25.5707 18.9482C25.6206 18.689 25.4411 18.4393 25.1718 18.4008C24.9026 18.3528 24.6433 18.5257 24.6034 18.785C24.5635 18.9771 24.3341 19.1499 24.1247 19.1307C23.9252 19.1211 23.7258 18.9098 23.7258 18.7178C23.7258 18.5257 23.8554 18.3048 24.0848 18.1512C24.3341 17.9687 24.6433 17.8631 24.9724 17.7478L25.0222 17.7286C25.9796 17.3925 26.9869 16.9987 27.8445 16.3841C28.8418 15.6734 29.5 14.7419 29.7194 13.7623C29.9787 12.5619 29.5299 11.3231 28.6025 10.67C28.2833 10.4491 27.8844 10.2763 27.3958 10.1514C26.8373 10.0074 26.3187 9.94975 25.83 9.98816C25.5608 10.0074 25.3513 10.2379 25.3713 10.5068C25.4012 10.766 25.6406 10.9581 25.9098 10.9389C26.2888 10.9101 26.6977 10.9581 27.1365 11.0638C27.5055 11.1598 27.7947 11.2846 28.0141 11.4383C28.6324 11.8705 28.9316 12.7444 28.7521 13.5607C28.5825 14.3097 28.054 15.0396 27.2561 15.6158C26.5381 16.1344 25.7104 16.4705 24.6832 16.8355L24.6433 16.8451C24.2543 16.9795 23.8554 17.1236 23.4964 17.3829C23.0078 17.7286 22.7285 18.228 22.7285 18.7274C22.7385 19.342 23.2072 19.8894 23.8155 20.0431Z" fill="url(#paint9_linear_31059_173380)"/>
<path d="M20.9929 24.8255C20.7436 23.3562 18.8388 21.8196 16.2359 21.1666C13.643 20.5135 11.1997 20.9361 10.2324 22.1077L10.0728 22.0693L9.87333 22.7992C9.41459 24.4798 11.5188 26.4677 14.5805 27.2456C17.6421 28.0235 20.4943 27.284 20.953 25.613L21.1525 24.8735L20.9929 24.8255Z" fill="url(#paint10_linear_31059_173380)"/>
<path d="M21.1523 24.8732C20.6935 26.5442 17.8413 27.2837 14.7797 26.5058C11.7181 25.7279 9.6138 23.74 10.0726 22.069C10.5313 20.3884 13.3835 19.6489 16.4451 20.4268C19.5068 21.2047 21.611 23.1926 21.1523 24.8732Z" fill="url(#paint11_linear_31059_173380)"/>
<path opacity="0.5" d="M15.3681 26.2947C12.3064 25.5168 10.2022 23.5289 10.6609 21.8482C10.8305 21.2144 11.3491 20.715 12.087 20.3789C11.0399 20.6958 10.292 21.272 10.0726 22.0691C9.6138 23.7401 11.7181 25.7281 14.7797 26.506C16.6845 26.9861 18.5095 26.8901 19.7262 26.3427C18.5494 26.6884 16.9837 26.698 15.3681 26.2947Z" fill="url(#paint12_linear_31059_173380)"/>
<path d="M15.4382 24.1072C14.1418 23.7807 13.3738 22.5131 13.7129 21.2646L14.8 17.2695L19.4871 18.4604L18.3901 22.4458C18.0511 23.6943 16.7347 24.4338 15.4382 24.1072Z" fill="url(#paint13_linear_31059_173380)"/>
<path d="M16.495 20.2453C12.7452 19.2946 10.5014 15.5972 11.4887 11.9863L12.5258 8.17373C12.8151 7.13655 13.922 6.51232 15.0091 6.78122L24.6627 9.23011C25.7497 9.49901 26.3979 10.5746 26.1087 11.6118L25.0716 15.4244C24.0842 19.0353 20.2447 21.1961 16.495 20.2453Z" fill="url(#paint14_linear_31059_173380)"/>
<path opacity="0.5" d="M12.0771 12.1304L13.1142 8.32738C13.3935 7.2806 14.5104 6.65637 15.5974 6.93487L15.0091 6.78122C13.922 6.51232 12.8151 7.13655 12.5258 8.17373L11.4887 11.9863C10.5014 15.5972 12.7452 19.2946 16.495 20.2453C16.5947 20.271 16.6911 20.2934 16.7842 20.3126C13.214 19.2466 11.1097 15.6453 12.0771 12.1304Z" fill="url(#paint15_linear_31059_173380)"/>
<path d="M26.427 10.3893C26.1079 8.53578 23.7044 6.61508 20.4334 5.78918C17.1723 4.96327 14.1007 5.49147 12.874 6.9512L12.6546 6.90318L12.3953 7.85393C11.8169 9.96671 14.4796 12.4828 18.3391 13.4624C22.2085 14.4323 25.8087 13.5104 26.3871 11.3976L26.6464 10.4373L26.427 10.3893Z" fill="url(#paint16_linear_31059_173380)"/>
<path d="M26.6469 10.4395C26.0684 12.5618 22.4683 13.4838 18.5989 12.5138C14.7394 11.5343 12.0767 9.01814 12.6551 6.90537C13.2335 4.78299 16.8337 3.86105 20.6931 4.84061C24.5626 5.81057 27.2253 8.32669 26.6469 10.4395Z" fill="url(#paint17_linear_31059_173380)"/>
<mask id="mask0_31059_173380" style="mask-type:luminance" maskUnits="userSpaceOnUse" x="12" y="4" width="15" height="9">
<path d="M26.6458 10.4422C26.0674 12.5617 22.4673 13.4865 18.6038 12.5089C14.7404 11.5303 12.0767 9.01991 12.6551 6.90137C13.2335 4.78187 16.8347 3.85705 20.6981 4.83565C24.5615 5.81329 27.2243 8.32365 26.6458 10.4422Z" fill="white"/>
</mask>
<g mask="url(#mask0_31059_173380)">
<g opacity="0.6">
<path d="M25.092 6.18359L11.3496 6.66377L15.7576 14.0681L26.199 7.19196L25.092 6.18359Z" fill="url(#paint18_linear_31059_173380)"/>
</g>
</g>
<path d="M18.6293 23.1345L18.5794 21.7611C18.1206 21.8572 17.1832 22.0012 16.0563 21.7035C14.9693 21.425 14.2512 20.8776 13.9022 20.5703C13.6562 20.9673 13.4069 21.361 13.1542 21.7515C13.0046 21.886 12.9049 22.0493 12.855 22.2317C12.6157 23.1056 13.7127 24.1428 15.3183 24.5462C16.9139 24.9591 18.4099 24.575 18.6492 23.6915C18.6991 23.509 18.6891 23.3265 18.6293 23.1345Z" fill="url(#paint19_linear_31059_173380)"/>
<path d="M13.8614 17.8441C13.6619 17.6233 13.4425 17.3736 13.2331 17.0663C13.2264 17.0599 13.2231 17.0567 13.2231 17.0567C12.8641 16.5381 12.7644 15.9042 12.9339 15.3088L13.8115 12.082C13.9112 12.2261 14.0907 12.4374 14.36 12.6102C14.5096 12.7063 14.6492 12.7735 14.7689 12.8119C14.4896 13.3401 14.1805 14.0604 13.991 14.9535C13.7217 16.1347 13.7716 17.1527 13.8614 17.8441Z" fill="url(#paint20_linear_31059_173380)"/>
<path d="M25.3804 9.70862C24.9416 11.3316 22.0595 12.0135 18.948 11.226C15.8465 10.4481 13.6824 8.48898 14.1312 6.86598C14.57 5.23338 17.4521 4.55153 20.5636 5.33902C23.6651 6.12651 25.8292 8.08563 25.3804 9.70862Z" fill="url(#paint21_linear_31059_173380)"/>
<path d="M20.2851 6.35932C17.5027 5.64866 14.9098 6.11923 14.082 7.38689C14.1618 8.89465 16.1763 10.5272 18.9487 11.2283C21.7311 11.939 24.324 11.4684 25.1617 10.2007C25.082 8.69297 23.0575 7.06037 20.2851 6.35932Z" fill="url(#paint22_linear_31059_173380)"/>
<path d="M19.936 7.63421C17.6024 7.03879 15.4084 7.27888 14.2715 8.12399C14.83 9.39165 16.625 10.6401 18.9487 11.2259C21.2823 11.8213 23.4763 11.5813 24.6232 10.7361C24.0547 9.46848 22.2696 8.22002 19.936 7.63421Z" fill="#BE6D00"/>
<path fill-rule="evenodd" clip-rule="evenodd" d="M20.7628 4.61038C23.9341 5.40747 26.4173 7.28016 26.886 9.19126C27.1254 9.22327 27.3714 9.27129 27.624 9.33531C28.1426 9.46976 28.5614 9.65223 28.9105 9.89231C29.9177 10.603 30.3964 11.9379 30.1172 13.2343L29.9576 13.8106C29.7283 14.8477 29.0302 15.8273 27.993 16.5764C27.2949 17.0757 26.5071 17.4311 25.7192 17.7288C25.7724 17.7672 25.8156 17.8152 25.8489 17.8728C25.9685 18.0265 26.0084 18.2186 25.9785 18.401C25.9785 18.4074 25.9752 18.4138 25.9685 18.4202L25.8189 18.9964C25.6693 19.7551 24.9613 20.3313 24.1535 20.3313C24.1136 20.3313 24.0704 20.3281 24.0238 20.3217C23.9308 20.3153 23.841 20.2993 23.7546 20.2737C23.236 20.1489 22.8171 19.7839 22.6177 19.323C21.5905 20.0528 20.4037 20.5138 19.1372 20.6579L18.9876 21.1861C20.8226 22.2424 21.7401 23.6638 21.391 24.9314L21.1916 25.6709C20.8425 26.9578 19.1871 27.7933 16.9731 27.7933C16.1753 27.7933 15.3476 27.6876 14.5198 27.4764C12.994 27.0922 11.6477 26.4008 10.7302 25.5364C9.7728 24.6337 9.38386 23.6446 9.63318 22.7418L9.83263 22.0024C9.85923 21.8999 9.89579 21.7975 9.94233 21.695L9.95231 21.6758C9.9922 21.5798 10.052 21.4934 10.1119 21.3973C10.1218 21.3877 10.1318 21.3685 10.1318 21.3685C10.1917 21.2917 10.2515 21.2053 10.3313 21.1188L10.3512 21.09C10.4244 21.0196 10.5041 20.946 10.5906 20.8691L10.6205 20.8499C10.7069 20.7795 10.7967 20.7155 10.8897 20.6579L10.9296 20.629C11.0294 20.5714 11.1324 20.5138 11.2388 20.4562L11.2687 20.4466C11.3817 20.389 11.4948 20.3377 11.6078 20.2929L11.6277 20.2833C11.7607 20.2321 11.8903 20.1873 12.0167 20.1489C12.5652 19.9856 13.1735 19.8992 13.8317 19.88L13.9813 19.3518C13.353 18.91 12.8045 18.3722 12.3557 17.7576C12.2228 17.5847 12.1031 17.4087 11.9967 17.2294C11.887 17.0373 11.7773 16.8357 11.6776 16.634C11.6643 16.602 11.6477 16.57 11.6277 16.5379C11.3385 16.7588 10.9596 16.8837 10.5706 16.8837C10.431 16.8837 10.2914 16.8677 10.1518 16.8357C10.0653 16.81 9.9789 16.7812 9.89247 16.7492C9.12457 16.4035 8.73563 15.5104 9.0049 14.7421L9.16446 14.1659C9.16446 14.1595 9.16778 14.1563 9.17443 14.1563C9.26418 13.9066 9.48359 13.7337 9.74288 13.6857C9.21432 13.0615 8.70572 12.37 8.35667 11.6017C7.82811 10.4589 7.71841 9.27769 8.04751 8.27892L8.21705 7.6739C8.62593 6.42544 9.7329 5.4939 10.9695 5.34985C11.0825 5.33704 11.2022 5.33064 11.3285 5.33064C11.6477 5.33064 11.9967 5.37866 12.3757 5.4747C12.6217 5.53872 12.8577 5.61235 13.0837 5.69558C13.9913 4.75443 15.6567 4.20703 17.6712 4.20703C18.6785 4.20703 19.7156 4.34148 20.7628 4.61038ZM13.1536 5.98368C12.8943 5.87484 12.615 5.78201 12.3158 5.70518C11.9568 5.61875 11.6277 5.57073 11.3285 5.57073C11.2155 5.57073 11.1058 5.57713 10.9994 5.58994C9.85258 5.71478 8.82539 6.5887 8.44642 7.75073L8.28686 8.33654C7.9777 9.28729 8.07743 10.4205 8.57607 11.5057C9.01487 12.4469 9.68304 13.2728 10.3512 14.0122L10.3811 14.0506C10.6105 14.3099 10.8299 14.55 10.9496 14.8189C10.9828 14.8893 11.0061 14.9566 11.0194 15.0206C10.9396 15.0782 10.8299 15.107 10.7302 15.107C10.6703 15.107 10.6172 15.0974 10.5706 15.0782C10.3811 14.9918 10.2714 14.7421 10.3412 14.55C10.431 14.3003 10.2914 14.0314 10.0421 13.945C9.98222 13.9258 9.92571 13.9162 9.87252 13.9162C9.66309 13.9162 9.47362 14.0314 9.40381 14.2331L9.24424 14.8189C9.00489 15.472 9.34397 16.2402 9.9922 16.5283C10.0653 16.5604 10.1418 16.586 10.2216 16.6052C10.3346 16.6372 10.4509 16.6532 10.5706 16.6532C11.0094 16.6532 11.4482 16.4611 11.7175 16.125C11.7773 16.2658 11.8372 16.4035 11.897 16.5379C11.9967 16.7364 12.1031 16.9285 12.2161 17.1142C12.3225 17.287 12.4355 17.4567 12.5552 17.6231C13.0139 18.2474 13.5924 18.8044 14.2605 19.2557L14.0212 20.1201C13.3131 20.1201 12.6549 20.2161 12.0865 20.3794C11.9601 20.4178 11.8372 20.4594 11.7175 20.5042C11.7108 20.5042 11.7075 20.5074 11.7075 20.5138C11.5945 20.5586 11.4848 20.6066 11.3784 20.6579C11.3651 20.6579 11.3551 20.6611 11.3485 20.6675C11.2488 20.7187 11.1524 20.7731 11.0593 20.8307C11.0526 20.8371 11.0427 20.8435 11.0294 20.8499C10.9429 20.9076 10.8598 20.9684 10.78 21.0324C10.7734 21.0388 10.7634 21.0452 10.7501 21.0516C10.677 21.1156 10.6072 21.1828 10.5407 21.2533C10.5274 21.2661 10.5174 21.2757 10.5108 21.2821C10.4443 21.3525 10.3845 21.4261 10.3313 21.503C10.3313 21.5094 10.3279 21.519 10.3213 21.5318C10.2681 21.6086 10.2216 21.6886 10.1817 21.7719C10.175 21.7783 10.1717 21.7847 10.1717 21.7911C10.1318 21.8807 10.0986 21.9735 10.072 22.0696L9.87252 22.7994C9.41378 24.4801 11.518 26.468 14.5797 27.2459C15.4074 27.4572 16.2252 27.5532 16.9731 27.5532C19.0076 27.5532 20.6132 26.8329 20.9522 25.6133L21.1517 24.8738C21.4908 23.6542 20.4636 22.2712 18.7084 21.3013L18.9377 20.437C20.3539 20.3121 21.6803 19.7647 22.7473 18.91C22.8371 19.4478 23.2659 19.9088 23.8144 20.0432C23.8876 20.0624 23.964 20.0752 24.0438 20.0816C24.0837 20.0881 24.1202 20.0913 24.1535 20.0913C24.8316 20.0913 25.4599 19.6015 25.5696 18.9484L25.7292 18.3626C25.779 18.1033 25.5995 17.8536 25.3303 17.8152C25.3037 17.8088 25.2738 17.8056 25.2405 17.8056C25.0111 17.8056 24.8017 17.9689 24.7618 18.1994C24.7219 18.3914 24.5125 18.5547 24.3131 18.5547C24.3064 18.5547 24.2964 18.5515 24.2831 18.5451C24.1335 18.5355 23.9939 18.4298 23.9241 18.2858C23.9707 18.2346 24.0238 18.1898 24.0837 18.1513C24.333 17.9689 24.6422 17.8632 24.9713 17.748L25.0211 17.7288C25.9785 17.3927 26.9857 16.9989 27.8434 16.3843C28.8407 15.6736 29.4989 14.7421 29.7183 13.7625L29.8778 13.1767C30.1371 11.9763 29.6884 10.7374 28.7609 10.0844C28.4418 9.8635 28.0429 9.69064 27.5542 9.56579C27.255 9.48897 26.9658 9.43775 26.6866 9.41214C26.3475 7.56826 23.9441 5.65716 20.6929 4.84086C19.6558 4.57196 18.6286 4.44712 17.6712 4.44712C15.6667 4.44712 13.9913 5.00412 13.1536 5.98368ZM25.071 15.4239L25.9286 12.2644C26.148 12.0051 26.2976 11.717 26.3874 11.4001L26.5071 10.9487C26.7132 10.9743 26.9226 11.0127 27.1353 11.0639C27.5043 11.16 27.7935 11.2848 28.0129 11.4385C28.5914 11.8418 28.8806 12.6293 28.7709 13.3976C28.5315 13.993 28.0628 14.5692 27.4146 15.0302C26.6965 15.5488 25.8688 15.8849 24.8416 16.2498L24.8017 16.2594C24.7884 16.2659 24.7784 16.2691 24.7718 16.2691C24.8915 16.0002 24.9912 15.7184 25.071 15.4239ZM11.2887 12.8406L11.2587 12.8118C10.5507 12.0147 10.0022 11.3232 9.64315 10.5357C9.31405 9.82509 9.20435 9.10483 9.2941 8.46139C9.59329 7.74113 10.2515 7.20333 10.9496 7.1265C11.0227 7.1137 11.0958 7.10729 11.169 7.10729C11.3884 7.10729 11.6277 7.14571 11.907 7.21293C12.1264 7.27055 12.3291 7.33778 12.5153 7.41461L12.3956 7.85637C12.3059 8.17328 12.2959 8.4998 12.3458 8.82632L11.4881 11.9859C11.4083 12.2804 11.3485 12.5749 11.3086 12.8694C11.3019 12.863 11.2953 12.8534 11.2887 12.8406ZM9.87252 10.4397C10.1717 11.0832 10.6005 11.669 11.149 12.3124C11.1823 12.1844 11.2155 12.0531 11.2488 11.9187L12.0964 8.81672C12.0466 8.46139 12.0665 8.11566 12.1563 7.78914L12.2261 7.55866C12.1064 7.51384 11.9801 7.47543 11.8471 7.44342C11.5878 7.37619 11.3684 7.34738 11.169 7.34738C11.1025 7.34738 11.0393 7.35058 10.9795 7.35699C10.3811 7.42421 9.81269 7.89478 9.53345 8.52861C9.45367 9.12403 9.57334 9.78667 9.87252 10.4397ZM25.3103 15.4816C25.2771 15.6096 25.2372 15.7377 25.1907 15.8657C25.9984 15.568 26.6766 15.2607 27.265 14.8381C27.8633 14.4156 28.3021 13.897 28.5315 13.34C28.6213 12.6581 28.352 11.9763 27.8733 11.6306C27.6739 11.4961 27.4146 11.3905 27.0755 11.2944C26.9425 11.2624 26.8129 11.2368 26.6866 11.2176L26.6267 11.4577C26.537 11.7842 26.3774 12.0915 26.158 12.37L25.3103 15.4816ZM10.5706 14.6557C10.5606 14.7325 10.6105 14.8381 10.6803 14.8669C10.687 14.8669 10.6936 14.8669 10.7003 14.8669C10.667 14.7965 10.6238 14.7261 10.5706 14.6557ZM24.3131 18.3146C24.3829 18.3146 24.4826 18.2474 24.5125 18.1802C24.4261 18.2186 24.3496 18.2602 24.2831 18.305C24.2964 18.3114 24.3064 18.3146 24.3131 18.3146ZM12.0865 20.3794H12.0964H12.0865Z" fill="#92632A"/>
<defs>
<linearGradient id="paint0_linear_31059_173380" x1="2.79864" y1="14.1443" x2="4.25516" y2="10.419" gradientUnits="userSpaceOnUse">
<stop stop-color="#BE6D00"/>
<stop offset="1" stop-color="#FFF57F"/>
</linearGradient>
<linearGradient id="paint1_linear_31059_173380" x1="4.74604" y1="12.4948" x2="4.95692" y2="11.9554" gradientUnits="userSpaceOnUse">
<stop stop-color="white"/>
<stop offset="1" stop-color="white"/>
</linearGradient>
<linearGradient id="paint2_linear_31059_173380" x1="5.43218" y1="12.0821" x2="5.55174" y2="11.7762" gradientUnits="userSpaceOnUse">
<stop stop-color="white"/>
<stop offset="1" stop-color="white"/>
</linearGradient>
<linearGradient id="paint3_linear_31059_173380" x1="8.26556" y1="20.6126" x2="6.7337" y2="18.5659" gradientUnits="userSpaceOnUse">
<stop stop-color="#BE6D00"/>
<stop offset="1" stop-color="#FFF57F"/>
</linearGradient>
<linearGradient id="paint4_linear_31059_173380" x1="7.94486" y1="19.0611" x2="7.72303" y2="18.7647" gradientUnits="userSpaceOnUse">
<stop stop-color="white"/>
<stop offset="1" stop-color="white"/>
</linearGradient>
<linearGradient id="paint5_linear_31059_173380" x1="7.92548" y1="18.5663" x2="7.79968" y2="18.3982" gradientUnits="userSpaceOnUse">
<stop stop-color="white"/>
<stop offset="1" stop-color="white"/>
</linearGradient>
<linearGradient id="paint6_linear_31059_173380" x1="-2.29857" y1="6.67293" x2="5.92408" y2="-1.94747" gradientUnits="userSpaceOnUse">
<stop stop-color="#FFF57F"/>
<stop offset="1" stop-color="#BE6D00"/>
</linearGradient>
<linearGradient id="paint7_linear_31059_173380" x1="9.05698" y1="5.50526" x2="14.3483" y2="6.94958" gradientUnits="userSpaceOnUse">
<stop stop-color="#FFF57F"/>
<stop offset="1" stop-color="#BE6D00"/>
</linearGradient>
<linearGradient id="paint8_linear_31059_173380" x1="39.7858" y1="17.3245" x2="36.8038" y2="5.9836" gradientUnits="userSpaceOnUse">
<stop stop-color="#FFF57F"/>
<stop offset="1" stop-color="#BE6D00"/>
</linearGradient>
<linearGradient id="paint9_linear_31059_173380" x1="30.494" y1="10.9307" x2="25.2026" y2="9.48634" gradientUnits="userSpaceOnUse">
<stop stop-color="#FFF57F"/>
<stop offset="1" stop-color="#BE6D00"/>
</linearGradient>
<linearGradient id="paint10_linear_31059_173380" x1="10.6993" y1="19.7641" x2="21.7268" y2="22.7742" gradientUnits="userSpaceOnUse">
<stop stop-color="#BE6D00"/>
<stop offset="1" stop-color="#FFF57F"/>
</linearGradient>
<linearGradient id="paint11_linear_31059_173380" x1="9.30475" y1="25.1643" x2="17.0101" y2="17.0862" gradientUnits="userSpaceOnUse">
<stop stop-color="#FFF57F"/>
<stop offset="1" stop-color="#BE6D00"/>
</linearGradient>
<linearGradient id="paint12_linear_31059_173380" x1="12.919" y1="26.0349" x2="14.2143" y2="20.9174" gradientUnits="userSpaceOnUse">
<stop stop-color="white"/>
<stop offset="1" stop-color="white"/>
</linearGradient>
<linearGradient id="paint13_linear_31059_173380" x1="10.9429" y1="22.9729" x2="12.5313" y2="16.6978" gradientUnits="userSpaceOnUse">
<stop stop-color="#FFF57F"/>
<stop offset="0.656" stop-color="#BE6D00"/>
</linearGradient>
<linearGradient id="paint14_linear_31059_173380" x1="13.0426" y1="6.28558" x2="26.5564" y2="9.97433" gradientUnits="userSpaceOnUse">
<stop stop-color="#FFF57F"/>
<stop offset="1" stop-color="#BE6D00"/>
</linearGradient>
<linearGradient id="paint15_linear_31059_173380" x1="13.0426" y1="6.28558" x2="20.0915" y2="8.20966" gradientUnits="userSpaceOnUse">
<stop stop-color="white"/>
<stop offset="1" stop-color="white"/>
</linearGradient>
<linearGradient id="paint16_linear_31059_173380" x1="13.4423" y1="4.01521" x2="27.3625" y2="7.81488" gradientUnits="userSpaceOnUse">
<stop stop-color="#FFF57F"/>
<stop offset="1" stop-color="#BE6D00"/>
</linearGradient>
<linearGradient id="paint17_linear_31059_173380" x1="16.3343" y1="11.9353" x2="18.2857" y2="4.22589" gradientUnits="userSpaceOnUse">
<stop stop-color="#FFF57F"/>
<stop offset="1" stop-color="#BE6D00"/>
</linearGradient>
<linearGradient id="paint18_linear_31059_173380" x1="11.5761" y1="12.3866" x2="15.5958" y2="2.37284" gradientUnits="userSpaceOnUse">
<stop stop-color="white"/>
<stop offset="1" stop-color="white"/>
</linearGradient>
<linearGradient id="paint19_linear_31059_173380" x1="14.2512" y1="24.2808" x2="15.112" y2="20.8803" gradientUnits="userSpaceOnUse">
<stop stop-color="#FFF57F"/>
<stop offset="1" stop-color="#BE6D00"/>
</linearGradient>
<linearGradient id="paint20_linear_31059_173380" x1="2.80487" y1="15.0452" x2="4.17207" y2="9.64408" gradientUnits="userSpaceOnUse">
<stop stop-color="white"/>
<stop offset="1" stop-color="white"/>
</linearGradient>
<linearGradient id="paint21_linear_31059_173380" x1="17.2908" y1="10.8092" x2="18.7885" y2="4.89262" gradientUnits="userSpaceOnUse">
<stop stop-color="#BE6D00"/>
<stop offset="1" stop-color="#FFF57F"/>
</linearGradient>
<linearGradient id="paint22_linear_31059_173380" x1="17.7959" y1="10.9391" x2="19.0363" y2="6.03859" gradientUnits="userSpaceOnUse">
<stop stop-color="#BE6D00"/>
<stop offset="1" stop-color="#FFF57F"/>
</linearGradient>
</defs>
</svg>
