<svg xmlns="http://www.w3.org/2000/svg" viewBox="0 0 739.19 227.09"><defs><style>.cls-1{fill:#0090bc;}.cls-2{fill:#e9662a;}</style></defs><g id="Capa_2" data-name="Capa 2"><g id="Capa_1-2" data-name="Capa 1"><g id="Inclub"><path class="cls-1" d="M.1,148.2v3.66A14.13,14.13,0,0,0,14.23,166H19a14.12,14.12,0,0,0,14.12-14.12V92.43c0-7.85-.06-15.71,0-23.56h0a35.88,35.88,0,0,1,71.71-1.78s.07,1.94.07,2.27c.09,27.5,0,55,0,82.51A14.13,14.13,0,0,0,119,166h4.72a14.12,14.12,0,0,0,14.12-14.12V88.78c0-10.8.52-21.68-1.21-32.37C131.4,24.28,101.78.76,69.86,0L69,0C31.34,0,.42,31.49.1,68.87-.13,95.31.1,121.76.1,148.2Z"/><circle class="cls-2" cx="69.01" cy="16.52" r="16.44"/><rect class="cls-1" x="232.55" y="84.13" width="17.21" height="72.43"/><polygon class="cls-1" points="337.33 126.4 306.96 83.93 287.86 83.93 287.86 156.66 303.09 156.66 303.09 109.38 337.74 156.66 352.17 156.66 352.17 83.93 337.33 83.93 337.33 126.4"/><path class="cls-1" d="M441.2,129l-.37.7A20.17,20.17,0,0,1,402.92,120a20.23,20.23,0,0,1,20.2-20.19,19.75,19.75,0,0,1,17.13,9.8l.38.67,17.87,0a27.53,27.53,0,0,0-3.53-8.2,35.81,35.81,0,0,0-31.85-18.76c-15.49.06-25.34,10.06-26.59,11.37a36.75,36.75,0,0,0-.77,49.84c1.06,1.18,11.19,12.12,27.36,12.21A36.77,36.77,0,0,0,457.47,133a37.38,37.38,0,0,0,1.25-4Z"/><polygon class="cls-1" points="506.52 83.83 489.6 83.83 489.6 156.07 542.8 156.07 542.8 141.33 506.52 141.33 506.52 83.83"/><path class="cls-1" d="M621.85,129c0,10.74-3.62,14.54-13.85,14.54-12.12,0-13.75-7.35-13.75-14.54V84.13H577V129c0,19.15,10.7,29.28,31,29.28,20,0,31.06-10.4,31.06-29.28V84.13H621.85Z"/><path class="cls-1" d="M727.47,117.1c5.68-3.31,8.35-8,8.35-14.6,0-12.36-7.67-18.37-23.43-18.37H678.25v72.43h35.13c11.9,0,25.81-5.59,25.81-21.34C739.19,126.33,735,120,727.47,117.1Zm-32,7.93H711.6c7,0,10.37,3,10.37,9.29,0,5.72-3.49,8.5-10.67,8.5H695.47Zm14.94-12.25H695.47V97.87h13.75c6.74,0,9.88,2.32,9.88,7.31C719.1,111.46,714.37,112.78,710.41,112.78Z"/><path class="cls-2" d="M190.22,78.89V75.23a14.13,14.13,0,0,0-14.13-14.12h-4.72a14.13,14.13,0,0,0-14.13,14.12v59.43c0,7.85.07,15.71,0,23.56h0A35.88,35.88,0,0,1,85.53,160s-.07-1.94-.08-2.27c-.09-27.5,0-55,0-82.51A14.12,14.12,0,0,0,71.33,61.11H66.61A14.13,14.13,0,0,0,52.48,75.23v63.08c0,10.8-.52,21.67,1.22,32.37,5.21,32.13,34.84,55.64,66.76,56.38.3,0,.59,0,.89,0,37.62,0,68.54-31.49,68.87-68.87C190.44,131.78,190.22,105.33,190.22,78.89Z"/></g></g></g></svg>