<svg xmlns="http://www.w3.org/2000/svg" viewBox="0 0 500 500"><g id="freepik--background-simple--inject-2"><path d="M451.67,117q-2.52-4.2-5.25-8.22c-24.28-35.67-64.69-60.09-104-71.15a224,224,0,0,0-52.51-8c-115.68-4.2-158.18,91.17-195.45,115.77S0,211.91,7.21,300.15c5.44,67.09,43.61,131.24,113.31,160.43a197.16,197.16,0,0,0,24.19,8.35,230.64,230.64,0,0,0,51.09,7.85c52.7,2.35,95.49-10.35,137.35-42.34,9.73-7.44,19.41-15.83,32-16.75,9.18-.66,17.88,2.63,8.29,11.5-11.28,10.43,1.73,30.93,30.35,16.69,47.81-23.8,67.47-75.13,76.73-127.32C491.93,254.49,486.41,174.81,451.67,117Z" style="fill:#FFC100"></path><path d="M451.67,117q-2.52-4.2-5.25-8.22c-24.28-35.67-64.69-60.09-104-71.15a224,224,0,0,0-52.51-8c-115.68-4.2-158.18,91.17-195.45,115.77S0,211.91,7.21,300.15c5.44,67.09,43.61,131.24,113.31,160.43a197.16,197.16,0,0,0,24.19,8.35,230.64,230.64,0,0,0,51.09,7.85c52.7,2.35,95.49-10.35,137.35-42.34,9.73-7.44,19.41-15.83,32-16.75,9.18-.66,17.88,2.63,8.29,11.5-11.28,10.43,1.73,30.93,30.35,16.69,47.81-23.8,67.47-75.13,76.73-127.32C491.93,254.49,486.41,174.81,451.67,117Z" style="fill:#fff;opacity:0.7000000000000001"></path></g><g id="freepik--Space--inject-2"><path d="M206.19,460.54c-3.7,0-7.53-.09-11.38-.26A215.63,215.63,0,0,1,147.29,453a181.09,181.09,0,0,1-22-7.6C66.6,420.84,28.38,366.5,23,300,20.2,265.8,27.78,237,46.15,212c15.51-21.14,36.19-36.28,56.22-49.5,13.07-8.62,24.73-21.68,38.24-36.79,31.75-35.53,71.27-79.75,143.52-79.75,2.21,0,4.48,0,6.73.12a207.59,207.59,0,0,1,48.62,7.42c39.15,11,74.26,34.86,93.93,63.77,1.57,2.31,3.15,4.77,4.68,7.32,34.67,57.73,36.58,137.15,26.8,192.23-9.68,54.57-27.59,89.35-56,108.2a30.43,30.43,0,0,0-1.63-6c-5-12.79-18-20.43-34.68-20.43-1.4,0-2.83.05-4.25.16-19.79,1.44-34.16,12.55-44.65,20.67L321,421.46C285.67,448.49,250.25,460.54,206.19,460.54Z" style="fill:#263238"></path></g><g id="freepik--Stars--inject-2"><circle cx="362.53" cy="100.87" r="4.69" style="fill:#b2b2b2"></circle><circle cx="441.07" cy="180.24" r="4.69" style="fill:#b2b2b2"></circle><circle cx="116.79" cy="402.6" r="4.69" style="fill:#b2b2b2"></circle><circle cx="402.48" cy="398.53" r="4.69" style="fill:#b2b2b2"></circle><path d="M248.49,60a2.68,2.68,0,1,1-2.68-2.68A2.68,2.68,0,0,1,248.49,60Z" style="fill:#b2b2b2"></path><circle cx="62" cy="221.83" r="4.69" style="fill:#b2b2b2"></circle><circle cx="400.24" cy="104.37" r="2.33" style="fill:#b2b2b2"></circle><circle cx="86.94" cy="371.26" r="2.33" style="fill:#FFC100"></circle><circle cx="430.61" cy="352.08" r="2.33" style="fill:#FFC100"></circle><path d="M216.25,416.32a2.33,2.33,0,1,1-2.33-2.32A2.33,2.33,0,0,1,216.25,416.32Z" style="fill:#FFC100"></path><path d="M97,334.17a2.33,2.33,0,1,1-2.33-2.33A2.34,2.34,0,0,1,97,334.17Z" style="fill:#b2b2b2"></path><path d="M193.36,445.78a2.33,2.33,0,1,1-2.33-2.33A2.32,2.32,0,0,1,193.36,445.78Z" style="fill:#b2b2b2"></path><path d="M327.41,70.68a2.33,2.33,0,1,1-2.33-2.33A2.33,2.33,0,0,1,327.41,70.68Z" style="fill:#FFC100"></path><path d="M331.43,325.22a2.33,2.33,0,1,1-2.33-2.33A2.32,2.32,0,0,1,331.43,325.22Z" style="fill:#b2b2b2"></path><path d="M438.32,234.73A2.33,2.33,0,1,1,436,232.4,2.33,2.33,0,0,1,438.32,234.73Z" style="fill:#b2b2b2"></path><circle cx="57.33" cy="323.94" r="2.33" style="fill:#FFC100"></circle><circle cx="264.74" cy="429.46" r="2.33" style="fill:#b2b2b2"></circle><circle cx="180.32" cy="338.65" r="2.33" style="fill:#FFC100"></circle><path d="M335.49,150.62a2.33,2.33,0,1,1-2.32-2.33A2.32,2.32,0,0,1,335.49,150.62Z" style="fill:#FFC100"></path></g><g id="freepik--Number--inject-2"><path d="M121.82,338.88V289.81H62.16V260.72l52-121.54h39.69V262.69h20.46v27.12H153.87v49.07ZM90.75,262.69h31.07V175.91Zm153.6,79.14q-17.5,0-29-7.39A45.83,45.83,0,0,1,198.12,314q-5.79-13.08-5.79-30.08V195.39q0-17.5,5.55-30.69a44.17,44.17,0,0,1,17-20.59q11.46-7.4,29.46-7.4t29.46,7.4a44.28,44.28,0,0,1,17,20.59q5.55,13.19,5.55,30.69V283.9q0,17-5.8,30.08a45.81,45.81,0,0,1-17.25,20.46Q261.85,341.84,244.35,341.83Zm0-29.33q7.64,0,11.34-4.69a25.57,25.57,0,0,0,4.93-11.34,71.82,71.82,0,0,0,1.23-13.07V195.88a84.53,84.53,0,0,0-1.11-13.68,24.46,24.46,0,0,0-4.81-11.46q-3.69-4.68-11.58-4.69t-11.59,4.69A24.56,24.56,0,0,0,228,182.2a84.53,84.53,0,0,0-1.11,13.68V283.4a64.93,64.93,0,0,0,1.36,13.07,26.52,26.52,0,0,0,5.05,11.34Q237,312.51,244.35,312.5Zm133.38,26.38V289.81H318.06V260.72l52-121.54h39.69V262.69h20.47v27.12H409.77v49.07Zm-31.07-76.19h31.07V175.91Z" style="fill:#FFC100;stroke:#263238;stroke-miterlimit:10"></path></g></svg>