<svg width="17" height="17" viewBox="0 0 17 17" fill="none" xmlns="http://www.w3.org/2000/svg">
<path d="M15.166 4.56266V6.176C15.166 7.22933 14.4993 7.896 13.446 7.896H11.166V3.236C11.166 2.49599 11.7727 1.896 12.5127 1.896C13.2393 1.90266 13.906 2.19599 14.386 2.67599C14.866 3.16266 15.166 3.82933 15.166 4.56266Z" stroke="#19809E" stroke-width="1.2" stroke-miterlimit="10" stroke-linecap="round" stroke-linejoin="round"/>
<path d="M1.83398 5.22933V14.5627C1.83398 15.116 2.46065 15.4293 2.90065 15.096L4.04065 14.2427C4.30732 14.0427 4.68065 14.0693 4.92065 14.3093L6.02732 15.4227C6.28732 15.6827 6.71398 15.6827 6.97398 15.4227L8.09398 14.3027C8.32732 14.0693 8.70065 14.0427 8.96065 14.2427L10.1007 15.096C10.5407 15.4227 11.1673 15.1093 11.1673 14.5627V3.22933C11.1673 2.496 11.7673 1.896 12.5007 1.896H5.16732H4.50065C2.50065 1.896 1.83398 3.08933 1.83398 4.56266V5.22933Z" stroke="#19809E" stroke-width="1.2" stroke-miterlimit="10" stroke-linecap="round" stroke-linejoin="round"/>
<path d="M6.5 9.23584H8.5" stroke="#19809E" stroke-width="1.2" stroke-linecap="round" stroke-linejoin="round"/>
<path d="M6.5 6.56934H8.5" stroke="#19809E" stroke-width="1.2" stroke-linecap="round" stroke-linejoin="round"/>
<path d="M4.49609 9.229H4.50208" stroke="#19809E" stroke-width="1.2" stroke-linecap="round" stroke-linejoin="round"/>
<path d="M4.49609 6.5625H4.50208" stroke="#19809E" stroke-width="1.2" stroke-linecap="round" stroke-linejoin="round"/>
</svg>
