<svg width="52" height="52" viewBox="0 0 52 52" fill="none" xmlns="http://www.w3.org/2000/svg">
<g filter="url(#filter0_d_17506_566507)">
<rect x="2" y="1" width="48" height="48" rx="10" fill="white"/>
<rect x="2.5" y="1.5" width="47" height="47" rx="9.5" stroke="#E9EAEB"/>
<path d="M36 24.0779V24.9979C35.9988 27.1543 35.3005 29.2526 34.0093 30.9797C32.7182 32.7069 30.9033 33.9704 28.8354 34.5818C26.7674 35.1932 24.5573 35.1198 22.5345 34.3725C20.5117 33.6252 18.7847 32.244 17.611 30.435C16.4373 28.6259 15.8798 26.486 16.0217 24.3342C16.1636 22.1825 16.9972 20.1342 18.3983 18.495C19.7994 16.8557 21.6928 15.7133 23.7962 15.2381C25.8996 14.7628 28.1003 14.9802 30.07 15.8579" stroke="#5F7081" stroke-width="2" stroke-linecap="round" stroke-linejoin="round"/>
<path d="M36 17L26 27.01L23 24.01" stroke="#5F7081" stroke-width="2" stroke-linecap="round" stroke-linejoin="round"/>
</g>
<defs>
<filter id="filter0_d_17506_566507" x="0" y="0" width="52" height="52" filterUnits="userSpaceOnUse" color-interpolation-filters="sRGB">
<feFlood flood-opacity="0" result="BackgroundImageFix"/>
<feColorMatrix in="SourceAlpha" type="matrix" values="0 0 0 0 0 0 0 0 0 0 0 0 0 0 0 0 0 0 127 0" result="hardAlpha"/>
<feOffset dy="1"/>
<feGaussianBlur stdDeviation="1"/>
<feColorMatrix type="matrix" values="0 0 0 0 0.0392157 0 0 0 0 0.0509804 0 0 0 0 0.0705882 0 0 0 0.05 0"/>
<feBlend mode="normal" in2="BackgroundImageFix" result="effect1_dropShadow_17506_566507"/>
<feBlend mode="normal" in="SourceGraphic" in2="effect1_dropShadow_17506_566507" result="shape"/>
</filter>
</defs>
</svg>
