<svg width="24" height="24" viewBox="0 0 24 24" fill="none" xmlns="http://www.w3.org/2000/svg">
<path d="M5.55936 8.52344C4.53003 8.52344 3.69256 9.36091 3.69256 10.3902C3.69256 10.8772 3.88016 11.321 4.18667 11.6537C3.27078 11.9371 2.60352 12.7918 2.60352 13.7995V14.4625C2.60352 14.9174 2.97364 15.2875 3.42861 15.2875H7.69025C8.14522 15.2875 8.51534 14.9174 8.51534 14.4625V13.7995C8.51534 12.7918 7.84808 11.9371 6.93219 11.6537C7.23866 11.321 7.42625 10.8772 7.42625 10.3902C7.42616 9.36091 6.58869 8.52344 5.55936 8.52344ZM5.55936 9.22656C6.20098 9.22656 6.72303 9.74861 6.72303 10.3902C6.72303 11.0319 6.20098 11.5539 5.55936 11.5539C4.91773 11.5539 4.39569 11.0319 4.39569 10.3902C4.39569 9.74861 4.91769 9.22656 5.55936 9.22656ZM7.81212 13.7995V14.4625C7.81212 14.5297 7.75742 14.5844 7.69016 14.5844H3.42856C3.3613 14.5844 3.30659 14.5297 3.30659 14.4625V13.7995C3.30659 12.949 3.99856 12.257 4.84906 12.257H6.26961C7.12016 12.257 7.81212 12.949 7.81212 13.7995Z" fill="#5F7081"/>
<path d="M15.4844 7.35814V8.02109C15.4844 8.47606 15.8545 8.84619 16.3095 8.84619H20.5711C21.0261 8.84619 21.3962 8.47606 21.3962 8.02109V7.35814C21.3962 6.35042 20.7289 5.4957 19.813 5.21234C20.1195 4.87963 20.3072 4.43577 20.3072 3.94883C20.3072 2.9195 19.4697 2.08203 18.4404 2.08203C17.411 2.08203 16.5736 2.9195 16.5736 3.94883C16.5736 4.43577 16.7612 4.87963 17.0676 5.21234C16.1517 5.49566 15.4844 6.35042 15.4844 7.35814ZM18.4403 2.78516C19.0819 2.78516 19.6039 3.3072 19.6039 3.94883C19.6039 4.59045 19.0819 5.1125 18.4403 5.1125C17.7986 5.1125 17.2766 4.59045 17.2766 3.94883C17.2766 3.3072 17.7986 2.78516 18.4403 2.78516ZM16.1875 7.35814C16.1875 6.50759 16.8795 5.81567 17.73 5.81567H19.1505C20.0011 5.81567 20.693 6.50764 20.693 7.35814V8.02109C20.693 8.08836 20.6383 8.14306 20.571 8.14306H16.3094C16.2421 8.14306 16.1874 8.08836 16.1874 8.02109V7.35814H16.1875Z" fill="#5F7081"/>
<path d="M22.8468 15.6401C22.6763 15.7331 22.6135 15.9467 22.7065 16.1171C23.0927 16.8249 23.2969 17.628 23.2969 18.4396C23.2969 21.1179 21.1179 23.2969 18.4397 23.2969C15.7614 23.2969 13.5825 21.1179 13.5825 18.4397C13.5825 15.7614 15.7614 13.5825 18.4397 13.5825C19.6855 13.5825 20.8699 14.0538 21.7747 14.9095C21.9158 15.0429 22.1383 15.0367 22.2717 14.8957C22.4051 14.7546 22.3989 14.5321 22.2578 14.3986C21.2219 13.419 19.866 12.8794 18.4397 12.8794C16.3921 12.8794 14.5998 13.992 13.6348 15.6442L10.6808 14.1672C10.9639 13.5009 11.1206 12.7684 11.1206 12C11.1206 11.2495 10.9688 10.5129 10.681 9.83259L13.6348 8.3557C14.5998 10.008 16.3921 11.1206 18.4397 11.1206C21.5056 11.1206 24 8.62622 24 5.56027C24 2.49431 21.5056 0 18.4397 0C16.9675 0 15.5803 0.569578 14.5335 1.60383C14.3954 1.74028 14.394 1.96289 14.5305 2.10098C14.667 2.23903 14.8895 2.24048 15.0277 2.10394C15.942 1.20061 17.1537 0.703125 18.4397 0.703125C21.1179 0.703125 23.2969 2.88206 23.2969 5.56031C23.2969 8.23856 21.1179 10.4175 18.4397 10.4175C15.7614 10.4175 13.5825 8.23856 13.5825 5.56031C13.5825 4.77394 13.7643 4.02417 14.123 3.33183C14.2123 3.15942 14.1449 2.94727 13.9725 2.85797C13.8 2.76858 13.5879 2.83603 13.4986 3.00844C13.0935 3.79055 12.8794 4.67297 12.8794 5.56031C12.8794 6.32869 13.0361 7.06116 13.3192 7.72748L10.3665 9.20381C10.1956 8.91009 9.99745 8.63086 9.77297 8.37056C8.913 7.37339 7.72673 6.71198 6.43256 6.50822C6.24089 6.47794 6.0608 6.60905 6.03061 6.80081C6.00037 6.99262 6.13139 7.17258 6.3232 7.20277C7.45308 7.3807 8.48916 7.95853 9.24047 8.82975C9.99952 9.70992 10.4175 10.8358 10.4175 12C10.4175 14.6783 8.23861 16.8572 5.56036 16.8572C2.88211 16.8572 0.703125 14.6783 0.703125 12C0.703125 10.8359 1.12116 9.70997 1.8802 8.82975C2.63156 7.95848 3.66759 7.38066 4.79752 7.20277C4.98933 7.17258 5.12034 6.99262 5.09011 6.80081C5.05988 6.609 4.87992 6.47817 4.68816 6.50822C3.39398 6.71198 2.20767 7.37344 1.34775 8.37056C0.478641 9.37838 0 10.6673 0 12C0 15.066 2.49436 17.5603 5.56031 17.5603C7.60781 17.5603 9.40013 16.4477 10.3651 14.7955L13.3192 16.2725C13.0361 16.9388 12.8794 17.6713 12.8794 18.4397C12.8794 21.5056 15.3737 24 18.4397 24C21.5056 24 24 21.5056 24 18.4397C24 17.5108 23.7662 16.5912 23.3238 15.7804C23.2308 15.6099 23.0173 15.5471 22.8468 15.6401Z" fill="#5F7081"/>
<path d="M15.4844 20.241V20.9039C15.4844 21.3589 15.8545 21.729 16.3095 21.729H20.5711C21.0261 21.729 21.3962 21.3589 21.3962 20.9039V20.241C21.3962 19.2332 20.7289 18.3785 19.813 18.0952C20.1195 17.7624 20.3072 17.3186 20.3072 16.8316C20.3072 15.8023 19.4697 14.9648 18.4404 14.9648C17.411 14.9648 16.5736 15.8023 16.5736 16.8316C16.5736 17.3186 16.7612 17.7624 17.0676 18.0952C16.1517 18.3785 15.4844 19.2332 15.4844 20.241ZM18.4403 15.668C19.0819 15.668 19.6039 16.19 19.6039 16.8316C19.6039 17.4733 19.0819 17.9953 18.4403 17.9953C17.7986 17.9953 17.2766 17.4733 17.2766 16.8316C17.2766 16.19 17.7986 15.668 18.4403 15.668ZM16.1875 20.241C16.1875 19.3904 16.8795 18.6985 17.73 18.6985H19.1505C20.0011 18.6985 20.693 19.3905 20.693 20.241V20.9039C20.693 20.9712 20.6383 21.0259 20.571 21.0259H16.3094C16.2421 21.0259 16.1874 20.9712 16.1874 20.9039V20.241H16.1875Z" fill="#5F7081"/>
</svg>
