<svg width="68" height="24" viewBox="0 0 68 24" fill="none" xmlns="http://www.w3.org/2000/svg">
<g clip-path="url(#clip0_4201_173996)">
<rect width="68" height="24" />
<path d="M23.2799 11.6154C24.9406 12.184 25.8832 13.1676 26.0029 14.8735C26.1375 16.7638 25.3445 18.1777 23.8634 19.2227C23.0106 19.8374 22.0381 20.2063 21.0207 20.3907C19.0906 20.7595 17.1456 20.7749 15.2156 20.4522C13.2706 20.1294 12.4178 18.9153 12.8367 16.9175C13.7045 12.7988 14.6321 8.68008 15.5448 4.57676C15.6196 4.25402 15.7093 4.00813 16.1133 3.9774C18.2977 3.77761 20.4671 3.43951 22.6664 3.82371C23.4744 3.96203 24.2524 4.16181 24.9705 4.53065C27.4541 5.79085 27.7085 8.83376 25.5091 10.5396C24.8807 11.0161 24.1775 11.3234 23.2799 11.6154ZM17.5646 13.183C17.2803 14.52 17.011 15.7495 16.7417 16.9636C16.637 17.4246 16.6968 17.7934 17.2354 17.8242C18.4922 17.8857 19.7489 17.8242 20.8711 17.148C21.7239 16.6408 22.0829 15.8417 21.9632 14.8274C21.8436 13.8592 21.1703 13.475 20.3474 13.2137C19.4348 12.9371 18.552 13.3981 17.5646 13.183ZM20.3324 6.46705C19.9434 6.72831 19.2103 6.09821 18.9709 6.9281C18.7166 7.85019 18.5371 8.80302 18.3276 9.75586C18.2528 10.0786 18.3575 10.3706 18.7016 10.386C20.0482 10.4628 21.3947 10.4782 22.4869 9.4946C23.5492 8.54176 23.22 7.06641 21.8735 6.62073C21.3947 6.48242 20.901 6.48242 20.3324 6.46705ZM55.7613 6.69757C54.9982 4.54602 53.0682 4.03887 51.0933 3.83908C49.268 3.65466 47.4277 3.74687 45.6024 3.96203C44.974 4.03887 44.6598 4.28476 44.5102 4.96096C43.433 10.0017 42.3109 15.0425 41.2187 20.0833C41.1738 20.2677 41.084 20.4675 41.3234 20.698H42.7597C44.585 20.698 45.1236 20.2524 45.5276 18.4389C45.767 17.3631 46.0064 16.272 46.2308 15.2269C46.6048 15.0886 46.9041 15.1962 47.2033 15.2116C49.8365 15.3038 52.3351 14.8581 54.2651 12.8295C55.9109 11.1083 56.5991 9.01818 55.7613 6.69757ZM52.4697 9.38702C52.1107 11.139 50.6444 12.2301 48.6246 12.2455C47.308 12.2455 47.1883 12.0918 47.4726 10.7241C47.712 9.60217 47.9663 8.49566 48.1608 7.37378C48.2506 6.82052 48.5199 6.60537 49.0436 6.60537C49.5971 6.59 50.1507 6.55926 50.7043 6.66684C52.1406 6.94347 52.769 7.91167 52.4697 9.38702ZM40.9943 4.13108C37.5382 2.84015 34.2167 3.07067 31.3591 5.60643C28.6211 8.03461 27.7533 11.2619 28.0975 14.8888C28.292 16.9636 29.1448 18.7002 30.9551 19.7606C33.2592 21.113 35.7278 21.1591 38.2114 20.406C38.765 20.237 39.1839 19.8374 39.3335 19.2381C39.558 18.3313 39.7525 17.4246 39.9769 16.3949C39.1989 16.8252 38.5705 17.2248 37.8524 17.4553C35.5932 18.1777 33.334 17.2863 32.541 15.3499C31.4488 12.6758 33.0048 8.46492 35.5932 7.23546C37.7177 6.23653 39.7674 6.68221 41.8172 7.85019C41.9368 7.38915 42.0565 6.9742 42.1613 6.55926C42.4605 5.2837 42.2062 4.59213 40.9943 4.13108Z" fill="#004192"/>
<path d="M6.28383 5.39258C8.31859 6.45299 9.9494 7.97444 11.1463 9.94158C11.8794 11.1557 11.7897 12.4927 10.9668 13.6607C9.27613 16.0889 7.0319 17.8716 4.4286 19.101C2.67811 19.9309 0.748075 18.9627 0 17.011C1.0473 16.4423 2.09461 15.8583 3.05215 15.136C4.48845 14.0603 5.73025 12.8154 6.34368 11.0481C7.18152 9.1578 7.25633 7.2675 6.28383 5.39258ZM62.3894 5.39258C64.4242 6.43762 66.055 7.98981 67.2669 9.94158C68 11.1249 67.9402 12.4312 67.1472 13.5838C65.4416 16.0735 63.1525 17.887 60.4893 19.1318C58.7538 19.9309 56.8687 18.9474 56.1355 17.0417C57.123 16.4884 58.1254 15.9352 59.0381 15.2436C60.5193 14.1371 61.8359 12.8769 62.4643 11.0481C63.3171 9.14243 63.3769 7.25214 62.3894 5.39258Z" fill="#FF7D34"/>
<path d="M6.28337 5.39212C7.25587 7.26705 7.1661 9.14198 6.32826 11.0323C5.05653 9.61839 3.47061 8.65019 1.79492 7.88178C2.67765 5.43823 4.68249 4.36245 6.28337 5.39212ZM62.389 5.39212C63.3764 7.26705 63.3166 9.14198 62.4488 11.0476C61.1921 9.63376 59.6211 8.68093 57.8557 7.86641C58.4392 6.51401 59.277 5.53044 60.5936 5.02329C61.2669 4.74666 61.8504 4.94645 62.389 5.39212Z" fill="#004192"/>
</g>
<defs>
<clipPath id="clip0_4201_173996">
<rect width="68" height="24" />
</clipPath>
</defs>
</svg>
