<svg width="98" height="18" viewBox="0 0 98 18" fill="none" xmlns="http://www.w3.org/2000/svg">
<g clip-path="url(#clip0_4201_173998)">
<rect width="98" height="18" />
<path d="M48.2462 5.24163C45.4399 5.24163 43.4656 7.2879 43.4493 10.5883C43.4493 13.6082 45.8314 15.473 48.2625 15.473C49.7146 15.473 50.612 15.242 51.1341 14.8129V13.1462C50.3796 13.4852 49.5612 13.6541 48.7357 13.6412C47.2346 13.6412 46.0272 12.8161 45.8314 11.496L45.8151 11.3804H47.5609C49.2088 11.3804 50.3673 11.2319 51.1015 10.8689C51.8357 10.5058 52.1457 9.94475 52.1457 9.05364C52.1457 6.69382 50.2694 5.24163 48.2462 5.24163ZM49.3883 9.58171C48.9315 9.74673 48.2136 9.81274 47.0225 9.81274H45.7988V9.69722L45.8151 9.36718C45.8641 8.17902 46.7451 7.12288 48.0178 7.12288C48.5257 7.09849 49.0282 7.23711 49.4536 7.51893C49.6351 7.65975 49.7803 7.8428 49.8768 8.05253C49.9734 8.26225 50.0185 8.49246 50.0083 8.72359C50.0246 9.11964 49.8451 9.41668 49.3883 9.58171ZM53.3531 9.05364V15.308H55.6536V9.5157C55.6536 8.74009 55.8004 8.17902 56.1268 7.79947C56.4531 7.41992 56.9099 7.2714 57.481 7.2714C57.6887 7.26948 57.8962 7.28604 58.101 7.32091V5.47266C57.7394 5.29926 57.3426 5.21445 56.9426 5.22513C54.3646 5.24163 53.3531 7.08988 53.3531 9.05364ZM25.4366 15.308V2.7168H23.1523V15.308H25.4366ZM31.6203 5.24163C28.5529 5.24163 27.2313 7.35391 27.215 9.43319V15.308H29.4992V9.59821C29.4743 8.97751 29.6584 8.36664 30.0213 7.86548C30.1916 7.66295 30.4045 7.50152 30.6445 7.39302C30.8845 7.28451 31.1454 7.23168 31.4082 7.2384C32.0608 7.2384 32.5992 7.43642 32.9745 7.84898C33.3498 8.26153 33.5293 8.92162 33.5293 9.77973V15.308H35.8135V9.5652C35.8135 6.77633 33.9208 5.24163 31.6203 5.24163ZM39.8435 2.7168H37.5756V11.8095C37.5919 14.1198 38.734 15.473 41.214 15.4895C42.2746 15.4895 42.8946 15.1429 43.1556 14.5819V13.1462C42.7477 13.3277 42.193 13.4102 41.5077 13.4102C40.9856 13.4102 40.5614 13.2782 40.2677 12.9647C39.974 12.6511 39.8272 12.1725 39.8272 11.496V7.2384H41.8177C42.7967 7.2384 43.2046 6.61131 43.2046 6.14925V5.22513H39.8435V2.7168ZM83.1622 5.24163C80.0948 5.24163 78.7732 7.35391 78.7569 9.43319L78.7732 15.308H81.0411V9.59821C81.0411 8.85561 81.2369 8.27803 81.5632 7.86548C81.7335 7.66295 81.9465 7.50152 82.1864 7.39302C82.4264 7.28451 82.6873 7.23168 82.9501 7.2384C83.6027 7.2384 84.1412 7.43642 84.5164 7.86548C84.8917 8.29453 85.0712 8.92162 85.0712 9.77973V15.308H87.3391V9.5652C87.3554 6.77633 85.4791 5.24163 83.1622 5.24163ZM64.1542 5.24163C62.8652 5.24163 62.0657 6.01723 61.5926 6.72683L61.4131 6.99086V2.7168H59.1452V10.5223C59.1452 13.8393 61.1194 15.4895 63.681 15.4895C66.6016 15.4895 68.4453 13.1627 68.4453 10.1923C68.4453 7.2714 66.5853 5.24163 64.1542 5.24163ZM63.9421 13.5257C63.1915 13.5257 62.5226 13.3112 62.0821 12.7501C61.6415 12.189 61.4294 11.3309 61.4294 10.1593C61.4294 8.55857 62.3921 7.2549 63.6973 7.2384C64.4642 7.2384 65.0842 7.45292 65.5084 7.9975C65.9326 8.54207 66.1447 9.36718 66.1447 10.6048C66.1284 12.2716 65.231 13.5257 63.9421 13.5257ZM73.1279 5.24163C71.7411 5.24163 70.8274 5.62118 70.1911 6.11625V7.73346C70.9907 7.34907 71.8674 7.15704 72.7527 7.17239C73.5032 7.17239 74.1558 7.2879 74.5311 7.58494C74.9064 7.88198 75.0858 8.39355 75.0858 9.11964V9.35067H74.1069C70.4521 9.36718 69.2447 10.6708 69.2447 12.4036C69.2447 14.1858 70.8111 15.4895 73.1442 15.4895H73.65C75.82 15.4895 77.3211 14.0703 77.3211 11.991V9.68072C77.3374 6.16575 75.3306 5.25813 73.1279 5.24163ZM75.1185 12.0075C75.1185 12.5356 74.9879 12.9481 74.6942 13.2452C74.4006 13.5422 73.9763 13.6577 73.4216 13.6577C72.9512 13.6822 72.4846 13.5613 72.0837 13.3112C71.9249 13.1986 71.7969 13.0474 71.7113 12.8714C71.6257 12.6954 71.5855 12.5005 71.5942 12.3046C71.5798 12.0959 71.6243 11.8874 71.7225 11.7034C71.8208 11.5193 71.9686 11.3673 72.149 11.2649C72.5406 11.0339 73.1769 10.9349 74.1232 10.9349H75.1185V12.0075ZM93.8654 10.0933L93.8165 10.0273L93.8654 9.96126C94.8607 8.69059 97.0307 6.21526 97.8302 5.47266H96.5739C95.7744 5.47266 95.236 5.55517 94.6649 6.09974C93.5228 7.18889 92.5765 8.47606 91.6138 9.73023L91.4344 9.97776L91.4507 2.7168H89.1501V15.2915H91.4507V10.1923L91.6301 10.4398C92.7233 11.9085 93.8328 13.3937 95.1054 14.7139C95.5311 15.1188 96.0878 15.3534 96.6718 15.374C97.3081 15.374 97.667 15.209 97.9118 14.9119C97.2591 14.1363 94.6486 11.0504 93.8654 10.0933Z" fill="#00A24F"/>
<path d="M2.3658 0.00976562C1.73686 0.0141228 1.13514 0.269883 0.691928 0.721247C0.248717 1.17261 -1.47528e-05 1.78294 6.56283e-10 2.41908L6.56283e-10 17.9971H15.4185C16.05 17.9963 16.6554 17.7422 17.102 17.2905C17.5485 16.8389 17.7998 16.2266 17.8006 15.5878V0.00976562H2.3658ZM13.6401 12.997L4.16055 14.7297V5.05943L13.6401 3.3267V12.997Z" fill="#0060A9"/>
</g>
<defs>
<clipPath id="clip0_4201_173998">
<rect width="98" height="18" />
</clipPath>
</defs>
</svg>
