<?xml version="1.0" encoding="utf-8"?>
<!-- Generator: Adobe Illustrator 25.2.3, SVG Export Plug-In . SVG Version: 6.00 Build 0)  -->
<svg version="1.1" xmlns="http://www.w3.org/2000/svg" xmlns:xlink="http://www.w3.org/1999/xlink" x="0px" y="0px"
	 viewBox="0 0 1200 1200" style="enable-background:new 0 0 1200 1200;" xml:space="preserve">
<style type="text/css">
	.st0{fill:#3B90BA;}
	.st1{fill:#CE6632;}
</style>
<g id="Capa_2">
</g>
<g id="Capa_1">
	<path class="st0" d="M254.16,629.2v3.66c0,7.8,6.32,14.12,14.12,14.12h4.72c7.8,0,14.12-6.32,14.12-14.12v-59.42
		c0-7.85-0.06-15.71,0-23.57c0,0,0,0,0-0.01c0.12-19.71,16.14-35.66,35.88-35.66c19.14,0,34.79,14.99,35.83,33.88
		c0.01,0.04,0.07,1.94,0.08,2.27c0.09,27.5,0,55,0,82.5c0,7.8,6.32,14.12,14.12,14.12h4.72c7.8,0,14.12-6.32,14.12-14.12v-63.08
		c0-10.8,0.52-21.67-1.21-32.37c-5.22-32.13-34.84-55.65-66.76-56.38c-0.3-0.02-0.59-0.03-0.89-0.03
		c-37.62,0-68.54,31.49-68.87,68.87C253.93,576.31,254.16,602.76,254.16,629.2z"/>
	<circle class="st1" cx="323.07" cy="497.52" r="16.44"/>
	<g>
		<g>
			<rect x="478.6" y="558.2" class="st0" width="16.24" height="68.35"/>
			<polygon class="st0" points="577.48,598.09 548.81,558.01 530.8,558.01 530.8,626.64 545.17,626.64 545.17,582.03 577.86,626.64 
				591.47,626.64 591.47,558.01 577.48,558.01 			"/>
			<path class="st0" d="M675.48,600.51l-0.35,0.66c-3.48,6.57-10.54,10.48-18.15,9.92c-10-0.74-17.62-8.98-17.61-19.01
				c0-10.5,8.55-19.05,19.05-19.05c6.7,0,12.89,3.54,16.16,9.25l0.36,0.63l16.86-0.02c-0.35-1.41-0.89-3.08-1.74-4.86
				c-0.52-1.09-1.06-2.05-1.6-2.88c-1.48-2.73-5.02-8.34-11.87-12.61c-6.92-4.3-13.82-5.12-18.18-5.1
				c-14.62,0.06-23.91,9.5-25.09,10.73c-9.3,9.76-9.55,21.48-9.55,23.91c0,2.5,0.27,13.57,8.83,23.12
				c1,1.11,10.55,11.43,25.81,11.52c3.32,0.02,10.17-0.43,17.34-4.57c5.51-3.18,10.11-7.91,13.28-13.9
				c0.61-1.14,1.23-2.47,1.79-3.97c0.51-1.35,0.89-2.62,1.18-3.78C686.5,600.51,680.99,600.52,675.48,600.51z"/>
			<polygon class="st0" points="737.12,557.92 721.15,557.92 721.15,626.08 771.35,626.08 771.35,612.18 737.12,612.18 			"/>
			<path class="st0" d="M845.94,600.51c0,10.13-3.42,13.72-13.07,13.72c-11.43,0-12.97-6.94-12.97-13.72V558.2h-16.24v42.31
				c0,18.07,10.1,27.62,29.21,27.62c18.9,0,29.31-9.81,29.31-27.62V558.2h-16.24V600.51z"/>
			<path class="st0" d="M945.6,589.31c5.36-3.11,7.88-7.53,7.88-13.77c0-11.66-7.23-17.34-22.11-17.34h-32.21v68.35h33.14
				c11.23,0,24.35-5.27,24.35-20.14C956.65,598.02,952.75,592.01,945.6,589.31z M915.4,596.8h15.22c6.59,0,9.79,2.87,9.79,8.76
				c0,5.39-3.29,8.02-10.07,8.02H915.4V596.8z M929.5,585.23h-14.1v-14.07h12.97c6.36,0,9.33,2.19,9.33,6.89
				C937.7,583.99,933.24,585.23,929.5,585.23z"/>
		</g>
	</g>
	<path class="st1" d="M444.27,559.89v-3.66c0-7.8-6.32-14.12-14.12-14.12h-4.72c-7.8,0-14.12,6.32-14.12,14.12v59.42
		c0,7.85,0.06,15.71,0,23.57c0,0,0,0,0,0.01c-0.12,19.71-16.14,35.66-35.88,35.66c-19.14,0-34.79-14.99-35.83-33.88
		c-0.01-0.04-0.07-1.94-0.08-2.27c-0.09-27.5,0-55,0-82.5c0-7.8-6.32-14.12-14.12-14.12h-4.72c-7.8,0-14.12,6.32-14.12,14.12v63.08
		c0,10.8-0.52,21.67,1.21,32.37c5.22,32.13,34.84,55.65,66.76,56.38c0.3,0.02,0.59,0.03,0.89,0.03c37.62,0,68.54-31.49,68.87-68.87
		C444.5,612.78,444.27,586.33,444.27,559.89z"/>
	<g id="Keola">
	</g>
	<g id="Intech">
	</g>
</g>
</svg>
