<svg width="48" height="48" viewBox="0 0 48 48" fill="none" xmlns="http://www.w3.org/2000/svg">
<rect width="48" height="48" rx="8" fill="#DDECF0"/>
<path d="M24.8799 11.3569L24.8399 11.4502L20.9733 20.4235H17.1733C16.2666 20.4235 15.3999 20.6102 14.6133 20.9435L16.9466 15.3702L16.9999 15.2369L17.0933 15.0235C17.1199 14.9435 17.1466 14.8635 17.1866 14.7969C18.9333 10.7569 20.9066 9.83686 24.8799 11.3569Z" stroke="#19809E" stroke-width="2" stroke-linecap="round" stroke-linejoin="round"/>
<path d="M32.066 20.6908C31.466 20.5041 30.826 20.4241 30.186 20.4241H20.9727L24.8393 11.4508L24.8793 11.3574C25.0793 11.4241 25.266 11.5174 25.466 11.5974L28.4127 12.8374C30.0527 13.5174 31.1993 14.2241 31.8927 15.0774C32.026 15.2374 32.1327 15.3841 32.226 15.5574C32.346 15.7441 32.4393 15.9308 32.4927 16.1308C32.546 16.2508 32.586 16.3708 32.6127 16.4774C32.9727 17.5974 32.7593 18.9708 32.066 20.6908Z" stroke="#19809E" stroke-width="2" stroke-linecap="round" stroke-linejoin="round"/>
<path d="M36.6969 26.9305V29.5305C36.6969 29.7972 36.6836 30.0638 36.6703 30.3305C36.4169 34.9838 33.8169 37.3305 28.8836 37.3305H18.4836C18.1636 37.3305 17.8436 37.3038 17.5369 37.2638C13.2969 36.9838 11.0303 34.7172 10.7503 30.4772C10.7103 30.1705 10.6836 29.8505 10.6836 29.5305V26.9305C10.6836 24.2505 12.3103 21.9438 14.6303 20.9438C15.4303 20.6105 16.2836 20.4238 17.1903 20.4238H30.2036C30.8569 20.4238 31.4969 20.5172 32.0836 20.6905C34.7369 21.5038 36.6969 23.9838 36.6969 26.9305Z" stroke="#19809E" stroke-width="2" stroke-linecap="round" stroke-linejoin="round"/>
<path d="M16.948 15.3711L14.6146 20.9444C12.2946 21.9444 10.668 24.2511 10.668 26.9311V23.0244C10.668 19.2378 13.3613 16.0778 16.948 15.3711Z" stroke="#19809E" stroke-width="2" stroke-linecap="round" stroke-linejoin="round"/>
<path d="M36.6915 23.0242V26.9309C36.6915 23.9975 34.7448 21.5042 32.0781 20.7042C32.7715 18.9709 32.9715 17.6109 32.6381 16.4775C32.6115 16.3575 32.5715 16.2375 32.5181 16.1309C34.9981 17.4109 36.6915 20.0375 36.6915 23.0242Z" stroke="#19809E" stroke-width="2" stroke-linecap="round" stroke-linejoin="round"/>
</svg>
