<svg width="32" height="32" viewBox="0 0 32 32" fill="none" xmlns="http://www.w3.org/2000/svg">
<path d="M28.1927 17.5234V22.0949C28.1927 24.0758 23.4171 26.6663 17.526 26.6663C11.635 26.6663 6.85938 24.0758 6.85938 22.0949V18.2853" stroke="#5F7081" stroke-width="1.8" stroke-linecap="round" stroke-linejoin="round"/>
<path d="M7.30469 18.6811C8.62278 20.4305 12.699 22.0716 17.5234 22.0716C23.4144 22.0716 28.19 19.6244 28.19 17.5215C28.19 16.3406 26.686 15.0469 24.3256 14.1387" stroke="#5F7081" stroke-width="1.8" stroke-linecap="round" stroke-linejoin="round"/>
<path d="M23.6185 9.90625V14.4777C23.6185 16.4586 18.8429 19.0491 12.9518 19.0491C7.06078 19.0491 2.28516 16.4586 2.28516 14.4777V9.90625" stroke="#5F7081" stroke-width="1.8" stroke-linecap="round" stroke-linejoin="round"/>
<path fill-rule="evenodd" clip-rule="evenodd" d="M12.9518 14.4525C18.8429 14.4525 23.6185 12.0052 23.6185 9.90236C23.6185 7.79798 18.8429 5.33398 12.9518 5.33398C7.06078 5.33398 2.28516 7.79798 2.28516 9.90236C2.28516 12.0052 7.06078 14.4525 12.9518 14.4525Z" stroke="#5F7081" stroke-width="1.8" stroke-linecap="round" stroke-linejoin="round"/>
</svg>
