<svg width="48" height="48" viewBox="0 0 48 48" fill="none" xmlns="http://www.w3.org/2000/svg">
<rect width="48" height="48" rx="8" fill="#DDECF0"/>
<path d="M17.5244 11.8447C18.3275 11.3776 19.3143 11.3877 20.1035 11.8594L20.2588 11.96L29.0098 18.0889L29.2715 18.2725L29.5479 18.1113L33.0596 16.0684C34.5359 15.2095 36.4096 15.6779 37.3232 17.1006L37.4092 17.2412C38.258 18.7229 37.7976 20.6062 36.3848 21.5273L36.2451 21.6133L23.0635 29.2822C22.5857 29.5602 22.0712 29.7692 21.5361 29.9023L21.3057 29.9541L15.7441 31.1016C14.4843 31.3614 13.204 30.8316 12.4854 29.7812L12.3486 29.5635L10.4561 26.2607C9.89994 25.2895 10.1742 24.0638 11.0605 23.4199L11.2451 23.2988H11.2461C11.9103 22.9126 12.7243 22.9117 13.3857 23.2871L13.5156 23.3672L16.5215 25.3672L16.7812 25.5391L17.0498 25.3828L20.5889 23.3242L21.0176 23.0742L20.7705 22.6436L16.5908 15.3486C15.9326 14.1997 16.2566 12.7489 17.3047 11.9873L17.5244 11.8447ZM19.6846 12.7793C19.2226 12.4558 18.6266 12.4116 18.126 12.6562L18.0273 12.709C17.3324 13.1133 17.0619 13.9815 17.3857 14.708L17.459 14.8516L22.3789 23.4385L16.7441 26.7168L12.9619 24.2002C12.6423 23.9876 12.2432 23.9501 11.8945 24.0918L11.748 24.1631C11.2298 24.4649 11.0271 25.1137 11.2695 25.6572L11.3242 25.7637L13.2168 29.0664C13.658 29.8365 14.5092 30.257 15.3701 30.1504L15.542 30.1221L21.1045 28.9746C21.5522 28.8823 21.9846 28.7273 22.3887 28.5137L22.5605 28.418L35.7422 20.749C36.72 20.1799 37.0985 18.9597 36.6436 17.9395L36.541 17.7383C35.9749 16.7505 34.7672 16.3741 33.7607 16.8301L33.5625 16.9326L29.2217 19.458L19.6846 12.7793Z" fill="#5F7081" stroke="#19809E"/>
<path d="M37.835 35.5V36.5H10.168V35.5H37.835Z" fill="#5F7081" stroke="#19809E"/>
</svg>
