<svg width="58" height="58" viewBox="0 0 58 58" fill="none" xmlns="http://www.w3.org/2000/svg">
<path d="M52.6931 7.37188C52.6525 7.04708 52.6061 6.72808 52.5481 6.40328C52.4669 5.91028 52.0841 5.52748 51.5969 5.44628C51.2721 5.39408 50.9473 5.34768 50.6225 5.30708C44.6891 4.56468 38.7267 6.25248 33.9069 9.76727C32.5727 9.17169 31.1282 8.86341 29.6671 8.86247C26.8831 8.86247 24.2615 9.95287 22.2895 11.9249L17.3653 16.8433C16.7134 17.4968 16.3473 18.3823 16.3473 19.3054C16.3473 20.2285 16.7134 21.1139 17.3653 21.7675L21.5471 25.9493L21.1353 26.5989C20.7522 27.1932 20.5612 27.891 20.5881 28.5975C20.6151 29.3041 20.8588 29.9853 21.2861 30.5487C20.3447 30.7268 19.4751 31.1738 18.7824 31.8357C18.0897 32.4975 17.6035 33.3458 17.3827 34.2781L15.8283 40.7741C15.7355 41.1627 15.8515 41.5745 16.1357 41.8645C16.3561 42.0849 16.6519 42.2009 16.9535 42.2009C17.0463 42.2009 17.1333 42.1893 17.2261 42.1719L23.7221 40.6117C25.6709 40.1477 27.0919 38.6049 27.4457 36.6967C28.0547 37.1549 28.7913 37.4043 29.5337 37.4043C30.1775 37.4043 30.8271 37.2245 31.3955 36.8591L32.0451 36.4473L36.2327 40.6291V40.6349C36.9113 41.3077 37.7987 41.6499 38.6919 41.6499C39.5851 41.6499 40.4725 41.3077 41.1511 40.6291L46.0753 35.7107C49.2073 32.5729 49.9207 27.9271 48.2213 24.0991C51.7419 19.2735 53.4297 13.3111 52.6931 7.37188ZM19.0067 20.1261C18.5543 19.6737 18.5543 18.9371 19.0067 18.4847L23.9251 13.5663C25.4621 12.0293 27.4979 11.1825 29.6671 11.1825C30.4037 11.1825 31.1171 11.2869 31.8073 11.4783C30.2123 12.9283 28.7855 14.6045 27.5849 16.4837L22.8289 23.9483L19.0067 20.1261ZM23.1827 38.3555L18.5253 39.4749L19.6389 34.8175C19.9289 33.6111 20.9961 32.7817 22.2431 32.7817H22.3069C23.8787 32.8165 25.1837 34.1215 25.2185 35.6875C25.2475 36.9635 24.4065 38.0655 23.1827 38.3555ZM30.1485 34.9045C29.6961 35.1945 29.0871 35.1307 28.7043 34.7479L23.2523 29.2901C22.8637 28.9015 22.7941 28.3099 23.0899 27.8459L29.5395 17.7307C33.6343 11.3101 40.6233 7.45308 47.8501 7.45308C48.6795 7.45308 49.5089 7.50528 50.3383 7.60967C50.3499 7.60967 50.3673 7.60968 50.3847 7.61547C50.3847 7.62707 50.3847 7.64447 50.3905 7.66188C51.3939 15.7355 47.4209 23.8961 40.2695 28.4549L30.1485 34.9045ZM44.4339 34.0693L39.5097 38.9935C39.0631 39.4459 38.3265 39.4459 37.8741 38.9935L34.0519 35.1713L41.5165 30.4095C43.3634 29.2329 45.0448 27.8148 46.5161 26.1929C47.2527 28.9131 46.5625 31.9407 44.4339 34.0693Z" fill="white"/>
<path d="M44.0214 19.7142C44.7869 18.9486 45.2103 17.9278 45.2103 16.8432C45.2103 15.7586 44.7869 14.7378 44.0214 13.9722C43.2557 13.2066 42.2349 12.7832 41.1503 12.7832C40.0657 12.7832 39.0449 13.2066 38.2793 13.9722C37.5137 14.7378 37.0903 15.7586 37.0903 16.8432C37.0903 17.9278 37.5137 18.9486 38.2793 19.7142C39.0449 20.4798 40.0657 20.9032 41.1503 20.9032C42.2349 20.9032 43.2557 20.4798 44.0214 19.7142ZM39.4103 16.8432C39.4103 16.3792 39.5901 15.9442 39.9207 15.6136C40.2513 15.283 40.6863 15.1032 41.1503 15.1032C41.6143 15.1032 42.0551 15.283 42.3799 15.6136C42.7105 15.9442 42.8903 16.3792 42.8903 16.8432C42.8903 17.3072 42.7105 17.748 42.3799 18.0728C42.0551 18.4034 41.6027 18.5716 41.1503 18.5716C40.6979 18.5716 40.2455 18.4034 39.9207 18.0728C39.5901 17.748 39.4103 17.3072 39.4103 16.8432ZM13.6757 44.3236C13.2233 43.8712 12.4867 43.8712 12.0343 44.3236L7.11015 49.242C6.94804 49.4043 6.83761 49.611 6.79275 49.836C6.74788 50.061 6.77061 50.2942 6.85805 50.5063C6.94549 50.7184 7.09375 50.8999 7.28414 51.0279C7.47453 51.1559 7.69853 51.2247 7.92795 51.2256C8.22375 51.2256 8.51955 51.1096 8.74575 50.8834L13.6699 45.965C14.1281 45.5126 14.1281 44.776 13.6757 44.3236ZM18.5999 45.965L13.6757 50.8892C13.5136 51.0515 13.4032 51.2582 13.3583 51.4832C13.3135 51.7082 13.3362 51.9414 13.4237 52.1535C13.5111 52.3656 13.6593 52.5471 13.8497 52.6751C14.0401 52.8031 14.2641 52.8719 14.4935 52.8728C14.7893 52.8728 15.0851 52.7568 15.3113 52.5306L20.2355 47.6064C20.6879 47.154 20.6879 46.4174 20.2355 45.965C19.7831 45.5126 19.0523 45.5126 18.5999 45.965ZM12.0343 39.3994C12.4867 38.947 12.4867 38.2104 12.0343 37.758C11.5819 37.3056 10.8453 37.3056 10.3929 37.758L5.46875 42.6822C5.30664 42.8445 5.19621 43.0512 5.15135 43.2762C5.10648 43.5012 5.12921 43.7344 5.21665 43.9465C5.30409 44.1586 5.45235 44.3401 5.64274 44.4681C5.83313 44.5961 6.05713 44.6649 6.28655 44.6658C6.58235 44.6658 6.87815 44.5498 7.10435 44.3236L12.0343 39.3994Z" fill="white"/>
</svg>
