<svg width="54" height="54" viewBox="0 0 54 54" fill="none" xmlns="http://www.w3.org/2000/svg">
<g opacity="0.5">
<path d="M24.1891 37.9355V42.5031C24.1891 46.3731 20.5891 49.5006 16.1566 49.5006C11.7241 49.5006 8.10156 46.3731 8.10156 42.5031V37.9355C8.10156 41.8055 11.7016 44.5506 16.1566 44.5506C20.5891 44.5506 24.1891 41.783 24.1891 37.9355Z" stroke="white" stroke-width="2.5" stroke-linecap="round" stroke-linejoin="round"/>
<path d="M24.1881 31.7484C24.1881 32.8734 23.8731 33.9083 23.3331 34.8083C22.0056 36.9908 19.283 38.3634 16.133 38.3634C12.983 38.3634 10.2605 36.9683 8.933 34.8083C8.393 33.9083 8.07812 32.8734 8.07812 31.7484C8.07812 29.8134 8.97808 28.0809 10.4181 26.8209C11.8806 25.5384 13.883 24.7734 16.1105 24.7734C18.338 24.7734 20.3406 25.5609 21.8031 26.8209C23.2881 28.0584 24.1881 29.8134 24.1881 31.7484Z" stroke="white" stroke-width="2.5" stroke-linecap="round" stroke-linejoin="round"/>
<path d="M24.1891 31.7475V37.935C24.1891 41.805 20.5891 44.55 16.1566 44.55C11.7241 44.55 8.10156 41.7825 8.10156 37.935V31.7475C8.10156 27.8775 11.7016 24.75 16.1566 24.75C18.3841 24.75 20.3867 25.5374 21.8492 26.7974C23.2892 28.0574 24.1891 29.8125 24.1891 31.7475Z" stroke="white" stroke-width="2.5" stroke-linecap="round" stroke-linejoin="round"/>
<path d="M49.5015 24.6816V29.3168C49.5015 30.5543 48.5115 31.5667 47.2515 31.6117H42.8414C40.4114 31.6117 38.184 29.8342 37.9815 27.4042C37.8465 25.9867 38.3864 24.6592 39.3314 23.7367C40.1639 22.8817 41.3114 22.3867 42.5714 22.3867H47.2515C48.5115 22.4317 49.5015 23.4441 49.5015 24.6816Z" stroke="white" stroke-width="2.5" stroke-linecap="round" stroke-linejoin="round"/>
<path d="M4.5 23.625V19.125C4.5 13.005 8.19001 8.72999 13.9275 8.00999C14.5125 7.91999 15.12 7.875 15.75 7.875H36C36.585 7.875 37.1475 7.89747 37.6875 7.98747C43.4925 8.66247 47.25 12.96 47.25 19.125V22.3875H42.57C41.31 22.3875 40.1625 22.8825 39.33 23.7375C38.385 24.66 37.845 25.9875 37.98 27.405C38.1825 29.835 40.41 31.6125 42.84 31.6125H47.25V34.875C47.25 41.625 42.75 46.125 36 46.125H30.375" stroke="white" stroke-width="2.5" stroke-linecap="round" stroke-linejoin="round"/>
</g>
</svg>
