<svg width="76" height="76" viewBox="0 0 76 76" fill="none" xmlns="http://www.w3.org/2000/svg">
<g clip-path="url(#clip0_4609_35051)">
<path d="M18.4216 48.0344L72.127 39.3184L66.21 2.8598L12.5046 11.5758L18.4216 48.0344Z" fill="white"/>
<path d="M72.208 39.189L66.291 2.73047L12.5857 11.4465L18.5027 47.9051L72.208 39.189Z" fill="white"/>
<path d="M18.4277 50.1116C17.9853 50.1116 17.5431 49.8904 17.1007 49.6692C16.6583 49.2268 16.2161 48.7846 16.2161 48.121L10.4657 12.0714C10.2446 10.7444 10.9081 9.63861 12.2351 9.41743L65.7569 0.791933C67.0839 0.570747 68.1897 1.45549 68.1897 2.56127L74.1611 39.0533C74.1611 39.7169 74.1611 40.1591 73.7187 40.6015C73.2763 41.0438 72.8341 41.4861 72.1706 41.4861L18.8701 50.1116C18.6489 50.1116 18.6489 50.1116 18.4277 50.1116ZM15.1102 13.3983L20.197 45.4671L69.5166 37.5052L64.43 5.43638L15.1102 13.3983Z" fill="#19809E"/>
<path d="M23.7371 35.2911L21.5254 21.8001C23.9581 21.3577 25.5063 19.1462 25.2852 16.7133L56.0271 11.8477C56.4694 14.2804 58.681 15.8285 61.1139 15.6075L63.3256 29.0985C60.8929 29.5409 59.3447 31.7524 59.5657 34.1853L28.8239 39.051C28.3815 36.6181 26.1698 35.0699 23.7371 35.2911Z" fill="white"/>
<path d="M28.8211 41.2652C28.3787 41.2652 27.9365 41.044 27.4941 40.8228C27.0518 40.3804 26.6095 39.9382 26.6095 39.2747C26.3884 38.1689 25.2826 37.2841 24.1768 37.5053C23.5132 37.5053 23.071 37.5053 22.6287 37.063C22.1863 36.6206 21.7441 36.1784 21.7441 35.5148L19.5324 22.0238C19.09 21.1392 19.9747 20.0333 21.0805 19.8121C22.1863 19.5909 23.071 18.4852 22.8498 17.3794C22.6287 16.2736 23.5134 14.9466 24.6192 14.9466L55.361 10.081C56.4668 9.85981 57.7937 10.7446 57.7937 11.8503C58.0149 12.9561 59.1207 13.8409 60.2265 13.6197C61.5534 13.3985 62.6592 14.2832 62.6592 15.389L64.8709 28.88C64.8709 29.5435 64.8709 29.9858 64.4286 30.4281C63.9862 30.8705 63.544 31.3127 62.8804 31.3127C62.2169 31.3127 61.7746 31.7551 61.3323 32.1973C60.8899 32.6397 60.8899 33.3031 60.8899 33.7455C61.1111 34.8512 60.2263 36.1782 59.1205 36.1782L28.3787 41.0438C29.0421 41.2652 28.8211 41.2652 28.8211 41.2652ZM25.5036 33.3032C27.4941 33.7456 29.2635 34.8514 30.1481 36.6207L57.1302 32.1975C57.3514 31.3129 57.7937 30.2069 58.236 29.5435C58.8995 28.659 59.5629 27.9954 60.4477 27.553L58.8995 17.8217C56.909 17.3794 55.1397 16.2736 54.2551 14.5043L27.273 18.9275C26.8306 20.918 25.7248 22.6874 23.9555 23.572L25.5036 33.3032Z" fill="#19809E"/>
<path d="M44.9632 32.4172L44.742 31.0903C43.1939 31.0903 41.6457 30.8691 40.0976 29.9845L41.2034 28.2151C42.3091 28.8787 43.4151 29.3209 44.5208 29.3209L44.0785 26.0034C42.7515 26.0034 41.6457 25.5611 40.9822 25.3399C40.3186 24.8975 39.8764 24.2341 39.6552 23.1282C39.434 22.0222 39.6552 21.3588 40.3188 20.4742C40.9823 19.8107 41.8669 19.1473 42.9727 18.9261L42.7515 18.0415L43.8573 17.8203L44.0785 18.7049C45.4054 18.4837 46.7324 18.9261 47.8383 19.3685L46.7326 21.1378C45.848 20.6954 44.9632 20.4742 44.0786 20.4742L44.521 23.7917C45.848 23.7917 46.9537 24.2341 47.6173 24.6763C48.2809 25.1187 48.7231 25.7821 48.9443 26.888C49.1654 27.994 48.9443 28.8785 48.2807 29.542C47.6171 30.2055 46.7326 30.8689 45.6268 31.0901L45.848 32.4171L44.9632 32.4172ZM41.8669 21.3591C41.6457 21.5803 41.4245 22.0227 41.6457 22.4649C41.6457 22.9073 41.8669 23.1285 42.0881 23.3495C42.3093 23.5707 42.7517 23.7919 43.4151 23.7919L42.9727 20.6956C42.5305 20.9168 42.0881 21.138 41.8669 21.3591ZM46.7326 28.4363C46.9537 28.2151 47.1749 27.7728 46.9537 27.3306C46.9537 26.8882 46.7326 26.667 46.5114 26.446C46.2902 26.2248 45.6268 26.0036 44.9632 26.0036L45.4056 29.0999C46.069 28.8787 46.5114 28.6575 46.7326 28.4363Z" fill="#19809E"/>
<path d="M38.7728 37.9453V50.5517C38.7728 55.8597 30.5897 60.0618 20.6374 60.0618C10.6851 60.0618 2.50195 55.8596 2.50195 50.5517V37.9453" fill="#FFCA19"/>
<path d="M20.6382 62.2733C9.13754 62.2733 0.291016 57.1865 0.291016 50.5517V37.9453H4.71428V50.5517C4.71428 53.8692 11.3493 57.8501 20.6382 57.8501C29.9271 57.8501 36.562 54.0902 36.562 50.5517V37.9453H40.9853V50.5517C40.9853 57.1865 32.3598 62.2733 20.6382 62.2733Z" fill="black"/>
<path d="M38.7728 25.5625V38.1689C38.7728 43.4769 30.5897 47.679 20.6374 47.679C10.6851 47.679 2.50195 43.4767 2.50195 38.1689V25.5625" fill="#FFCA19"/>
<path d="M20.6382 49.6674C9.13754 49.6674 0.291016 44.5807 0.291016 37.9457V25.5605H4.71428V38.1669C4.71428 41.4844 11.3493 45.4653 20.6382 45.4653C29.9271 45.4653 36.562 41.7055 36.562 38.1669V25.5605H40.9853V38.1669C40.9853 44.8018 32.3598 49.6674 20.6382 49.6674Z" fill="black"/>
<path d="M38.7728 50.332V63.1596C38.7728 68.4676 30.5897 72.6697 20.6374 72.6697C10.6851 72.6697 2.50195 68.2463 2.50195 63.1596V50.5532" fill="white"/>
<path d="M20.6382 74.6601C9.13754 74.6601 0.291016 69.5732 0.291016 62.9384V50.332H4.71428V63.1596C4.71428 66.4771 11.3493 70.458 20.6382 70.458C29.9271 70.458 36.562 66.6981 36.562 63.1596V50.5532H40.9853V63.1596C40.9853 69.7944 32.3598 74.6601 20.6382 74.6601Z" fill="#19809E"/>
<path d="M38.7728 37.9473V50.5537C38.7728 55.8617 30.5897 60.0637 20.6374 60.0637C10.6851 60.0637 2.50195 55.8615 2.50195 50.5537V37.9473" fill="white"/>
<path d="M20.6382 62.2753C9.13754 62.2753 0.291016 57.1885 0.291016 50.5537V37.9473H4.71428V50.5537C4.71428 53.8711 11.3493 57.852 20.6382 57.852C29.9271 57.852 36.562 54.0922 36.562 50.5537V37.9473H40.9853V50.5537C40.9853 57.1885 32.3598 62.2753 20.6382 62.2753Z" fill="#19809E"/>
<path d="M38.7728 25.5625V38.1689C38.7728 43.4769 30.5897 47.679 20.6374 47.679C10.6851 47.679 2.50195 43.4767 2.50195 38.1689V25.5625" fill="white"/>
<path d="M20.6382 49.6693C9.13754 49.6693 0.291016 44.5827 0.291016 37.9477V25.5625H4.71428V38.1689C4.71428 41.4864 11.3493 45.4673 20.6382 45.4673C29.9271 45.4673 36.562 41.7074 36.562 38.1689V25.5625H40.9853V38.1689C40.9853 44.8037 32.3598 49.6693 20.6382 49.6693Z" fill="#19809E"/>
<path d="M20.6374 35.071C30.6533 35.071 38.7728 30.8131 38.7728 25.5609C38.7728 20.3086 30.6533 16.0508 20.6374 16.0508C10.6215 16.0508 2.50195 20.3086 2.50195 25.5609C2.50195 30.8131 10.6215 35.071 20.6374 35.071Z" fill="#FFCA19"/>
<path d="M20.6382 37.0624C9.13754 37.0624 0.291016 31.9758 0.291016 25.3408C0.291016 18.7058 9.13754 13.6191 20.6382 13.6191C32.1388 13.6191 40.9853 18.9271 40.9853 25.562C40.9853 32.1968 32.1386 37.0624 20.6382 37.0624ZM20.6382 18.2636C11.3493 18.2636 4.71428 22.0234 4.71428 25.562C4.71428 29.1005 11.3493 32.8604 20.6382 32.8604C29.9271 32.8604 36.562 29.1005 36.562 25.562C36.562 22.0234 30.1482 18.2636 20.6382 18.2636Z" fill="black"/>
<path d="M38.7728 12.957V25.5634C38.7728 30.8714 30.5897 35.0735 20.6374 35.0735C10.6851 35.0735 2.50195 30.8713 2.50195 25.5634V12.957" fill="white"/>
<path d="M20.6382 37.2851C9.13754 37.2851 0.291016 32.1984 0.291016 25.5634V12.957H4.71428V25.5634C4.71428 28.8809 11.3493 32.8618 20.6382 32.8618C29.9271 32.8618 36.562 29.1019 36.562 25.5634V12.957H40.9853V25.5634C40.9853 32.1984 32.3598 37.2851 20.6382 37.2851Z" fill="#19809E"/>
<path d="M51.5979 72.0064C63.5682 72.0064 73.272 62.3026 73.272 50.3323C73.272 38.362 63.5682 28.6582 51.5979 28.6582C39.6277 28.6582 29.9238 38.362 29.9238 50.3323C29.9238 62.3026 39.6277 72.0064 51.5979 72.0064Z" fill="white"/>
<path d="M51.5979 72.0064C63.5682 72.0064 73.272 62.3026 73.272 50.3323C73.272 38.362 63.5682 28.6582 51.5979 28.6582C39.6277 28.6582 29.9238 38.362 29.9238 50.3323C29.9238 62.3026 39.6277 72.0064 51.5979 72.0064Z" fill="white"/>
<path d="M70.621 40.1569C67.7459 39.0511 64.6496 38.3875 61.3321 38.3875C47.62 38.3875 36.5617 49.4458 36.5617 63.1579C36.5617 64.0425 36.5617 64.9273 36.7829 65.8119C32.802 61.831 30.3691 56.523 30.3691 50.3304C30.3691 38.3875 40.1004 28.6562 52.0432 28.6562C59.784 28.8776 67.0824 33.522 70.621 40.1569Z" fill="#F6F6F6"/>
<path d="M51.6041 74.2169C38.5553 74.2169 27.9395 63.6011 27.9395 50.3311C27.9395 37.2824 38.5553 26.4453 51.8253 26.4453C65.0952 26.4453 75.7111 37.0612 75.7111 50.3311C75.4897 63.6011 64.8739 74.2169 51.6041 74.2169ZM51.6041 31.0899C40.9882 31.0899 32.1417 39.7153 32.1417 50.5523C32.1417 61.1682 40.767 70.0147 51.6041 70.0147C62.4411 70.0147 71.0665 61.3894 71.0665 50.5523C71.0665 39.7153 62.4411 31.0899 51.6041 31.0899Z" fill="#19809E"/>
<path d="M51.6047 64.0454C59.1778 64.0454 65.3169 57.9063 65.3169 50.3333C65.3169 42.7602 59.1778 36.6211 51.6047 36.6211C44.0317 36.6211 37.8926 42.7602 37.8926 50.3333C37.8926 57.9063 44.0317 64.0454 51.6047 64.0454Z" fill="#F6F6F6"/>
<path d="M58.4609 38.3904C49.3932 39.4962 41.8736 45.4676 38.3349 53.4296C38.1138 52.3238 37.8926 51.439 37.8926 50.3333C37.8926 42.8137 44.0852 36.6211 51.6047 36.6211C54.2588 36.6211 56.4705 37.2845 58.4609 38.3904Z" fill="#EDEDED"/>
<path d="M51.1591 59.1784V57.6303C49.1686 57.4091 47.6204 56.7457 46.0723 55.4186L47.6204 53.6492C48.7262 54.755 50.0532 55.1974 51.1591 55.4186V51.4377C49.6109 50.9953 48.5052 50.5531 47.6204 49.8895C46.9569 49.226 46.5146 48.3414 46.5146 47.2356C46.5146 46.1298 46.957 45.0239 47.8416 44.3605C48.7262 43.6969 49.8321 43.2547 51.1591 43.0335V41.9277H52.4861V43.0335C54.0342 43.2547 55.5824 43.6971 56.9093 44.5817L55.5824 46.5722C54.6978 45.9086 53.5918 45.4664 52.4861 45.2452V49.2261C54.0342 49.6685 55.3612 50.1107 56.0247 50.7743C56.6883 51.4378 57.1305 52.3224 57.1305 53.6494C57.1305 54.9763 56.6881 55.8611 55.8035 56.7457C54.9189 57.4092 53.813 57.8515 52.2649 58.0726V59.6208H51.1591V59.1784ZM49.8321 45.6874C49.3898 45.9086 49.3898 46.351 49.3898 46.7932C49.3898 47.2354 49.6109 47.6778 49.8321 47.899C50.0533 48.1202 50.7167 48.3414 51.3803 48.7836V45.2449C50.4957 45.0239 50.0533 45.2451 49.8321 45.6874ZM54.2554 54.7552C54.6978 54.534 54.9189 54.0916 54.9189 53.4282C54.9189 52.9858 54.6978 52.5436 54.4766 52.3224C54.2554 52.1012 53.592 51.6589 52.7072 51.4378V55.1977C53.1496 55.4187 53.813 55.1975 54.2554 54.7552Z" fill="#19809E"/>
<path d="M20.6374 22.4655C30.6533 22.4655 38.7728 18.2077 38.7728 12.9554C38.7728 7.70312 30.6533 3.44531 20.6374 3.44531C10.6215 3.44531 2.50195 7.70312 2.50195 12.9554C2.50195 18.2077 10.6215 22.4655 20.6374 22.4655Z" fill="white"/>
<path d="M20.6374 22.4655C30.6533 22.4655 38.7728 18.2077 38.7728 12.9554C38.7728 7.70312 30.6533 3.44531 20.6374 3.44531C10.6215 3.44531 2.50195 7.70312 2.50195 12.9554C2.50195 18.2077 10.6215 22.4655 20.6374 22.4655Z" fill="white"/>
<path d="M38.3304 10.9649C35.2341 9.8591 31.4743 8.97436 27.4934 8.97436C17.5409 8.97436 9.35796 13.1764 9.35796 18.4844C9.35796 19.148 9.57915 19.8114 9.80033 20.475C5.37707 18.7056 2.50195 16.0517 2.50195 12.9554C2.50195 7.86858 10.6851 3.44531 20.6374 3.44531C29.2627 3.44531 36.5613 6.7628 38.3304 10.9649Z" fill="#F6F6F6"/>
<path d="M20.6382 24.6777C9.13754 24.6777 0.291016 19.591 0.291016 12.956C0.291016 6.54223 9.13754 1.23438 20.6382 1.23438C32.1388 1.23438 40.9853 6.32105 40.9853 12.956C40.9853 19.591 32.1386 24.6777 20.6382 24.6777ZM20.6382 5.65764C11.3493 5.65764 4.71428 9.63853 4.71428 12.956C4.71428 16.2735 11.3493 20.2544 20.6382 20.2544C29.9271 20.2544 36.562 16.4945 36.562 12.956C36.562 9.63853 30.1482 5.65764 20.6382 5.65764Z" fill="#19809E"/>
<path d="M20.8571 17.8211C26.9644 17.8211 31.9153 15.6427 31.9153 12.9555C31.9153 10.2683 26.9644 8.08984 20.8571 8.08984C14.7498 8.08984 9.79883 10.2683 9.79883 12.9555C9.79883 15.6427 14.7498 17.8211 20.8571 17.8211Z" fill="#F6F6F6"/>
<path d="M27.4919 8.97459C19.9723 8.97459 13.3373 11.4073 10.6834 14.7248C10.241 14.2824 9.79883 13.619 9.79883 12.9555C9.79883 10.3016 14.6645 8.08984 20.8571 8.08984C23.2898 8.08984 25.7227 8.31103 27.4919 8.97459Z" fill="#EDEDED"/>
<path d="M20.415 16.052V15.3884C18.8668 15.3884 17.5399 14.946 16.2129 14.5038L17.5399 13.8403C18.4244 14.5038 19.5304 14.5038 20.415 14.7249V13.1767C19.088 13.1767 18.2033 12.9555 17.761 12.7343C17.0975 12.5132 16.8764 12.292 16.8764 11.8497C16.8764 11.4075 17.3188 11.1862 17.9822 10.744C18.6458 10.5228 19.5304 10.3016 20.6362 10.3016V9.85938H21.7419V10.3017C23.0689 10.3017 24.1747 10.5229 25.2806 10.7441L24.1748 11.4077C23.5113 11.1865 22.6267 10.9653 21.7421 10.9653V12.2923C23.069 12.5135 23.9538 12.5135 24.6172 12.7346C25.2808 12.9558 25.5018 13.177 25.5018 13.6192C25.5018 14.0616 25.0594 14.5038 24.396 14.725C23.7325 14.9462 22.8479 15.1674 21.5209 15.1674V15.6098H20.4151V16.052H20.415ZM19.3092 11.1863C19.088 11.4075 18.8668 11.4075 18.8668 11.6287C18.8668 11.8499 19.088 11.8499 19.3092 12.0711C19.3092 12.0711 19.7516 12.2923 20.415 12.2923V10.9653C19.9726 11.1863 19.5304 11.1863 19.3092 11.1863ZM22.8477 14.5038C23.0689 14.2826 23.2901 14.2826 23.2901 14.0615C23.2901 13.8403 23.0689 13.8403 22.8477 13.6191C22.6265 13.6191 22.1842 13.3979 21.5207 13.3979V14.7249C22.1843 14.725 22.4055 14.5038 22.8477 14.5038Z" fill="#19809E"/>
</g>
<defs>
<clipPath id="clip0_4609_35051">
<rect width="75.417" height="75.417" fill="white" transform="translate(0.291016)"/>
</clipPath>
</defs>
</svg>
