<?xml version="1.0" encoding="UTF-8"?>
<svg xmlns="http://www.w3.org/2000/svg" xmlns:xlink="http://www.w3.org/1999/xlink" width="45px" height="45px" viewBox="0 0 45 45" version="1.1">
<g id="surface1">
<path style=" stroke:none;fill-rule:nonzero;fill:rgb(0%,0%,0%);fill-opacity:1;" d="M 21.183594 5.363281 C 19.046875 5.542969 16.921875 6.144531 14.945312 7.125 C 10.375 9.398438 6.832031 13.859375 5.757812 18.6875 C 5.40625 20.273438 5.296875 21.359375 5.332031 22.945312 C 5.363281 24.203125 5.433594 24.925781 5.628906 25.957031 C 6.175781 28.796875 7.3125 31.257812 9.15625 33.558594 C 9.585938 34.097656 10.8125 35.328125 11.394531 35.796875 C 11.625 35.992188 11.8125 36.160156 11.800781 36.175781 C 11.792969 36.195312 11.804688 36.207031 11.835938 36.207031 C 11.867188 36.207031 12.039062 36.3125 12.21875 36.449219 C 16.984375 39.945312 23.269531 40.820312 28.746094 38.742188 C 29.601562 38.417969 30.914062 37.761719 31.683594 37.273438 C 32.03125 37.058594 32.339844 36.890625 32.359375 36.910156 C 32.386719 36.921875 32.394531 36.914062 32.382812 36.890625 C 32.363281 36.867188 32.53125 36.714844 32.761719 36.554688 C 33.445312 36.066406 34.054688 35.535156 34.902344 34.6875 C 36.214844 33.367188 37.15625 32.0625 37.996094 30.378906 C 38.40625 29.566406 38.972656 28.054688 39.207031 27.144531 C 40.066406 23.855469 39.992188 20.375 39.003906 17.296875 C 37.757812 13.441406 34.960938 9.898438 31.53125 7.839844 C 31.257812 7.679688 31.050781 7.523438 31.0625 7.503906 C 31.078125 7.476562 31.066406 7.472656 31.042969 7.484375 C 30.976562 7.53125 30.851562 7.472656 30.886719 7.414062 C 30.902344 7.390625 30.890625 7.382812 30.863281 7.402344 C 30.835938 7.417969 30.707031 7.375 30.582031 7.304688 C 30.257812 7.121094 29.082031 6.59375 28.527344 6.382812 C 27.289062 5.910156 25.9375 5.582031 24.636719 5.425781 C 23.957031 5.34375 21.855469 5.304688 21.183594 5.363281 M 23.523438 7.011719 C 25.402344 7.09375 27.578125 7.679688 29.367188 8.574219 C 30.152344 8.96875 31.136719 9.578125 31.859375 10.117188 C 32.214844 10.386719 32.257812 10.433594 32.210938 10.496094 C 32.164062 10.5625 32.164062 10.5625 32.230469 10.515625 C 32.289062 10.464844 32.335938 10.488281 32.558594 10.675781 C 33.585938 11.53125 34.730469 12.808594 35.5 13.960938 C 35.75 14.335938 35.789062 14.425781 35.660156 14.324219 C 35.589844 14.269531 35.585938 14.273438 35.644531 14.339844 C 35.675781 14.382812 35.71875 14.410156 35.734375 14.394531 C 35.8125 14.347656 36.632812 15.855469 36.996094 16.703125 C 37.570312 18.03125 37.945312 19.417969 38.136719 20.855469 C 38.242188 21.652344 38.242188 23.367188 38.140625 24.175781 C 37.957031 25.613281 37.6875 26.765625 37.253906 28 C 36.429688 30.339844 35.097656 32.347656 33.289062 34.003906 C 31.296875 35.820312 29.101562 37.027344 26.621094 37.671875 C 23.980469 38.355469 21.144531 38.351562 18.570312 37.664062 C 16.675781 37.15625 14.898438 36.320312 13.363281 35.21875 C 13.132812 35.050781 12.949219 34.890625 12.957031 34.863281 C 12.960938 34.832031 12.949219 34.816406 12.921875 34.835938 C 12.804688 34.910156 11.273438 33.476562 10.539062 32.597656 C 9.828125 31.746094 9.023438 30.558594 9.074219 30.429688 C 9.085938 30.398438 9.074219 30.378906 9.050781 30.386719 C 8.917969 30.414062 8.214844 28.882812 7.847656 27.757812 C 7.300781 26.125 7.050781 24.703125 7.003906 22.988281 C 6.90625 19.523438 7.910156 16.285156 9.96875 13.453125 C 10.515625 12.707031 11.484375 11.605469 11.605469 11.605469 C 11.625 11.605469 11.644531 11.585938 11.640625 11.566406 C 11.621094 11.515625 12.328125 10.867188 12.855469 10.441406 C 13.894531 9.609375 15.339844 8.6875 15.476562 8.773438 C 15.511719 8.792969 15.515625 8.785156 15.5 8.757812 C 15.433594 8.652344 16.816406 8.042969 17.957031 7.679688 C 18.765625 7.417969 19.660156 7.21875 20.503906 7.097656 C 21.050781 7.019531 22.34375 6.949219 22.769531 6.976562 C 22.902344 6.980469 23.242188 6.996094 23.523438 7.011719 "/>
<path style=" stroke:none;fill-rule:nonzero;fill:rgb(0%,0%,0%);fill-opacity:1;" d="M 27.992188 14.335938 C 27.929688 14.371094 25.992188 16.671875 24.792969 18.136719 C 24.480469 18.519531 23.554688 19.621094 22.796875 20.527344 C 22.601562 20.757812 21.925781 21.574219 21.285156 22.34375 C 20.609375 23.152344 20.105469 23.722656 20.078125 23.710938 C 20.046875 23.691406 20.042969 23.699219 20.0625 23.730469 C 20.09375 23.78125 19.847656 24.082031 17.714844 26.632812 C 16.914062 27.585938 16.617188 27.941406 16.066406 28.589844 C 15.824219 28.875 15.542969 29.21875 15.441406 29.347656 C 15.132812 29.742188 15.191406 29.972656 15.65625 30.25 C 15.820312 30.347656 15.945312 30.445312 15.933594 30.460938 C 15.921875 30.484375 15.933594 30.515625 15.960938 30.53125 C 15.996094 30.550781 16 30.546875 15.980469 30.515625 C 15.9375 30.441406 15.976562 30.449219 16.175781 30.550781 C 16.273438 30.597656 16.394531 30.636719 16.453125 30.636719 C 16.730469 30.636719 16.832031 30.550781 17.542969 29.695312 C 18.636719 28.394531 22.355469 23.941406 22.722656 23.503906 C 22.96875 23.203125 23.054688 23.125 23.085938 23.171875 C 23.117188 23.21875 23.121094 23.214844 23.101562 23.152344 C 23.085938 23.09375 23.515625 22.546875 24.714844 21.101562 C 25.613281 20.015625 26.566406 18.871094 26.828125 18.554688 C 27.089844 18.238281 27.320312 17.988281 27.339844 18 C 27.359375 18.011719 27.371094 17.996094 27.367188 17.960938 C 27.367188 17.929688 27.804688 17.363281 28.351562 16.707031 C 28.898438 16.046875 29.382812 15.433594 29.4375 15.335938 C 29.609375 15.015625 29.484375 14.855469 28.777344 14.488281 C 28.386719 14.28125 28.152344 14.238281 27.992188 14.335938 M 17.414062 14.566406 C 16.320312 14.777344 15.347656 15.699219 15.039062 16.835938 C 14.933594 17.203125 14.914062 17.875 14.988281 18.292969 C 15.078125 18.773438 15.359375 19.324219 15.742188 19.785156 C 15.832031 19.894531 15.894531 20.003906 15.875 20.023438 C 15.859375 20.042969 15.867188 20.042969 15.898438 20.03125 C 15.925781 20.011719 16.089844 20.097656 16.265625 20.214844 C 17.59375 21.132812 19.398438 20.933594 20.488281 19.746094 C 21.261719 18.902344 21.507812 17.691406 21.125 16.570312 C 20.835938 15.722656 20.027344 14.957031 19.078125 14.636719 C 18.710938 14.515625 17.886719 14.480469 17.414062 14.566406 M 18.738281 16.324219 C 19.09375 16.496094 19.363281 16.8125 19.476562 17.195312 C 19.648438 17.753906 19.503906 18.265625 19.0625 18.667969 C 18.6875 19.011719 18.230469 19.132812 17.765625 19.015625 C 17.296875 18.898438 16.957031 18.625 16.757812 18.199219 C 16.601562 17.875 16.59375 17.359375 16.734375 17.046875 C 16.84375 16.808594 17.148438 16.460938 17.335938 16.363281 C 17.769531 16.136719 18.324219 16.125 18.738281 16.324219 M 26.027344 24.089844 C 25.449219 24.242188 25.078125 24.460938 24.632812 24.902344 C 24.289062 25.242188 24.203125 25.359375 24.03125 25.714844 C 23.691406 26.417969 23.613281 27.066406 23.777344 27.855469 C 23.921875 28.546875 24.222656 29.074219 24.769531 29.574219 C 25.300781 30.058594 25.953125 30.320312 26.726562 30.359375 C 27.441406 30.398438 28.035156 30.238281 28.625 29.851562 C 29.796875 29.074219 30.351562 27.644531 30.003906 26.308594 C 29.820312 25.617188 29.328125 24.933594 28.722656 24.53125 C 28.535156 24.414062 28.417969 24.308594 28.449219 24.292969 C 28.480469 24.285156 28.457031 24.273438 28.394531 24.273438 C 28.335938 24.273438 28.136719 24.214844 27.957031 24.148438 C 27.664062 24.042969 27.550781 24.03125 26.988281 24.015625 C 26.457031 24.003906 26.300781 24.011719 26.027344 24.089844 M 27.414062 25.765625 C 28.148438 26.039062 28.558594 26.914062 28.308594 27.664062 C 27.96875 28.691406 26.664062 29.019531 25.917969 28.277344 C 25.496094 27.851562 25.339844 27.226562 25.515625 26.660156 C 25.625 26.320312 26.027344 25.886719 26.34375 25.761719 C 26.660156 25.640625 27.085938 25.644531 27.414062 25.765625 "/>
</g>
</svg>
