<svg width="40" height="40" viewBox="0 0 40 40" fill="none" xmlns="http://www.w3.org/2000/svg">
<path d="M18.1719 33.1187H28.9552C35.1219 33.1187 36.6552 31.5854 36.6552 25.4187C34.5219 25.4187 32.8052 23.6854 32.8052 21.5687C32.8052 19.4354 34.5219 17.7021 36.6552 17.7021V16.1687C36.6552 10.0021 35.1219 8.46875 28.9552 8.46875H18.3219V19.7854" stroke="#5F7081" stroke-width="2.5" stroke-linecap="round" stroke-linejoin="round"/>
<path d="M18.3252 28.118V33.118H13.7085C11.2419 33.118 9.79188 31.4346 8.19188 27.568L7.89188 26.818C9.90855 26.018 10.8919 23.6846 10.0419 21.668C9.22521 19.6513 6.90855 18.6846 4.87521 19.518L4.59188 18.8013C2.19188 12.9346 3.02521 10.8846 8.89188 8.46797L13.2919 6.66797L18.3252 18.868V23.118" stroke="#5F7081" stroke-width="2.5" stroke-linecap="round" stroke-linejoin="round"/>
<path d="M13.6036 33.1172H13.3203" stroke="#5F7081" stroke-width="2.5" stroke-linecap="round" stroke-linejoin="round"/>
</svg>