<svg width="41" height="40" viewBox="0 0 41 40" fill="none" xmlns="http://www.w3.org/2000/svg">
<path d="M28.999 6.66797H12.3323C5.94896 6.66797 4.16563 8.2013 4.01562 14.168C7.23229 14.168 9.83229 16.7846 9.83229 20.0013C9.83229 23.218 7.23229 25.818 4.01562 25.8346C4.16563 31.8013 5.94896 33.3346 12.3323 33.3346H28.999C35.6656 33.3346 37.3323 31.668 37.3323 25.0013V15.0013C37.3323 8.33464 35.6656 6.66797 28.999 6.66797Z" stroke="#5F7081" stroke-width="2.5" stroke-linecap="round" stroke-linejoin="round"/>
<path d="M15.6641 6.66797V12.5013" stroke="#5F7081" stroke-width="2.5" stroke-linecap="round" stroke-linejoin="round"/>
<path d="M15.6641 27.5V33.3333" stroke="#5F7081" stroke-width="2.5" stroke-linecap="round" stroke-linejoin="round"/>
<path d="M25.7158 15.5516L26.7492 17.6349C26.8492 17.8349 27.0492 17.9849 27.2658 18.0182L29.5658 18.3516C30.1325 18.4349 30.3658 19.1349 29.9492 19.5349L28.2825 21.1516C28.1158 21.3016 28.0492 21.5349 28.0825 21.7682L28.4825 24.0516C28.5825 24.6182 27.9825 25.0516 27.4825 24.7849L25.4325 23.7016C25.2325 23.6016 24.9825 23.6016 24.7825 23.7016L22.7325 24.7849C22.2158 25.0516 21.6325 24.6182 21.7325 24.0516L22.1325 21.7682C22.1658 21.5349 22.0992 21.3182 21.9325 21.1516L20.2825 19.5349C19.8658 19.1349 20.0992 18.4349 20.6658 18.3516L22.9658 18.0182C23.1992 17.9849 23.3825 17.8516 23.4825 17.6349L24.4992 15.5516C24.7325 15.0349 25.4658 15.0349 25.7158 15.5516Z" stroke="#5F7081" stroke-width="2.5" stroke-linecap="round" stroke-linejoin="round"/>
</svg>