<svg width="41" height="40" viewBox="0 0 41 40" fill="none" xmlns="http://www.w3.org/2000/svg">
<path d="M31.85 24.4865C31.85 26.6365 33.6167 28.3865 35.7667 28.3865C35.7667 34.6365 34.2 36.2031 27.95 36.2031H12.3167C6.06667 36.2031 4.5 34.6365 4.5 28.3865V27.6198C6.65 27.6198 8.41667 25.8531 8.41667 23.7031C8.41667 21.5531 6.65 19.7865 4.5 19.7865V19.0198C4.51667 12.7698 6.06667 11.2031 12.3167 11.2031H27.9333C34.1833 11.2031 35.75 12.7698 35.75 19.0198V20.5865C33.6 20.5865 31.85 22.3198 31.85 24.4865Z" stroke="#5F7081" stroke-width="2.5" stroke-linecap="round" stroke-linejoin="round"/>
<path d="M27.3531 11.2029H12.2031L17.0865 6.31953C21.0698 2.3362 23.0698 2.3362 27.0531 6.31953L28.0531 7.31953C27.0031 8.36953 26.7531 9.91953 27.3531 11.2029Z" stroke="#5F7081" stroke-width="2.5" stroke-linecap="round" stroke-linejoin="round"/>
<path d="M16.7969 11.2031L16.7969 36.2031" stroke="#5F7081" stroke-width="2.5" stroke-linecap="round" stroke-linejoin="round" stroke-dasharray="5 5"/>
</svg>