<svg width="48" height="48" viewBox="0 0 48 48" fill="none" xmlns="http://www.w3.org/2000/svg">
<rect width="48" height="48" rx="8" fill="#DDECF0"/>
<path d="M32 33.147H30.9867C29.92 33.147 28.9067 33.5603 28.16 34.307L25.88 36.5603C24.84 37.587 23.1467 37.587 22.1067 36.5603L19.8267 34.307C19.08 33.5603 18.0533 33.147 17 33.147H16C13.7867 33.147 12 31.3737 12 29.187V14.627C12 12.4403 13.7867 10.667 16 10.667H32C34.2133 10.667 36 12.4403 36 14.627V29.1737C36 31.3603 34.2133 33.147 32 33.147Z" stroke="#17738E" stroke-width="2" stroke-miterlimit="10" stroke-linecap="round" stroke-linejoin="round"/>
<path d="M24.0934 19.9334C24.0401 19.9334 23.9601 19.9334 23.8934 19.9334C22.4934 19.8801 21.3867 18.7467 21.3867 17.3334C21.3867 15.8934 22.5467 14.7334 23.9867 14.7334C25.4267 14.7334 26.5868 15.9067 26.5868 17.3334C26.6001 18.7467 25.4934 19.8934 24.0934 19.9334Z" stroke="#17738E" stroke-width="2" stroke-linecap="round" stroke-linejoin="round"/>
<path d="M20.3339 23.9463C18.5606 25.133 18.5606 27.0663 20.3339 28.253C22.3472 29.5996 25.6539 29.5996 27.6672 28.253C29.4406 27.0663 29.4406 25.133 27.6672 23.9463C25.6539 22.613 22.3606 22.613 20.3339 23.9463Z" stroke="#17738E" stroke-width="2" stroke-linecap="round" stroke-linejoin="round"/>
</svg>
