<svg width="48" height="48" viewBox="0 0 48 48" fill="none" xmlns="http://www.w3.org/2000/svg">
<rect width="48" height="48" rx="8" fill="#DDECF0"/>
<path d="M32.0014 17.547C31.9214 17.5337 31.8281 17.5337 31.7481 17.547C29.9081 17.4803 28.4414 15.9737 28.4414 14.107C28.4414 12.2003 29.9747 10.667 31.8814 10.667C33.7881 10.667 35.3214 12.2137 35.3214 14.107C35.3081 15.9737 33.8414 17.4803 32.0014 17.547Z" stroke="#17738E" stroke-width="2" stroke-linecap="round" stroke-linejoin="round"/>
<path d="M30.6298 27.2539C32.4565 27.5605 34.4699 27.2405 35.8832 26.2939C37.7632 25.0405 37.7632 22.9872 35.8832 21.7339C34.4565 20.7872 32.4165 20.4672 30.5898 20.7872" stroke="#17738E" stroke-width="2" stroke-linecap="round" stroke-linejoin="round"/>
<path d="M15.9606 17.547C16.0406 17.5337 16.134 17.5337 16.214 17.547C18.054 17.4803 19.5206 15.9737 19.5206 14.107C19.5206 12.2003 17.9873 10.667 16.0806 10.667C14.174 10.667 12.6406 12.2137 12.6406 14.107C12.654 15.9737 14.1206 17.4803 15.9606 17.547Z" stroke="#17738E" stroke-width="2" stroke-linecap="round" stroke-linejoin="round"/>
<path d="M17.3352 27.2539C15.5085 27.5605 13.4952 27.2405 12.0819 26.2939C10.2019 25.0405 10.2019 22.9872 12.0819 21.7339C13.5085 20.7872 15.5485 20.4672 17.3752 20.7872" stroke="#17738E" stroke-width="2" stroke-linecap="round" stroke-linejoin="round"/>
<path d="M24.0014 27.507C23.9214 27.4936 23.8281 27.4936 23.7481 27.507C21.9081 27.4403 20.4414 25.9336 20.4414 24.067C20.4414 22.1603 21.9747 20.627 23.8814 20.627C25.7881 20.627 27.3214 22.1736 27.3214 24.067C27.3081 25.9336 25.8414 27.4536 24.0014 27.507Z" stroke="#17738E" stroke-width="2" stroke-linecap="round" stroke-linejoin="round"/>
<path d="M20.1209 31.7065C18.2409 32.9598 18.2409 35.0131 20.1209 36.2665C22.2543 37.6931 25.7476 37.6931 27.8809 36.2665C29.7609 35.0131 29.7609 32.9598 27.8809 31.7065C25.7609 30.2932 22.2543 30.2932 20.1209 31.7065Z" stroke="#19809E" stroke-width="2" stroke-linecap="round" stroke-linejoin="round"/>
</svg>
