<svg width="48" height="48" viewBox="0 0 48 48" fill="none" xmlns="http://www.w3.org/2000/svg">
<rect width="48" height="48" rx="8" fill="#DDECF0"/>
<mask id="path-2-inside-1_29717_4292" fill="white">
<path d="M36.1319 24.705C35.1263 23.6994 33.49 23.6994 32.4844 24.705L29.4506 27.7388C29.3381 27.8512 29.1925 27.92 29.0356 27.935C28.6469 26.9919 27.7194 26.3425 26.6519 26.3425H23.7188C22.7769 25.5306 21.5869 25.0869 20.3337 25.0869C18.7844 25.0869 17.3319 25.7687 16.3406 26.96L11.8306 31.47C11.3656 31.935 11.1094 32.5531 11.1094 33.2106C11.1094 33.8681 11.3656 34.4862 11.8306 34.9513L14.4388 37.5594C14.9019 38.0225 15.5287 38.2806 16.1794 38.2806C16.2344 38.2806 16.29 38.2787 16.3456 38.275C17.055 38.2269 17.7081 37.875 18.1388 37.31L20.4069 34.3306C20.4444 34.2812 20.5037 34.2519 20.5656 34.2519H29.0944C29.8281 34.2519 30.5175 33.9662 31.0369 33.4475L36.1319 28.3519C36.6188 27.865 36.8875 27.2169 36.8875 26.5281C36.8875 25.8394 36.6194 25.1919 36.1319 24.7044V24.705ZM35.0269 27.2475L29.9319 32.3425C29.7081 32.5662 29.4106 32.6894 29.0944 32.6894H20.5656C20.0188 32.6894 19.495 32.9494 19.1637 33.3844L16.8962 36.3638C16.7369 36.5731 16.5037 36.6987 16.2413 36.7162C15.9781 36.7331 15.7306 36.6413 15.5444 36.455L12.9362 33.8469C12.5856 33.4963 12.5856 32.9256 12.9362 32.575L17.4612 28.05C17.4831 28.0287 17.5044 28.0063 17.5237 27.9825C18.2169 27.1356 19.2412 26.65 20.3344 26.65C21.2875 26.65 22.1875 27.0169 22.87 27.6831C23.0156 27.8256 23.2119 27.9056 23.4156 27.9056H26.6525C27.1706 27.9056 27.6044 28.2931 27.6625 28.8069C27.665 28.8269 27.6681 28.8469 27.6719 28.8662C27.6706 28.8844 27.6694 28.9031 27.6694 28.9219C27.6694 29.4825 27.2131 29.9381 26.6531 29.9381H21.0625C20.6313 29.9381 20.2812 30.2881 20.2812 30.7194C20.2812 31.1506 20.6313 31.5006 21.0625 31.5006H26.6531C27.8794 31.5006 28.9075 30.64 29.1675 29.4919C29.6919 29.4462 30.1794 29.2206 30.5563 28.8438L33.59 25.81C33.9862 25.4137 34.6313 25.4137 35.0275 25.81C35.2194 26.0019 35.325 26.2575 35.325 26.5287C35.325 26.8 35.2194 27.0556 35.0275 27.2475H35.0269ZM17.525 21.8138H20.7919C20.885 23.2013 22.0425 24.3013 23.4531 24.3013H28.86C30.2706 24.3013 31.4281 23.2006 31.5212 21.8138H34.7875C35.8981 21.8138 36.8013 20.91 36.8013 19.7994V19.055C36.8013 18.04 36.405 17.0875 35.6844 16.3725C35.4838 16.1731 35.2638 16 35.0306 15.8531C35.3669 15.4213 35.5681 14.8794 35.5681 14.2913C35.5681 12.8869 34.4256 11.7444 33.0219 11.7444C31.6181 11.7444 30.475 12.8869 30.475 14.2913C30.475 14.8825 30.6781 15.4269 31.0175 15.86C30.6362 16.1025 30.3 16.4119 30.0256 16.7712C29.9969 16.7419 29.9694 16.7113 29.94 16.6819C29.5344 16.2794 29.0756 15.9506 28.5806 15.6994C29.2331 15.0663 29.6394 14.1806 29.6394 13.2019C29.6394 11.2813 28.0769 9.71875 26.1562 9.71875C24.2356 9.71875 22.6731 11.2813 22.6731 13.2019C22.6731 14.185 23.0831 15.0731 23.74 15.7069C23.205 15.9812 22.7212 16.3431 22.3069 16.7744C22.2 16.6337 22.0825 16.4987 21.9544 16.3719C21.7537 16.1725 21.5338 16 21.3 15.8525C21.6363 15.4206 21.8375 14.8787 21.8375 14.29C21.8375 12.8856 20.695 11.7431 19.2912 11.7431C17.8875 11.7431 16.7444 12.8856 16.7444 14.29C16.7444 14.8812 16.9475 15.4256 17.2869 15.8587C16.2219 16.5363 15.5106 17.7344 15.5106 19.0925V19.7987C15.5106 20.9094 16.4137 21.8131 17.5244 21.8131L17.525 21.8138ZM33.0212 13.3069C33.5637 13.3069 34.005 13.7481 34.005 14.2913C34.005 14.8344 33.5644 15.2744 33.0225 15.275C33.0225 15.275 33.0225 15.275 33.0219 15.275H33.0194C32.4775 15.2738 32.0369 14.8331 32.0369 14.2913C32.0369 13.7494 32.4781 13.3069 33.0212 13.3069ZM33.0044 16.8375H33.0181C33.0181 16.8375 33.0206 16.8375 33.0219 16.8375C33.0219 16.8375 33.0231 16.8375 33.0238 16.8375C33.6125 16.8375 34.1663 17.0662 34.5844 17.4812C35.0069 17.9006 35.2394 18.46 35.2394 19.055V19.7994C35.2394 20.0487 35.0375 20.2513 34.7881 20.2513H31.5225C31.49 19.5188 31.3119 18.8131 31.0013 18.1675C31.3475 17.39 32.115 16.8444 33.005 16.8375H33.0044ZM26.1562 11.2812C27.2156 11.2812 28.0769 12.1431 28.0769 13.2019C28.0769 14.2606 27.215 15.1225 26.1562 15.1225C25.0975 15.1225 24.2356 14.2606 24.2356 13.2019C24.2356 12.1431 25.0975 11.2812 26.1562 11.2812ZM26.1275 16.685C26.1375 16.685 26.1469 16.685 26.1569 16.685C27.1694 16.685 28.1213 17.0769 28.84 17.7906C29.5656 18.5112 29.9656 19.4712 29.9656 20.4937V21.6331C29.9656 22.2425 29.47 22.7388 28.86 22.7388H23.4531C22.8438 22.7388 22.3475 22.2431 22.3475 21.6331V20.5513C22.3475 18.435 24.0431 16.7 26.1275 16.685ZM19.2912 13.3063C19.8337 13.3063 20.275 13.7475 20.275 14.2906C20.275 14.8338 19.8337 15.2744 19.2912 15.2744C18.7487 15.2744 18.3069 14.8331 18.3069 14.2906C18.3069 13.7481 18.7481 13.3063 19.2912 13.3063ZM17.0737 19.0925C17.0737 17.8575 18.0606 16.8463 19.2744 16.8369H19.2881C19.2881 16.8369 19.2906 16.8369 19.2919 16.8369C19.2919 16.8369 19.2931 16.8369 19.2937 16.8369C19.8825 16.8369 20.4362 17.0656 20.8544 17.4806C21.0594 17.6838 21.2188 17.9206 21.33 18.1781C21.0231 18.8113 20.835 19.5119 20.7944 20.2506H17.5256C17.2769 20.2506 17.0744 20.0481 17.0744 19.7987V19.0925H17.0737Z"/>
</mask>
<path d="M36.1319 24.705C35.1263 23.6994 33.49 23.6994 32.4844 24.705L29.4506 27.7388C29.3381 27.8512 29.1925 27.92 29.0356 27.935C28.6469 26.9919 27.7194 26.3425 26.6519 26.3425H23.7188C22.7769 25.5306 21.5869 25.0869 20.3337 25.0869C18.7844 25.0869 17.3319 25.7687 16.3406 26.96L11.8306 31.47C11.3656 31.935 11.1094 32.5531 11.1094 33.2106C11.1094 33.8681 11.3656 34.4862 11.8306 34.9513L14.4388 37.5594C14.9019 38.0225 15.5287 38.2806 16.1794 38.2806C16.2344 38.2806 16.29 38.2787 16.3456 38.275C17.055 38.2269 17.7081 37.875 18.1388 37.31L20.4069 34.3306C20.4444 34.2812 20.5037 34.2519 20.5656 34.2519H29.0944C29.8281 34.2519 30.5175 33.9662 31.0369 33.4475L36.1319 28.3519C36.6188 27.865 36.8875 27.2169 36.8875 26.5281C36.8875 25.8394 36.6194 25.1919 36.1319 24.7044V24.705ZM35.0269 27.2475L29.9319 32.3425C29.7081 32.5662 29.4106 32.6894 29.0944 32.6894H20.5656C20.0188 32.6894 19.495 32.9494 19.1637 33.3844L16.8962 36.3638C16.7369 36.5731 16.5037 36.6987 16.2413 36.7162C15.9781 36.7331 15.7306 36.6413 15.5444 36.455L12.9362 33.8469C12.5856 33.4963 12.5856 32.9256 12.9362 32.575L17.4612 28.05C17.4831 28.0287 17.5044 28.0063 17.5237 27.9825C18.2169 27.1356 19.2412 26.65 20.3344 26.65C21.2875 26.65 22.1875 27.0169 22.87 27.6831C23.0156 27.8256 23.2119 27.9056 23.4156 27.9056H26.6525C27.1706 27.9056 27.6044 28.2931 27.6625 28.8069C27.665 28.8269 27.6681 28.8469 27.6719 28.8662C27.6706 28.8844 27.6694 28.9031 27.6694 28.9219C27.6694 29.4825 27.2131 29.9381 26.6531 29.9381H21.0625C20.6313 29.9381 20.2812 30.2881 20.2812 30.7194C20.2812 31.1506 20.6313 31.5006 21.0625 31.5006H26.6531C27.8794 31.5006 28.9075 30.64 29.1675 29.4919C29.6919 29.4462 30.1794 29.2206 30.5563 28.8438L33.59 25.81C33.9862 25.4137 34.6313 25.4137 35.0275 25.81C35.2194 26.0019 35.325 26.2575 35.325 26.5287C35.325 26.8 35.2194 27.0556 35.0275 27.2475H35.0269ZM17.525 21.8138H20.7919C20.885 23.2013 22.0425 24.3013 23.4531 24.3013H28.86C30.2706 24.3013 31.4281 23.2006 31.5212 21.8138H34.7875C35.8981 21.8138 36.8013 20.91 36.8013 19.7994V19.055C36.8013 18.04 36.405 17.0875 35.6844 16.3725C35.4838 16.1731 35.2638 16 35.0306 15.8531C35.3669 15.4213 35.5681 14.8794 35.5681 14.2913C35.5681 12.8869 34.4256 11.7444 33.0219 11.7444C31.6181 11.7444 30.475 12.8869 30.475 14.2913C30.475 14.8825 30.6781 15.4269 31.0175 15.86C30.6362 16.1025 30.3 16.4119 30.0256 16.7712C29.9969 16.7419 29.9694 16.7113 29.94 16.6819C29.5344 16.2794 29.0756 15.9506 28.5806 15.6994C29.2331 15.0663 29.6394 14.1806 29.6394 13.2019C29.6394 11.2813 28.0769 9.71875 26.1562 9.71875C24.2356 9.71875 22.6731 11.2813 22.6731 13.2019C22.6731 14.185 23.0831 15.0731 23.74 15.7069C23.205 15.9812 22.7212 16.3431 22.3069 16.7744C22.2 16.6337 22.0825 16.4987 21.9544 16.3719C21.7537 16.1725 21.5338 16 21.3 15.8525C21.6363 15.4206 21.8375 14.8787 21.8375 14.29C21.8375 12.8856 20.695 11.7431 19.2912 11.7431C17.8875 11.7431 16.7444 12.8856 16.7444 14.29C16.7444 14.8812 16.9475 15.4256 17.2869 15.8587C16.2219 16.5363 15.5106 17.7344 15.5106 19.0925V19.7987C15.5106 20.9094 16.4137 21.8131 17.5244 21.8131L17.525 21.8138ZM33.0212 13.3069C33.5637 13.3069 34.005 13.7481 34.005 14.2913C34.005 14.8344 33.5644 15.2744 33.0225 15.275C33.0225 15.275 33.0225 15.275 33.0219 15.275H33.0194C32.4775 15.2738 32.0369 14.8331 32.0369 14.2913C32.0369 13.7494 32.4781 13.3069 33.0212 13.3069ZM33.0044 16.8375H33.0181C33.0181 16.8375 33.0206 16.8375 33.0219 16.8375C33.0219 16.8375 33.0231 16.8375 33.0238 16.8375C33.6125 16.8375 34.1663 17.0662 34.5844 17.4812C35.0069 17.9006 35.2394 18.46 35.2394 19.055V19.7994C35.2394 20.0487 35.0375 20.2513 34.7881 20.2513H31.5225C31.49 19.5188 31.3119 18.8131 31.0013 18.1675C31.3475 17.39 32.115 16.8444 33.005 16.8375H33.0044ZM26.1562 11.2812C27.2156 11.2812 28.0769 12.1431 28.0769 13.2019C28.0769 14.2606 27.215 15.1225 26.1562 15.1225C25.0975 15.1225 24.2356 14.2606 24.2356 13.2019C24.2356 12.1431 25.0975 11.2812 26.1562 11.2812ZM26.1275 16.685C26.1375 16.685 26.1469 16.685 26.1569 16.685C27.1694 16.685 28.1213 17.0769 28.84 17.7906C29.5656 18.5112 29.9656 19.4712 29.9656 20.4937V21.6331C29.9656 22.2425 29.47 22.7388 28.86 22.7388H23.4531C22.8438 22.7388 22.3475 22.2431 22.3475 21.6331V20.5513C22.3475 18.435 24.0431 16.7 26.1275 16.685ZM19.2912 13.3063C19.8337 13.3063 20.275 13.7475 20.275 14.2906C20.275 14.8338 19.8337 15.2744 19.2912 15.2744C18.7487 15.2744 18.3069 14.8331 18.3069 14.2906C18.3069 13.7481 18.7481 13.3063 19.2912 13.3063ZM17.0737 19.0925C17.0737 17.8575 18.0606 16.8463 19.2744 16.8369H19.2881C19.2881 16.8369 19.2906 16.8369 19.2919 16.8369C19.2919 16.8369 19.2931 16.8369 19.2937 16.8369C19.8825 16.8369 20.4362 17.0656 20.8544 17.4806C21.0594 17.6838 21.2188 17.9206 21.33 18.1781C21.0231 18.8113 20.835 19.5119 20.7944 20.2506H17.5256C17.2769 20.2506 17.0744 20.0481 17.0744 19.7987V19.0925H17.0737Z" fill="#5F7081" stroke="#17738E" stroke-width="2" mask="url(#path-2-inside-1_29717_4292)"/>
</svg>
