<svg width="99" height="40" viewBox="0 0 99 40" fill="none" xmlns="http://www.w3.org/2000/svg">
<path d="M35.154 19.4879C37.3765 20.246 38.6378 21.5575 38.798 23.832C38.9782 26.3524 37.917 28.2375 35.9349 29.6309C34.7936 30.4506 33.4922 30.9423 32.1307 31.1882C29.5479 31.68 26.945 31.7005 24.3622 31.2702C21.7593 30.8399 20.618 29.2211 21.1787 26.5573C22.3399 21.0657 23.5813 15.5741 24.8026 10.103C24.9028 9.67268 25.0229 9.34483 25.5635 9.30385C28.4867 9.03746 31.3899 8.58666 34.3331 9.09894C35.4143 9.28335 36.4554 9.54974 37.4165 10.0415C40.7402 11.7218 41.0805 15.779 38.1373 18.0535C37.2964 18.6887 36.3553 19.0985 35.154 19.4879ZM27.5056 21.578C27.1252 23.3607 26.7648 24.9999 26.4044 26.6187C26.2642 27.2335 26.3443 27.7252 27.0651 27.7662C28.747 27.8482 30.4288 27.7662 31.9305 26.8646C33.0717 26.1884 33.5523 25.1229 33.3921 23.7705C33.2319 22.4796 32.3309 21.9673 31.2297 21.6189C30.0084 21.2501 28.8271 21.8648 27.5056 21.578ZM31.2097 12.6234C30.6891 12.9717 29.708 12.1316 29.3877 13.2381C29.0473 14.4676 28.807 15.738 28.5267 17.0085C28.4266 17.4388 28.5668 17.8281 29.0273 17.8486C30.8293 17.951 32.6312 17.9715 34.0928 16.6601C35.5144 15.3897 35.0739 13.4225 33.2719 12.8283C32.6312 12.6439 31.9705 12.6439 31.2097 12.6234ZM78.6218 12.9308C77.6007 10.062 75.0178 9.38581 72.3749 9.11943C69.9322 8.87353 67.4695 8.99648 65.0268 9.28335C64.1859 9.38581 63.7654 9.71367 63.5652 10.6153C62.1236 17.3363 60.622 24.0574 59.1604 30.7784C59.1003 31.0243 58.9802 31.2907 59.3005 31.598H61.2227C63.6653 31.598 64.3861 31.0038 64.9267 28.5859C65.2471 27.1515 65.5674 25.6966 65.8678 24.3033C66.3683 24.1188 66.7687 24.2623 67.1692 24.2828C70.6931 24.4057 74.0367 23.8115 76.6196 21.1067C78.822 18.8117 79.743 16.0249 78.6218 12.9308ZM74.2169 16.5167C73.7364 18.8526 71.7743 20.3075 69.0713 20.328C67.3093 20.328 67.1492 20.1231 67.5296 18.2994C67.8499 16.8035 68.1903 15.3282 68.4506 13.8324C68.5707 13.0947 68.9311 12.8078 69.6319 12.8078C70.3727 12.7873 71.1135 12.7463 71.8543 12.8898C73.7764 13.2586 74.6174 14.5495 74.2169 16.5167ZM58.8601 9.50876C54.235 7.78751 49.7901 8.09488 45.9659 11.4759C42.3019 14.7135 41.1406 19.0166 41.6011 23.8525C41.8614 26.6187 43.0026 28.9342 45.4253 30.3481C48.5087 32.1513 51.8123 32.2128 55.136 31.2087C55.8768 30.9833 56.4374 30.4506 56.6376 29.6514C56.9379 28.4424 57.1982 27.2335 57.4986 25.8606C56.4574 26.4343 55.6165 26.9671 54.6554 27.2744C51.6321 28.2375 48.6088 27.049 47.5476 24.4672C46.086 20.9017 48.1683 15.2872 51.6321 13.6479C54.4752 12.316 57.2183 12.9103 59.9613 14.4676C60.1214 13.8528 60.2816 13.2996 60.4218 12.7463C60.8222 11.0456 60.4818 10.1235 58.8601 9.50876Z" fill="#004192"/>
<path d="M12.4092 11.1895C15.1322 12.6033 17.3146 14.6319 18.9164 17.2548C19.8975 18.8736 19.7773 20.6563 18.6761 22.2136C16.4136 25.4512 13.4103 27.8281 9.92651 29.4674C7.58394 30.5739 5.0011 29.283 4 26.6806C5.40154 25.9225 6.80308 25.1438 8.08449 24.1807C10.0066 22.7464 11.6684 21.0866 12.4893 18.7301C13.6106 16.2097 13.7107 13.6894 12.4092 11.1895ZM87.4918 11.1895C90.2148 12.5828 92.3972 14.6524 94.0189 17.2548C95 18.8326 94.9199 20.5743 93.8588 22.1111C91.5762 25.4307 88.5129 27.8486 84.949 29.5084C82.6264 30.5739 80.1036 29.2625 79.1226 26.7216C80.444 25.9839 81.7855 25.2463 83.0068 24.3242C84.989 22.8488 86.7509 21.1686 87.5919 18.7301C88.7331 16.1893 88.8132 13.6689 87.4918 11.1895Z" fill="#FF7D34"/>
<path d="M12.4129 11.1882C13.7143 13.6881 13.5941 16.188 12.4729 18.7084C10.771 16.8232 8.64871 15.5323 6.40625 14.5077C7.58755 11.2497 10.2705 9.8153 12.4129 11.1882ZM87.4954 11.1882C88.8168 13.6881 88.7367 16.188 87.5754 18.7289C85.8936 16.8437 83.7913 15.5733 81.4287 14.4872C82.2096 12.684 83.3308 11.3726 85.0927 10.6964C85.9937 10.3276 86.7746 10.594 87.4954 11.1882Z" fill="#004192"/>
</svg>
