<svg width="139" height="32" viewBox="0 0 139 32" fill="none" xmlns="http://www.w3.org/2000/svg">
<g clip-path="url(#clip0_26615_25572)">
<path d="M68.4891 10.9875C64.7378 10.9875 62.0988 13.7159 62.077 18.1165C62.077 22.143 65.2612 24.6293 68.5109 24.6293C70.452 24.6293 71.6516 24.3213 72.3495 23.7492V21.5269C71.3409 21.9789 70.2469 22.2041 69.1434 22.187C67.1369 22.187 65.523 21.0869 65.2612 19.3266L65.2394 19.1726H67.5731C69.7759 19.1726 71.3244 18.9746 72.3059 18.4905C73.2873 18.0065 73.7017 17.2584 73.7017 16.0702C73.7017 12.9238 71.1936 10.9875 68.4891 10.9875ZM70.0158 16.7743C69.4051 16.9943 68.4455 17.0823 66.8534 17.0823H66.8532H65.2176V16.9283L65.2394 16.4883C65.3049 14.9041 66.4826 13.4959 68.1838 13.4959C68.8627 13.4634 69.5345 13.6482 70.1031 14.0239C70.3457 14.2117 70.5398 14.4558 70.6689 14.7354C70.798 15.015 70.8583 15.322 70.8446 15.6302C70.8664 16.1582 70.6265 16.5543 70.0158 16.7743ZM75.3157 16.0702V24.4093H78.3909V16.6863C78.3909 15.6522 78.5872 14.9041 79.0234 14.398C79.4596 13.8919 80.0702 13.6939 80.8336 13.6939C81.1112 13.6913 81.3886 13.7134 81.6624 13.7599V11.2956C81.1791 11.0644 80.6486 10.9513 80.1139 10.9655C76.6679 10.9875 75.3157 13.4519 75.3157 16.0702ZM37.9987 24.4093V7.62109H34.9453V24.4093H37.9987ZM46.2647 10.9875C42.1644 10.9875 40.3978 13.8039 40.376 16.5763V24.4093H43.4294V16.7963C43.3962 15.9687 43.6422 15.1542 44.1273 14.486C44.355 14.216 44.6396 14.0007 44.9604 13.8561C45.2811 13.7114 45.6299 13.6409 45.9812 13.6499C46.8536 13.6499 47.5733 13.9139 48.0749 14.464C48.5766 15.0141 48.8165 15.8942 48.8165 17.0383V24.4093H51.8699V16.7523C51.8699 13.0338 49.3399 10.9875 46.2647 10.9875ZM57.257 7.62109H54.2254V19.7447C54.2472 22.8251 55.7739 24.6293 59.089 24.6513C60.5067 24.6513 61.3354 24.1893 61.6844 23.4412V21.5269C61.1391 21.769 60.3976 21.879 59.4816 21.879C58.7837 21.879 58.2166 21.703 57.824 21.2849C57.4314 20.8668 57.2352 20.2288 57.2352 19.3266V13.6499H59.896C61.2046 13.6499 61.7498 12.8138 61.7498 12.1977V10.9655H57.257V7.62109ZM115.163 10.9875C111.062 10.9875 109.296 13.8039 109.274 16.5763L109.296 24.4093H112.327V16.7963C112.327 15.8062 112.589 15.0361 113.025 14.486C113.253 14.216 113.537 14.0007 113.858 13.8561C114.179 13.7114 114.528 13.6409 114.879 13.6499C115.751 13.6499 116.471 13.9139 116.973 14.486C117.474 15.0581 117.714 15.8942 117.714 17.0383V24.4093H120.746V16.7523C120.768 13.0338 118.26 10.9875 115.163 10.9875ZM89.7539 10.9875C88.0309 10.9875 86.9622 12.0217 86.3297 12.9678L86.0898 13.3198V7.62109H83.0582V18.0285C83.0582 22.4511 85.6972 24.6513 89.1214 24.6513C93.0254 24.6513 95.4899 21.5489 95.4899 17.5884C95.4899 13.6939 93.0036 10.9875 89.7539 10.9875ZM89.4704 22.033C88.4671 22.033 87.5729 21.747 86.984 20.9989C86.3951 20.2508 86.1116 19.1066 86.1116 17.5444C86.1116 15.4101 87.3984 13.6719 89.1432 13.6499C90.1683 13.6499 90.9971 13.9359 91.5641 14.662C92.1312 15.3881 92.4147 16.4883 92.4147 18.1385C92.3929 20.3608 91.1934 22.033 89.4704 22.033ZM101.749 10.9875C99.8956 10.9875 98.6742 11.4936 97.8236 12.1537V14.31C98.8925 13.7975 100.064 13.5414 101.248 13.5619C102.251 13.5619 103.123 13.7159 103.625 14.112C104.127 14.508 104.367 15.1901 104.367 16.1582V16.4663H103.058C98.1726 16.4883 96.5586 18.2265 96.5586 20.5368C96.5586 22.9131 98.6524 24.6513 101.771 24.6513H102.447C105.348 24.6513 107.355 22.7591 107.355 19.9867V16.9063C107.376 12.2197 104.694 11.0095 101.749 10.9875ZM104.41 20.0087C104.41 20.7128 104.236 21.2629 103.843 21.6589C103.451 22.055 102.884 22.209 102.142 22.209C101.513 22.2416 100.889 22.0804 100.354 21.747C100.141 21.5969 99.9701 21.3952 99.8557 21.1605C99.7414 20.9259 99.6875 20.666 99.6993 20.4048C99.68 20.1266 99.7395 19.8486 99.8708 19.6032C100.002 19.3578 100.2 19.1551 100.441 19.0186C100.964 18.7106 101.815 18.5785 103.08 18.5785H104.41V20.0087ZM129.47 17.4564L129.405 17.3684L129.47 17.2804C130.8 15.5861 133.701 12.2857 134.77 11.2956H133.09C132.022 11.2956 131.302 11.4056 130.539 12.1317C129.012 13.5839 127.747 15.3001 126.46 16.9723L126.22 17.3024L126.242 7.62109H123.167V24.3873H126.242V17.5884L126.482 17.9185C127.943 19.8767 129.426 21.857 131.128 23.6172C131.696 24.1571 132.441 24.4699 133.221 24.4973C134.072 24.4973 134.552 24.2773 134.879 23.8812C134.006 22.8471 130.517 18.7326 129.47 17.4564Z" fill="#00A24F"/>
<path d="M7.16245 4.01367C6.32172 4.01948 5.51738 4.3605 4.92492 4.96231C4.33247 5.56413 3.99998 6.37791 4 7.2261V27.9968H24.6105C25.4546 27.9957 26.2639 27.6569 26.8608 27.0547C27.4577 26.4525 27.7936 25.6361 27.7947 24.7844V4.01367H7.16245ZM22.2332 21.33L9.56155 23.6403V10.7466L22.2332 8.43626V21.33Z" fill="#0060A9"/>
</g>
<defs>
<clipPath id="clip0_26615_25572">
<rect width="131" height="24" fill="white" transform="translate(4 4)"/>
</clipPath>
</defs>
</svg>
