<svg width="29" height="36" viewBox="0 0 29 36" fill="none" xmlns="http://www.w3.org/2000/svg">
<path d="M18.4279 10.9512H10.5859V25.0479H18.4279V10.9512Z" fill="#FF5F00"/>
<path d="M11.0776 18.0003C11.0763 16.6427 11.3839 15.3026 11.9769 14.0814C12.57 12.8603 13.433 11.7901 14.5006 10.9519C13.1785 9.91236 11.5907 9.26588 9.91864 9.08636C8.2466 8.90684 6.5578 9.20151 5.04526 9.93672C3.53273 10.6719 2.25749 11.818 1.36531 13.2439C0.473124 14.6698 0 16.3181 0 18.0003C0 19.6825 0.473124 21.3307 1.36531 22.7567C2.25749 24.1826 3.53273 25.3286 5.04526 26.0639C6.5578 26.7991 8.2466 27.0937 9.91864 26.9142C11.5907 26.7347 13.1785 26.0882 14.5006 25.0487C13.433 24.2105 12.57 23.1403 11.9769 21.9192C11.3839 20.698 11.0763 19.3579 11.0776 18.0003Z" fill="#EB001B"/>
<path d="M29.0002 18.0003C29.0002 19.6825 28.5272 21.3307 27.635 22.7566C26.7429 24.1825 25.4677 25.3286 23.9552 26.0638C22.4427 26.799 20.7539 27.0937 19.0819 26.9142C17.4099 26.7347 15.8221 26.0882 14.5 25.0487C15.5667 24.2096 16.429 23.1393 17.022 21.9183C17.6149 20.6974 17.923 19.3577 17.923 18.0003C17.923 16.6429 17.6149 15.3032 17.022 14.0822C16.429 12.8613 15.5667 11.7909 14.5 10.9519C15.8221 9.91235 17.4099 9.26587 19.0819 9.08636C20.7539 8.90684 22.4427 9.20153 23.9552 9.93674C25.4677 10.672 26.7429 11.818 27.635 13.2439C28.5272 14.6699 29.0002 16.3181 29.0002 18.0003Z" fill="#F79E1B"/>
<path d="M28.1487 23.557V23.2684H28.265V23.2096H27.9688V23.2684H28.0851V23.557H28.1487ZM28.7239 23.557V23.209H28.6331L28.5286 23.4483L28.4241 23.209H28.3333V23.557H28.3974V23.2945L28.4954 23.5208H28.5619L28.6598 23.2939V23.557H28.7239Z" fill="#F79E1B"/>
</svg>
