<svg width="40" height="40" viewBox="0 0 40 40" fill="none" xmlns="http://www.w3.org/2000/svg">
<rect x="4" y="4" width="32" height="32" rx="8" fill="#DDECF0"/>
<path d="M17.75 15.5C17.75 15.3011 17.829 15.1103 17.9697 14.9697C18.1103 14.829 18.3011 14.75 18.5 14.75H21.5C21.6989 14.75 21.8897 14.829 22.0303 14.9697C22.171 15.1103 22.25 15.3011 22.25 15.5C22.25 15.6989 22.171 15.8897 22.0303 16.0303C21.8897 16.171 21.6989 16.25 21.5 16.25H18.5C18.3011 16.25 18.1103 16.171 17.9697 16.0303C17.829 15.8897 17.75 15.6989 17.75 15.5Z" fill="#136077"/>
<path fill-rule="evenodd" clip-rule="evenodd" d="M18.4393 10.6008C18.9633 10.3628 19.4573 10.2148 20.0043 10.2148C20.5513 10.2148 21.0453 10.3628 21.5693 10.6008C22.0713 10.8288 22.6483 11.1628 23.3543 11.5708L29.0893 14.8908C29.5343 15.1483 29.8819 15.5453 30.0783 16.0204C30.2747 16.4955 30.3089 17.0221 30.1756 17.5185C30.0423 18.015 29.749 18.4537 29.3411 18.7665C28.9331 19.0794 28.4334 19.2489 27.9193 19.2488H27.7543V25.2598C28.4599 25.3231 29.1139 25.6563 29.5799 26.1899C30.0459 26.7234 30.288 27.4163 30.2558 28.124C30.2236 28.8317 29.9195 29.4996 29.4069 29.9886C28.8943 30.4776 28.2127 30.75 27.5043 30.7488H12.5043C11.7959 30.75 11.1144 30.4776 10.6018 29.9886C10.0892 29.4996 9.78508 28.8317 9.75285 28.124C9.72062 27.4163 9.96274 26.7234 10.4288 26.1899C10.8948 25.6563 11.5487 25.3231 12.2543 25.2598V19.2488H12.0903C11.5766 19.2485 11.0772 19.0788 10.6697 18.766C10.2621 18.4533 9.969 18.0149 9.83576 17.5187C9.70252 17.0225 9.73657 16.4962 9.93263 16.0214C10.1287 15.5465 10.4758 15.1495 10.9203 14.8918L16.6543 11.5718C17.3603 11.1618 17.9373 10.8278 18.4393 10.6008ZM19.0593 11.9668C18.6333 12.1598 18.1193 12.4568 17.3743 12.8878L11.6713 16.1898C11.5124 16.2821 11.3882 16.4242 11.3182 16.5941C11.2481 16.7641 11.236 16.9523 11.2837 17.1298C11.3314 17.3073 11.4363 17.4642 11.5821 17.5761C11.7279 17.688 11.9065 17.7487 12.0903 17.7488H27.9183C28.1021 17.7487 28.2807 17.688 28.4266 17.5761C28.5724 17.4642 28.6772 17.3073 28.7249 17.1298C28.7726 16.9523 28.7605 16.7641 28.6905 16.5941C28.6204 16.4242 28.4963 16.2821 28.3373 16.1898L22.6343 12.8878C21.8883 12.4568 21.3753 12.1598 20.9493 11.9668C20.5383 11.7798 20.2633 11.7148 20.0043 11.7148C19.7453 11.7148 19.4703 11.7798 19.0593 11.9668ZM26.2543 25.2488V19.2488H23.2543V25.2488H26.2543ZM18.2543 25.2488V19.2488H21.7543V25.2488H18.2543ZM16.7543 25.2488V19.2488H13.7543V25.2488H16.7543ZM11.2543 27.9988C11.2543 27.3088 11.8143 26.7488 12.5043 26.7488H27.5043C27.8358 26.7488 28.1538 26.8805 28.3882 27.115C28.6226 27.3494 28.7543 27.6673 28.7543 27.9988C28.7543 28.3304 28.6226 28.6483 28.3882 28.8827C28.1538 29.1171 27.8358 29.2488 27.5043 29.2488H12.5043C11.8143 29.2488 11.2543 28.6888 11.2543 27.9988Z" fill="#136077"/>
</svg>
