<svg width="126" height="37" viewBox="0 0 126 37" fill="none" xmlns="http://www.w3.org/2000/svg">
<g clip-path="url(#clip0_26615_17538)">
<path fill-rule="evenodd" clip-rule="evenodd" d="M14.297 10.8281H22.3603C26.6895 10.8281 28.3193 13.0514 28.0674 16.3177C27.6511 21.7103 24.4375 24.6937 20.1748 24.6937H18.0227C17.4378 24.6937 17.0444 25.0864 16.8862 26.1505L15.9725 32.3369C15.9121 32.7381 15.704 32.9703 15.3918 33.002H10.3257C9.84905 33.002 9.68046 32.6325 9.80534 31.8323L12.8941 12C13.0148 11.2061 13.4436 10.8281 14.297 10.8281Z" fill="#009EE3"/>
<path fill-rule="evenodd" clip-rule="evenodd" d="M49.3046 10.4609C52.025 10.4609 54.5351 11.9579 54.1917 15.6888C53.7754 20.1227 51.4339 22.5761 47.7394 22.5867H44.5112C44.047 22.5867 43.8223 22.9709 43.7015 23.7585L43.0771 27.7849C42.9835 28.393 42.6754 28.6928 42.2217 28.6928H39.2182C38.7395 28.6928 38.573 28.3825 38.6791 27.6878L41.1581 11.5504C41.2809 10.7565 41.5744 10.4609 42.1093 10.4609H49.2984H49.3046ZM44.4134 19.1008H46.859C48.3888 19.0416 49.4045 17.9669 49.5065 16.0287C49.569 14.8315 48.7718 13.9743 47.5042 13.9806L45.2022 13.9912L44.4134 19.1008ZM62.357 27.4577C62.6317 27.2043 62.9106 27.0734 62.8711 27.3859L62.7733 28.1333C62.7233 28.5239 62.8753 28.7308 63.2333 28.7308H65.9016C66.3512 28.7308 66.5697 28.5471 66.68 27.8419L68.3243 17.3736C68.4076 16.8479 68.2806 16.5903 67.8872 16.5903H64.9525C64.6881 16.5903 64.5591 16.7402 64.4904 17.1498L64.3822 17.7938C64.326 18.1295 64.174 18.1886 64.0325 17.8508C63.5351 16.6558 62.2654 16.1195 60.4941 16.1617C56.3792 16.2483 53.6048 19.4175 53.3071 23.4798C53.0782 26.6215 55.2969 29.0898 58.2234 29.0898C60.3464 29.0898 61.2955 28.4563 62.3653 27.464L62.357 27.4577ZM60.1216 25.8467C58.3503 25.8467 57.1161 24.413 57.3721 22.6564C57.6281 20.8997 59.2849 19.466 61.0561 19.466C62.8274 19.466 64.0616 20.8997 63.8056 22.6564C63.5496 24.413 61.8949 25.8467 60.1216 25.8467ZM73.5465 16.5565H70.8407C70.2829 16.5565 70.056 16.9788 70.233 17.4982L73.5923 27.4767L70.2975 32.2252C70.0207 32.6221 70.235 32.9832 70.6243 32.9832H73.6652C73.8424 33.004 74.0218 32.9726 74.1819 32.8929C74.3421 32.8131 74.4763 32.6884 74.5685 32.5335L84.9005 17.5003C85.2189 17.0379 85.0691 16.5523 84.5466 16.5523H81.6681C81.1748 16.5523 80.9771 16.7508 80.694 17.1667L76.3855 23.5009L74.4602 17.1519C74.3479 16.7677 74.0669 16.5565 73.5486 16.5565H73.5465Z" fill="#113984"/>
<path fill-rule="evenodd" clip-rule="evenodd" d="M95.6463 10.4574C98.3667 10.4574 100.877 11.9543 100.533 15.6852C100.117 20.1191 97.7756 22.5725 94.0811 22.5831H90.8549C90.3908 22.5831 90.166 22.9674 90.0453 23.7549L89.4209 27.7813C89.3272 28.3894 89.0192 28.6892 88.5654 28.6892H85.562C85.0832 28.6892 84.9167 28.3789 85.0229 27.6842L87.506 11.5426C87.6288 10.7487 87.9223 10.4531 88.4572 10.4531H95.6463V10.4574ZM90.755 19.0972H93.2007C94.7305 19.0381 95.7462 17.9634 95.8482 16.0251C95.9106 14.8279 95.1135 13.9707 93.8459 13.977L91.5439 13.9876L90.755 19.0972ZM108.699 27.4541C108.973 27.2007 109.252 27.0698 109.213 27.3823L109.115 28.1297C109.065 28.5203 109.217 28.7272 109.575 28.7272H112.243C112.693 28.7272 112.911 28.5436 113.022 27.8384L114.666 17.3701C114.749 16.8443 114.622 16.5867 114.229 16.5867H111.298C111.034 16.5867 110.905 16.7366 110.836 17.1462L110.728 17.7902C110.672 18.1259 110.52 18.1851 110.378 17.8472C109.881 16.6522 108.611 16.1159 106.84 16.1581C102.725 16.2447 99.9506 19.4139 99.653 23.4762C99.424 26.618 101.643 29.0862 104.569 29.0862C106.692 29.0862 107.641 28.4528 108.711 27.4604L108.699 27.4541ZM106.465 25.8431C104.694 25.8431 103.46 24.4094 103.716 22.6528C103.972 20.8961 105.629 19.4624 107.4 19.4624C109.171 19.4624 110.405 20.8961 110.149 22.6528C109.893 24.4094 108.237 25.8431 106.465 25.8431ZM118.773 28.7441H115.692C115.639 28.7466 115.585 28.737 115.536 28.716C115.486 28.6951 115.442 28.6633 115.406 28.6229C115.37 28.5826 115.343 28.5347 115.327 28.4827C115.312 28.4306 115.308 28.3757 115.315 28.3219L118.021 10.9324C118.047 10.8137 118.112 10.7074 118.205 10.6307C118.298 10.5541 118.413 10.5116 118.533 10.5101H121.614C121.667 10.5077 121.721 10.5173 121.77 10.5383C121.82 10.5592 121.864 10.591 121.9 10.6313C121.936 10.6717 121.963 10.7196 121.978 10.7716C121.994 10.8237 121.998 10.8786 121.99 10.9324L119.285 28.3219C119.26 28.4413 119.195 28.5486 119.102 28.6261C119.009 28.7036 118.893 28.7467 118.773 28.7484V28.7441Z" fill="#009EE3"/>
<path fill-rule="evenodd" clip-rule="evenodd" d="M9.25307 4H17.3247C19.5976 4 22.295 4.0739 24.0975 5.68912C25.3026 6.76804 25.9354 8.4846 25.7897 10.3342C25.2943 16.586 21.6082 20.0888 16.6628 20.0888H12.6832C12.0047 20.0888 11.5572 20.5449 11.3657 21.7779L10.2542 28.9567C10.1814 29.4212 9.98363 29.6957 9.6298 29.7294H4.64904C4.09748 29.7294 3.90182 29.3072 4.04544 28.3739L7.62542 5.36396C7.76904 4.43917 8.27065 4 9.25307 4Z" fill="#113984"/>
<path fill-rule="evenodd" clip-rule="evenodd" d="M11.4844 21.0497L12.8935 11.9982C13.0163 11.2043 13.445 10.8242 14.2984 10.8242H22.3617C23.6959 10.8242 24.7761 11.0354 25.6212 11.426C24.8115 16.9916 21.2627 20.0827 16.6171 20.0827H12.6437C12.1109 20.0848 11.7196 20.3551 11.4844 21.0497Z" fill="#172C70"/>
</g>
<defs>
<clipPath id="clip0_26615_17538">
<rect width="118" height="29" fill="white" transform="translate(4 4)"/>
</clipPath>
</defs>
</svg>
