<svg width="40" height="40" viewBox="0 0 40 40" fill="none" xmlns="http://www.w3.org/2000/svg">
<rect x="4" y="4" width="32" height="32" rx="8" fill="#DDECF0"/>
<path d="M20.6609 10.5181L20.6309 10.5881L17.7309 17.3181H14.8809C14.2009 17.3181 13.5509 17.4581 12.9609 17.7081L14.7109 13.5281L14.7509 13.4281L14.8209 13.2681C14.8409 13.2081 14.8609 13.1481 14.8909 13.0981C16.2009 10.0681 17.6809 9.37814 20.6609 10.5181Z" stroke="#136077" stroke-width="1.5" stroke-linecap="round" stroke-linejoin="round"/>
<path d="M26.0544 17.5176C25.6044 17.3776 25.1244 17.3176 24.6444 17.3176H17.7344L20.6344 10.5876L20.6644 10.5176C20.8144 10.5676 20.9544 10.6376 21.1044 10.6976L23.3144 11.6276C24.5444 12.1376 25.4044 12.6676 25.9244 13.3076C26.0244 13.4276 26.1044 13.5376 26.1744 13.6676C26.2644 13.8076 26.3344 13.9476 26.3744 14.0976C26.4144 14.1876 26.4444 14.2776 26.4644 14.3576C26.7344 15.1976 26.5744 16.2276 26.0544 17.5176Z" stroke="#136077" stroke-width="1.5" stroke-linecap="round" stroke-linejoin="round"/>
<path d="M29.5256 22.1984V24.1484C29.5256 24.3484 29.5156 24.5484 29.5056 24.7484C29.3156 28.2384 27.3656 29.9984 23.6656 29.9984H15.8656C15.6256 29.9984 15.3856 29.9784 15.1556 29.9484C11.9756 29.7384 10.2756 28.0384 10.0656 24.8584C10.0356 24.6284 10.0156 24.3884 10.0156 24.1484V22.1984C10.0156 20.1884 11.2356 18.4584 12.9756 17.7084C13.5756 17.4584 14.2156 17.3184 14.8956 17.3184H24.6556C25.1456 17.3184 25.6256 17.3884 26.0656 17.5184C28.0556 18.1284 29.5256 19.9884 29.5256 22.1984Z" stroke="#136077" stroke-width="1.5" stroke-linecap="round" stroke-linejoin="round"/>
<path d="M14.71 13.5273L12.96 17.7073C11.22 18.4573 10 20.1873 10 22.1973V19.2673C10 16.4273 12.02 14.0573 14.71 13.5273Z" stroke="#136077" stroke-width="1.5" stroke-linecap="round" stroke-linejoin="round"/>
<path d="M29.5225 19.2677V22.1977C29.5225 19.9977 28.0625 18.1277 26.0625 17.5277C26.5825 16.2277 26.7325 15.2077 26.4825 14.3577C26.4625 14.2677 26.4325 14.1777 26.3925 14.0977C28.2525 15.0577 29.5225 17.0277 29.5225 19.2677Z" stroke="#136077" stroke-width="1.5" stroke-linecap="round" stroke-linejoin="round"/>
</svg>
