<svg width="56" height="56" viewBox="0 0 56 56" fill="none" xmlns="http://www.w3.org/2000/svg">
<rect x="4" y="4" width="48" height="48" rx="24" fill="#FEE4E2"/>
<rect x="4" y="4" width="48" height="48" rx="24" stroke="#FEF3F2" stroke-width="8"/>
<path d="M26.2888 19.8602L17.8188 34.0002C17.6442 34.3026 17.5518 34.6455 17.5508 34.9947C17.5498 35.3439 17.6403 35.6873 17.8132 35.9907C17.9862 36.2941 18.2355 36.547 18.5365 36.7241C18.8375 36.9012 19.1796 36.9964 19.5288 37.0002H36.4688C36.818 36.9964 37.1601 36.9012 37.4611 36.7241C37.7621 36.547 38.0114 36.2941 38.1844 35.9907C38.3573 35.6873 38.4478 35.3439 38.4468 34.9947C38.4458 34.6455 38.3534 34.3026 38.1788 34.0002L29.7088 19.8602C29.5305 19.5663 29.2795 19.3233 28.98 19.1547C28.6805 18.9861 28.3425 18.8975 27.9988 18.8975C27.6551 18.8975 27.3171 18.9861 27.0176 19.1547C26.7181 19.3233 26.4671 19.5663 26.2888 19.8602V19.8602Z" stroke="#E11900" stroke-width="2" stroke-linecap="round" stroke-linejoin="round"/>
<path d="M28 25V29" stroke="#E11900" stroke-width="2" stroke-linecap="round" stroke-linejoin="round"/>
<path d="M28 33H28.01" stroke="#E11900" stroke-width="2" stroke-linecap="round" stroke-linejoin="round"/>
</svg>
