
<svg width="23" height="23" viewBox="0 0 23 23" fill="none" xmlns="http://www.w3.org/2000/svg">
<g clip-path="url(#clip0_23143_40066)">
<path d="M22.1747 11.5991C22.1747 5.71301 17.4031 0.941406 11.517 0.941406C5.63098 0.941406 0.859375 5.71301 0.859375 11.5991C0.859375 17.4851 5.63098 22.2568 11.517 22.2568C17.4031 22.2568 22.1747 17.4851 22.1747 11.5991Z" fill="#1778F2"/>
<path d="M12.3642 17.615V11.9101H14.2792L14.5663 9.68675H12.3642V8.26724C12.3642 7.62358 12.543 7.18491 13.4661 7.18491H14.6434V5.19695C14.0736 5.13666 13.5009 5.10746 12.9278 5.10947C11.2303 5.10947 10.0683 6.14554 10.0683 8.04835V9.68675H8.14844V11.9101H10.0683V17.615H12.3642Z" fill="#FDFDFD"/>
</g>
<defs>
<clipPath id="clip0_23143_40066">
<rect width="21.3153" height="21.3153" fill="white" transform="translate(0.859375 0.941406)"/>
</clipPath>
</defs>
</svg>
