
<svg width="22" height="23" viewBox="0 0 22 23" fill="none" xmlns="http://www.w3.org/2000/svg">
<g clip-path="url(#clip0_23143_40073)">
<mask id="mask0_23143_40073" style="mask-type:luminance" maskUnits="userSpaceOnUse" x="0" y="0" width="22" height="23">
<path d="M10.6577 22.2568C16.5437 22.2568 21.3153 17.4851 21.3153 11.5991C21.3153 5.71301 16.5437 0.941406 10.6577 0.941406C4.7716 0.941406 0 5.71301 0 11.5991C0 17.4851 4.7716 22.2568 10.6577 22.2568Z" fill="white"/>
</mask>
<g mask="url(#mask0_23143_40073)">
<path d="M4.57703 44.072C17.2229 44.072 27.4744 33.8205 27.4744 21.1747C27.4744 8.52883 17.2229 -1.72266 4.57703 -1.72266C-8.06882 -1.72266 -18.3203 8.52883 -18.3203 21.1747C-18.3203 33.8205 -8.06882 44.072 4.57703 44.072Z" fill="url(#paint0_radial_23143_40073)"/>
</g>
<path d="M13.6529 9.43479C14.1128 9.43479 14.4856 9.06201 14.4856 8.60216C14.4856 8.14231 14.1128 7.76953 13.6529 7.76953C13.1931 7.76953 12.8203 8.14231 12.8203 8.60216C12.8203 9.06201 13.1931 9.43479 13.6529 9.43479Z" fill="white"/>
<path d="M10.6566 8.9375C10.1296 8.9375 9.6145 9.09377 9.17634 9.38654C8.73817 9.67931 8.39667 10.0954 8.19501 10.5823C7.99334 11.0691 7.94058 11.6049 8.04338 12.1217C8.14619 12.6386 8.39995 13.1133 8.77258 13.4859C9.1452 13.8586 9.61996 14.1123 10.1368 14.2151C10.6537 14.3179 11.1894 14.2652 11.6762 14.0635C12.1631 13.8619 12.5792 13.5203 12.872 13.0822C13.1648 12.644 13.321 12.1289 13.321 11.6019C13.321 10.8953 13.0403 10.2176 12.5406 9.71789C12.041 9.21821 11.3633 8.9375 10.6566 8.9375ZM10.6566 12.9341C10.3931 12.9341 10.1356 12.856 9.91647 12.7096C9.69739 12.5632 9.52664 12.3552 9.42581 12.1117C9.32497 11.8683 9.29859 11.6004 9.35 11.342C9.4014 11.0836 9.52828 10.8462 9.71459 10.6599C9.90091 10.4736 10.1383 10.3467 10.3967 10.2953C10.6551 10.2439 10.923 10.2703 11.1664 10.3711C11.4099 10.4719 11.6179 10.6427 11.7643 10.8618C11.9107 11.0809 11.9888 11.3384 11.9888 11.6019C11.9888 11.9552 11.8485 12.2941 11.5986 12.5439C11.3488 12.7938 11.0099 12.9341 10.6566 12.9341Z" fill="white"/>
<path fill-rule="evenodd" clip-rule="evenodd" d="M7.32814 6.87059C6.55768 6.87059 5.93309 7.49518 5.93309 8.26564V14.9267C5.93309 15.6971 6.55768 16.3217 7.32814 16.3217H13.9892C14.7596 16.3217 15.3842 15.6971 15.3842 14.9267V8.26564C15.3842 7.49518 14.7596 6.87059 13.9892 6.87059H7.32814ZM4.72656 8.26564C4.72656 6.82883 5.89133 5.66406 7.32814 5.66406H13.9892C15.426 5.66406 16.5908 6.82883 16.5908 8.26564V14.9267C16.5908 16.3635 15.426 17.5283 13.9892 17.5283H7.32814C5.89133 17.5283 4.72656 16.3635 4.72656 14.9267V8.26564Z" fill="white"/>
</g>
<defs>
<radialGradient id="paint0_radial_23143_40073" cx="0" cy="0" r="1" gradientUnits="userSpaceOnUse" gradientTransform="translate(4.57703 21.1747) scale(22.8973)">
<stop stop-color="#FFD676"/>
<stop offset="0.25" stop-color="#F2A454"/>
<stop offset="0.38" stop-color="#F05C3C"/>
<stop offset="0.7" stop-color="#C22F86"/>
<stop offset="0.96" stop-color="#6666AD"/>
<stop offset="0.99" stop-color="#5C6CB2"/>
</radialGradient>
<clipPath id="clip0_23143_40073">
<rect width="21.3153" height="21.3153" fill="white" transform="translate(0 0.941406)"/>
</clipPath>
</defs>
</svg>
