<svg width="80" height="80" viewBox="0 0 80 80" fill="none" xmlns="http://www.w3.org/2000/svg" role="img" aria-label="WhatsApp">
  <circle cx="40" cy="40" r="40" fill="#0DC143"/>
  <g transform="translate(16,16) scale(3.6923076923076925)">
    <path d="M10.8646 1.80688C9.72198 0.630671 8.14256 -0.0078125 6.52948 -0.0078125C3.10175 -0.0078125 0.346116 2.78143 0.379732 6.17555C0.379732 7.25091 0.682188 8.29269 1.18625 9.23363L0.3125 12.4261L3.57224 11.586C4.47956 12.0901 5.48773 12.3253 6.49586 12.3253C9.89002 12.3253 12.6456 9.53609 12.6456 6.14193C12.6456 4.49528 12.0072 2.94947 10.8646 1.80688ZM6.52948 11.2835C5.62215 11.2835 4.71478 11.0483 3.94188 10.5778L3.74023 10.477L1.79116 10.9811L2.29523 9.0656L2.16081 8.86399C0.682188 6.478 1.38786 3.31911 3.80746 1.84049C6.22702 0.361844 9.35234 1.06755 10.831 3.48715C12.3096 5.90671 11.6039 9.03203 9.1843 10.5106C8.4114 11.0147 7.47041 11.2835 6.52948 11.2835ZM9.48676 7.55336L9.11711 7.38533C9.11711 7.38533 8.57939 7.1501 8.24336 6.98207C8.20975 6.98207 8.17613 6.94849 8.14256 6.94849C8.04171 6.94849 7.97452 6.98207 7.90729 7.01568C7.90729 7.01568 7.87372 7.0493 7.40323 7.58698C7.36961 7.65421 7.30242 7.68778 7.23519 7.68778H7.20157C7.168 7.68778 7.10077 7.65421 7.06715 7.62059L6.89916 7.55336C6.52947 7.38533 6.19345 7.18372 5.92461 6.91488C5.85738 6.84765 5.75657 6.78046 5.68934 6.71323C5.45412 6.478 5.21889 6.20916 5.05086 5.90671L5.01724 5.83952C4.98362 5.8059 4.98362 5.77229 4.95005 5.7051C4.95005 5.63787 4.95005 5.57068 4.98362 5.53706C4.98362 5.53706 5.11804 5.36903 5.21889 5.26822C5.28608 5.20099 5.3197 5.10019 5.38693 5.033C5.45412 4.93215 5.48773 4.79773 5.45412 4.69693C5.4205 4.52889 5.01724 3.62157 4.91644 3.41992C4.8492 3.31911 4.78202 3.2855 4.68121 3.25188H4.58036C4.51318 3.25188 4.41237 3.25188 4.31152 3.25188C4.24434 3.25188 4.1771 3.2855 4.10992 3.2855L4.0763 3.31911C4.00907 3.35273 3.94188 3.41992 3.87465 3.45353C3.80746 3.52072 3.77385 3.58795 3.70666 3.65514C3.47139 3.9576 3.33697 4.32728 3.33697 4.69693C3.33697 4.96577 3.4042 5.23461 3.50501 5.46983L3.53862 5.57068C3.84108 6.20916 4.24434 6.78046 4.78202 7.28452L4.91644 7.41894C5.01724 7.51979 5.11804 7.58698 5.18528 7.68778C5.89099 8.29269 6.69751 8.72957 7.60483 8.96479C7.70568 8.99841 7.8401 8.99841 7.94091 9.03203C8.04171 9.03203 8.17613 9.03203 8.27698 9.03203C8.44497 9.03203 8.64662 8.96479 8.78104 8.8976C8.88185 8.83037 8.94908 8.83037 9.01626 8.76319L9.0835 8.69595C9.15068 8.62872 9.21792 8.59515 9.2851 8.52792C9.35234 8.46073 9.41953 8.3935 9.45314 8.32631C9.52037 8.19189 9.55394 8.02385 9.58756 7.85582C9.58756 7.78863 9.58756 7.68778 9.58756 7.62059C9.58756 7.62059 9.55394 7.58698 9.48676 7.55336Z" fill="white"/>
  </g>
</svg>