<svg width="23" height="24" viewBox="0 0 23 24" fill="none" xmlns="http://www.w3.org/2000/svg">
<g clip-path="url(#clip0_23143_40107)">
<path d="M11.3411 23.0611C17.4493 23.0611 22.4009 18.1094 22.4009 12.0013C22.4009 5.89307 17.4493 0.941406 11.3411 0.941406C5.23291 0.941406 0.28125 5.89307 0.28125 12.0013C0.28125 18.1094 5.23291 23.0611 11.3411 23.0611Z" fill="#2DAAE1"/>
<path d="M18.4328 7.60193C17.9111 7.83342 17.3508 7.98991 16.7617 8.06025C17.363 7.70021 17.8236 7.12968 18.041 6.45065C17.4699 6.78988 16.8448 7.02869 16.193 7.15672C15.6626 6.5913 14.9061 6.23828 14.0693 6.23828C12.4629 6.23828 11.1602 7.54049 11.1602 9.14775C11.1602 9.37549 11.1859 9.59766 11.2352 9.81097C8.81706 9.68944 6.67325 8.53114 5.23829 6.77111C4.98772 7.20096 4.8443 7.70073 4.8443 8.23397C4.8443 9.24326 5.35801 10.1338 6.13859 10.6554C5.6765 10.6411 5.22455 10.5163 4.82053 10.2916V10.3284C4.82053 11.7382 5.82328 12.9137 7.15436 13.1811C6.90985 13.2481 6.65324 13.2831 6.38776 13.2831C6.20006 13.2831 6.01796 13.2653 5.84006 13.2319C6.21031 14.3874 7.28483 15.2285 8.55763 15.2523C7.56187 16.0328 6.30717 16.4981 4.94442 16.4981C4.70971 16.4981 4.47773 16.4841 4.25 16.4567C5.53779 17.2824 7.06682 17.7645 8.70995 17.7645C14.0613 17.7645 16.9881 13.3311 16.9881 9.48638C16.9881 9.36016 16.9853 9.23488 16.9792 9.11005C17.5494 8.69761 18.0416 8.18693 18.4328 7.60193Z" fill="white"/>
</g>
<defs>
<clipPath id="clip0_23143_40107">
<rect width="22.1197" height="22.1197" fill="white" transform="translate(0.28125 0.941406)"/>
</clipPath>
</defs>
</svg>
