<svg width="24" height="25" viewBox="0 0 24 25" fill="none" xmlns="http://www.w3.org/2000/svg">
<path d="M8.00307 13.7935C8.09932 13.1998 8.20119 12.5685 8.30432 11.9379C8.41932 11.2379 8.53432 10.5373 8.65244 9.83791C8.68807 9.62666 8.61744 9.46541 8.46744 9.31354C7.57432 8.40666 6.68744 7.49354 5.79932 6.58229C5.70182 6.48229 5.58557 6.38541 5.63807 6.22041C5.69307 6.04729 5.84244 6.03291 5.99432 6.00979C7.22057 5.82604 8.44557 5.63604 9.67182 5.45229C9.89369 5.41916 10.0312 5.30604 10.1268 5.10104C10.6531 3.96854 11.1881 2.83979 11.7206 1.71041C11.7537 1.63979 11.7856 1.56791 11.8237 1.50041C11.9512 1.27416 12.1418 1.26916 12.2656 1.49479C12.3443 1.63791 12.4062 1.79041 12.4762 1.93854C12.9762 2.99729 13.4799 4.05416 13.9743 5.11604C14.0712 5.32416 14.2199 5.42104 14.4387 5.45416C15.6649 5.63791 16.8899 5.82729 18.1156 6.01104C18.2606 6.03291 18.3981 6.05354 18.4531 6.21354C18.5062 6.36666 18.4093 6.46479 18.3156 6.56104C17.6387 7.25291 16.9599 7.94416 16.2831 8.63604C16.0537 8.87041 15.8324 9.11291 15.5974 9.34104C15.4468 9.48791 15.4106 9.65604 15.4437 9.85354C15.6537 11.1229 15.8618 12.3929 16.0706 13.6623C16.0793 13.716 16.0881 13.7704 16.0906 13.8248C16.1043 14.1254 15.9462 14.2329 15.6799 14.091C15.1499 13.8079 14.6249 13.5148 14.0981 13.2254C13.5443 12.9204 12.9837 12.6267 12.4399 12.3048C12.1656 12.1423 11.9374 12.1448 11.6593 12.3023C10.6549 12.8729 9.63807 13.4223 8.62619 13.9798C8.55119 14.021 8.47619 14.0635 8.39869 14.1004C8.14244 14.2223 7.99244 14.1204 8.00307 13.7935Z" fill="#FE7C04"/>
<path d="M12.0451 23.7661C10.1476 23.7661 8.25012 23.7661 6.35199 23.7661C6.03137 23.7661 6.03074 23.7648 6.03074 23.4423C6.03012 22.1148 6.03012 20.7873 6.03074 19.4598C6.03074 19.0736 6.18199 18.9155 6.56637 18.9155C10.2214 18.9136 13.8757 18.9136 17.5307 18.9155C17.912 18.9155 18.0626 19.0761 18.0632 19.4636C18.0639 20.7992 18.0582 22.1342 18.0689 23.4698C18.0707 23.7111 17.9939 23.7723 17.7614 23.7711C15.8557 23.763 13.9507 23.7661 12.0451 23.7661ZM12.0476 22.9086C13.1014 22.9086 14.1551 22.9123 15.2089 22.9067C15.7226 22.9042 16.0157 22.5992 16.0182 22.0836C16.0207 21.5842 16.022 21.0842 16.0176 20.5848C16.0132 20.0973 15.697 19.7792 15.2076 19.7786C13.1001 19.7755 10.9926 19.7755 8.88512 19.7786C8.39637 19.7792 8.08137 20.098 8.07637 20.5861C8.07199 21.0623 8.07449 21.5386 8.07512 22.0142C8.07637 22.6248 8.35137 22.9061 8.95637 22.908C9.98699 22.9111 11.017 22.9092 12.0476 22.9086Z" fill="#FE7C04"/>
<path d="M12.0469 16.5827C11.2819 16.5827 10.5169 16.584 9.75195 16.5809C9.67132 16.5809 9.56132 16.6215 9.51757 16.5284C9.47945 16.4477 9.57507 16.3934 9.62007 16.334C10.1569 15.634 10.5119 14.8515 10.6732 13.9852C10.7151 13.7584 10.8051 13.6096 11.0207 13.509C11.3169 13.3709 11.5994 13.2021 11.8838 13.0384C11.9982 12.9721 12.0957 12.9715 12.2107 13.0371C12.5432 13.2265 12.8794 13.4084 13.2157 13.5909C13.3026 13.6384 13.3607 13.6965 13.3788 13.8021C13.5444 14.7671 13.9257 15.6371 14.5326 16.4071C14.5607 16.4427 14.6063 16.4815 14.5801 16.5296C14.5388 16.6071 14.4557 16.5815 14.3901 16.5815C13.6082 16.5834 12.8276 16.5827 12.0469 16.5827Z" fill="#FE7C04"/>
<path d="M12.0492 18.1798C10.8398 18.1798 9.6298 18.1836 8.42042 18.1748C8.27042 18.1736 8.03417 18.2886 8.01105 17.9804C7.9823 17.5967 8.12042 17.3642 8.41542 17.3229C8.46917 17.3154 8.52417 17.3167 8.57917 17.3167C10.8892 17.3167 13.1992 17.3161 15.5092 17.3167C15.9523 17.3167 16.181 17.6167 16.0779 18.0454C16.0404 18.1998 15.9248 18.1779 15.8192 18.1786C15.0854 18.1804 14.3523 18.1798 13.6185 18.1798C13.0948 18.1798 12.5723 18.1798 12.0492 18.1798Z" fill="#FE7C04"/>
<path d="M12.026 22.1704C11.0579 22.1704 10.0898 22.171 9.12103 22.1704C8.81728 22.1704 8.81103 22.1642 8.80978 21.851C8.80853 21.5073 8.8079 21.1642 8.80978 20.8204C8.81165 20.5335 8.83165 20.5117 9.1154 20.5117C10.4973 20.5104 11.8798 20.511 13.2617 20.511C13.8398 20.511 14.4173 20.5173 14.9954 20.5079C15.2054 20.5048 15.2923 20.5767 15.286 20.7923C15.2754 21.1667 15.2767 21.5417 15.2854 21.9167C15.2898 22.1092 15.216 22.1754 15.0235 22.1742C14.0248 22.1667 13.0254 22.1704 12.026 22.1704Z" fill="#FE7C04"/>
</svg>
