<svg width="24" height="24" viewBox="0 0 24 24" fill="none" xmlns="http://www.w3.org/2000/svg">
<rect width="24" height="24" fill="#EAEAEA"/>
<g id="legalizaciones">
<rect width="1440" height="1371" transform="translate(-317 -300)" fill="#F6F7FB"/>
<g id="body">
<rect x="-40" y="-188" width="1147" height="1235" rx="16" fill="white"/>
<g id="Frame 1686561073" clip-path="url(#clip0_24776_229637)">
<rect width="1115" height="1203" transform="translate(-24 -172)" fill="white"/>
<g id="Frame 1686561816">
<g id="Frame 1686561362">
<mask id="path-2-inside-1_24776_229637" fill="white">
<path d="M0 -4H1067V36H0V-4Z"/>
</mask>
<path d="M1067 36V35H0V36V37H1067V36Z" fill="#CDCED0" mask="url(#path-2-inside-1_24776_229637)"/>
<g id="box">
<g id="vuesax/linear/box">
<g id="box_2">
<g id="Group">
<g id="Group_2">
<path id="Vector" d="M3.16992 7.43994L11.9999 12.5499L20.7699 7.46991" stroke="#19809E" stroke-width="1.5" stroke-linecap="round" stroke-linejoin="round"/>
<path id="Vector_2" d="M12 21.6099V12.5399" stroke="#19809E" stroke-width="1.5" stroke-linecap="round" stroke-linejoin="round"/>
</g>
<path id="Vector_3" d="M9.92963 2.48L4.58963 5.45003C3.37963 6.12003 2.38965 7.80001 2.38965 9.18001V14.83C2.38965 16.21 3.37963 17.89 4.58963 18.56L9.92963 21.53C11.0696 22.16 12.9396 22.16 14.0796 21.53L19.4196 18.56C20.6296 17.89 21.6196 16.21 21.6196 14.83V9.18001C21.6196 7.80001 20.6296 6.12003 19.4196 5.45003L14.0796 2.48C12.9296 1.84 11.0696 1.84 9.92963 2.48Z" stroke="#19809E" stroke-width="1.5" stroke-linecap="round" stroke-linejoin="round"/>
</g>
<path id="Vector_4" d="M16.9998 13.24V9.58002L7.50977 4.09998" stroke="#19809E" stroke-width="1.5" stroke-linecap="round" stroke-linejoin="round"/>
</g>
</g>
</g>
</g>
</g>
</g>
</g>
</g>
<defs>
<clipPath id="clip0_24776_229637">
<rect width="1115" height="1203" fill="white" transform="translate(-24 -172)"/>
</clipPath>
</defs>
</svg>
