<svg width="41" height="40" viewBox="0 0 41 40" fill="none" xmlns="http://www.w3.org/2000/svg">
<path d="M7.16667 25C6.25 25 5.5 25.75 5.5 26.6667V31.6667C5.5 33.5 7 35 8.83333 35H13.8333C14.75 35 15.5 34.25 15.5 33.3333C15.5 32.4167 14.75 31.6667 13.8333 31.6667H10.5C9.58333 31.6667 8.83333 30.9167 8.83333 30V26.6667C8.83333 25.75 8.08333 25 7.16667 25ZM8.83333 10C8.83333 9.08333 9.58333 8.33333 10.5 8.33333H13.8333C14.75 8.33333 15.5 7.58333 15.5 6.66667C15.5 5.75 14.75 5 13.8333 5H8.83333C7 5 5.5 6.5 5.5 8.33333V13.3333C5.5 14.25 6.25 15 7.16667 15C8.08333 15 8.83333 14.25 8.83333 13.3333V10ZM32.1667 5H27.1667C26.25 5 25.5 5.75 25.5 6.66667C25.5 7.58333 26.25 8.33333 27.1667 8.33333H30.5C31.4167 8.33333 32.1667 9.08333 32.1667 10V13.3333C32.1667 14.25 32.9167 15 33.8333 15C34.75 15 35.5 14.25 35.5 13.3333V8.33333C35.5 6.5 34 5 32.1667 5ZM32.1667 30C32.1667 30.9167 31.4167 31.6667 30.5 31.6667H27.1667C26.25 31.6667 25.5 32.4167 25.5 33.3333C25.5 34.25 26.25 35 27.1667 35H32.1667C34 35 35.5 33.5 35.5 31.6667V26.6667C35.5 25.75 34.75 25 33.8333 25C32.9167 25 32.1667 25.75 32.1667 26.6667V30ZM20.5 13.3333C16.8167 13.3333 13.8333 16.3167 13.8333 20C13.8333 23.6833 16.8167 26.6667 20.5 26.6667C24.1833 26.6667 27.1667 23.6833 27.1667 20C27.1667 16.3167 24.1833 13.3333 20.5 13.3333ZM20.5 23.3333C18.6667 23.3333 17.1667 21.8333 17.1667 20C17.1667 18.1667 18.6667 16.6667 20.5 16.6667C22.3333 16.6667 23.8333 18.1667 23.8333 20C23.8333 21.8333 22.3333 23.3333 20.5 23.3333Z" fill="#FE9200"/>
</svg>
