<svg width="32" height="33" viewBox="0 0 32 33" fill="none" xmlns="http://www.w3.org/2000/svg">
<path d="M28.1908 18.0781V22.6496C28.1908 24.6305 23.4151 27.221 17.5241 27.221C11.633 27.221 6.85742 24.6305 6.85742 22.6496V18.84" stroke="#5F7081" stroke-width="1.8" stroke-linecap="round" stroke-linejoin="round"/>
<path d="M7.30469 19.2358C8.62278 20.9852 12.699 22.6263 17.5234 22.6263C23.4144 22.6263 28.19 20.1791 28.19 18.0762C28.19 16.8953 26.686 15.6015 24.3256 14.6934" stroke="#5F7081" stroke-width="1.8" stroke-linecap="round" stroke-linejoin="round"/>
<path d="M23.6186 10.4609V15.0324C23.6186 17.0133 18.843 19.6038 12.9519 19.6038C7.06087 19.6038 2.28525 17.0133 2.28525 15.0324V10.4609" stroke="#5F7081" stroke-width="1.8" stroke-linecap="round" stroke-linejoin="round"/>
<path fill-rule="evenodd" clip-rule="evenodd" d="M12.9518 15.0071C18.8429 15.0071 23.6185 12.5599 23.6185 10.4571C23.6185 8.35267 18.8429 5.88867 12.9518 5.88867C7.06078 5.88867 2.28516 8.35267 2.28516 10.4571C2.28516 12.5599 7.06078 15.0071 12.9518 15.0071Z" stroke="#5F7081" stroke-width="1.8" stroke-linecap="round" stroke-linejoin="round"/>
</svg>
