<svg width="32" height="33" viewBox="0 0 32 33" fill="none" xmlns="http://www.w3.org/2000/svg">
<path d="M24.6666 17.3672V22.3005C24.6666 26.4605 20.7866 29.8339 15.9999 29.8339C11.2133 29.8339 7.33325 26.4605 7.33325 22.3005V17.3672C7.33325 21.5272 11.2133 24.5005 15.9999 24.5005C20.7866 24.5005 24.6666 21.5272 24.6666 17.3672Z" stroke="#14667E" stroke-width="2" stroke-linecap="round" stroke-linejoin="round"/>
<path d="M24.6666 10.6994C24.6666 11.9127 24.3332 13.0327 23.7466 13.9927C22.3199 16.3393 19.3866 17.8327 15.9999 17.8327C12.6133 17.8327 9.67992 16.3393 8.25326 13.9927C7.66659 13.0327 7.33325 11.9127 7.33325 10.6994C7.33325 8.61935 8.30658 6.73935 9.86658 5.37935C11.4399 4.00602 13.5999 3.16602 15.9999 3.16602C18.3999 3.16602 20.5599 4.00602 22.1333 5.36602C23.6933 6.73935 24.6666 8.61935 24.6666 10.6994Z" stroke="#14667E" stroke-width="2" stroke-linecap="round" stroke-linejoin="round"/>
<path d="M24.6666 10.6994V17.366C24.6666 21.526 20.7866 24.4993 15.9999 24.4993C11.2133 24.4993 7.33325 21.526 7.33325 17.366V10.6994C7.33325 6.53935 11.2133 3.16602 15.9999 3.16602C18.3999 3.16602 20.5599 4.00602 22.1333 5.36602C23.6933 6.73935 24.6666 8.61935 24.6666 10.6994Z" stroke="#14667E" stroke-width="2" stroke-linecap="round" stroke-linejoin="round"/>
</svg>
