<svg width="27" height="18" viewBox="0 0 27 18" fill="none" xmlns="http://www.w3.org/2000/svg">
<path d="M9.51073 11.6667H1.4974C0.764063 11.6667 0.164062 12.2667 0.164062 13C0.164062 13.7334 0.764063 14.3334 1.4974 14.3334H9.51073V16.72C9.51073 17.32 10.2307 17.6134 10.6441 17.1867L14.3507 13.4667C14.6041 13.2 14.6041 12.7867 14.3507 12.52L10.6441 8.80004C10.2307 8.37337 9.51073 8.68004 9.51073 9.26671V11.6667ZM17.4841 8.72004V6.33337H25.4974C26.2307 6.33337 26.8307 5.73337 26.8307 5.00004C26.8307 4.26671 26.2307 3.66671 25.4974 3.66671H17.4841V1.28004C17.4841 0.680041 16.7641 0.386707 16.3507 0.813374L12.6441 4.53337C12.3907 4.80004 12.3907 5.21337 12.6441 5.48004L16.3507 9.20004C16.7641 9.61337 17.4841 9.32004 17.4841 8.72004Z" fill="black" fill-opacity="0.54"/>
</svg>
