<svg width="14" height="14" viewBox="0 0 14 14" fill="none" xmlns="http://www.w3.org/2000/svg">
<path d="M0.749674 2.9987C0.383008 2.9987 0.0830078 3.2987 0.0830078 3.66536V12.332C0.0830078 13.0654 0.683008 13.6654 1.41634 13.6654H10.083C10.4497 13.6654 10.7497 13.3654 10.7497 12.9987C10.7497 12.632 10.4497 12.332 10.083 12.332H2.08301C1.71634 12.332 1.41634 12.032 1.41634 11.6654V3.66536C1.41634 3.2987 1.11634 2.9987 0.749674 2.9987ZM12.083 0.332031H4.08301C3.34967 0.332031 2.74967 0.932031 2.74967 1.66536V9.66537C2.74967 10.3987 3.34967 10.9987 4.08301 10.9987H12.083C12.8163 10.9987 13.4163 10.3987 13.4163 9.66537V1.66536C13.4163 0.932031 12.8163 0.332031 12.083 0.332031ZM10.7497 6.33203H5.41634C5.04967 6.33203 4.74967 6.03203 4.74967 5.66536C4.74967 5.2987 5.04967 4.9987 5.41634 4.9987H10.7497C11.1163 4.9987 11.4163 5.2987 11.4163 5.66536C11.4163 6.03203 11.1163 6.33203 10.7497 6.33203ZM8.08301 8.9987H5.41634C5.04967 8.9987 4.74967 8.6987 4.74967 8.33203C4.74967 7.96536 5.04967 7.66536 5.41634 7.66536H8.08301C8.44967 7.66536 8.74967 7.96536 8.74967 8.33203C8.74967 8.6987 8.44967 8.9987 8.08301 8.9987ZM10.7497 3.66536H5.41634C5.04967 3.66536 4.74967 3.36536 4.74967 2.9987C4.74967 2.63203 5.04967 2.33203 5.41634 2.33203H10.7497C11.1163 2.33203 11.4163 2.63203 11.4163 2.9987C11.4163 3.36536 11.1163 3.66536 10.7497 3.66536Z" fill="#212121"/>
</svg>
