<svg width="25" height="24" viewBox="0 0 25 24" fill="none" xmlns="http://www.w3.org/2000/svg">
<g clip-path="url(#clip0_11581_66474)">
<path d="M12.5 24C19.1274 24 24.5 18.6274 24.5 12C24.5 5.37258 19.1274 0 12.5 0C5.87258 0 0.5 5.37258 0.5 12C0.5 18.6274 5.87258 24 12.5 24Z" fill="#F0F0F0"/>
<path d="M24.502 12.0001C24.502 6.84061 21.2455 2.44205 16.6758 0.746582V23.2538C21.2455 21.5582 24.502 17.1598 24.502 12.0001Z" fill="#D80027"/>
<path d="M0.5 12.0001C0.5 17.1598 3.7565 21.5582 8.32611 23.2538V0.746582C3.7565 2.44205 0.5 6.84061 0.5 12.0001Z" fill="#D80027"/>
</g>
<defs>
<clipPath id="clip0_11581_66474">
<rect width="24" height="24" fill="white" transform="translate(0.5)"/>
</clipPath>
</defs>
</svg>
