<svg width="25" height="24" viewBox="0 0 25 24" fill="none" xmlns="http://www.w3.org/2000/svg">
<path d="M11.5 2H9.5C4.5 2 2.5 4 2.5 9V15C2.5 20 4.5 22 9.5 22H15.5C20.5 22 22.5 20 22.5 15V13" stroke="#19809E" stroke-width="1.5" stroke-linecap="round" stroke-linejoin="round"/>
<path d="M16.5418 3.02025L8.66183 10.9003C8.36183 11.2003 8.06183 11.7903 8.00183 12.2203L7.57183 15.2303C7.41183 16.3203 8.18183 17.0803 9.27183 16.9303L12.2818 16.5003C12.7018 16.4403 13.2918 16.1403 13.6018 15.8403L21.4818 7.96025C22.8418 6.60025 23.4818 5.02025 21.4818 3.02025C19.4818 1.02025 17.9018 1.66025 16.5418 3.02025Z" stroke="#19809E" stroke-width="1.5" stroke-miterlimit="10" stroke-linecap="round" stroke-linejoin="round"/>
<path d="M15.4102 4.15039C16.0802 6.54039 17.9502 8.41039 20.3502 9.09039" stroke="#19809E" stroke-width="1.5" stroke-miterlimit="10" stroke-linecap="round" stroke-linejoin="round"/>
</svg>
