<svg width="48" height="49" viewBox="0 0 48 49" fill="none" xmlns="http://www.w3.org/2000/svg">
<rect y="0.5" width="48" height="48" rx="16" fill="#16A34A" fill-opacity="0.2"/>
<path d="M30.5 25.1499V28.8499C30.5 31.9699 27.59 34.4999 24 34.4999C20.41 34.4999 17.5 31.9699 17.5 28.8499V25.1499C17.5 28.2699 20.41 30.4999 24 30.4999C27.59 30.4999 30.5 28.2699 30.5 25.1499Z" stroke="#18B150" stroke-width="1.5" stroke-linecap="round" stroke-linejoin="round"/>
<path d="M30.5 20.15C30.5 21.06 30.25 21.9 29.81 22.62C28.74 24.38 26.54 25.5 24 25.5C21.46 25.5 19.26 24.38 18.19 22.62C17.75 21.9 17.5 21.06 17.5 20.15C17.5 18.59 18.23 17.18 19.4 16.16C20.58 15.13 22.2 14.5 24 14.5C25.8 14.5 27.42 15.13 28.6 16.15C29.77 17.18 30.5 18.59 30.5 20.15Z" stroke="#18B150" stroke-width="1.5" stroke-linecap="round" stroke-linejoin="round"/>
<path d="M30.5 20.15V25.15C30.5 28.27 27.59 30.5 24 30.5C20.41 30.5 17.5 28.27 17.5 25.15V20.15C17.5 17.03 20.41 14.5 24 14.5C25.8 14.5 27.42 15.13 28.6 16.15C29.77 17.18 30.5 18.59 30.5 20.15Z" stroke="#18B150" stroke-width="1.5" stroke-linecap="round" stroke-linejoin="round"/>
</svg>
