<svg width="49" height="49" viewBox="0 0 49 49" fill="none" xmlns="http://www.w3.org/2000/svg">
<rect x="0.666748" y="0.5" width="48" height="48" rx="16" fill="#1A83D7" fill-opacity="0.2"/>
<path d="M31.1667 25.1499V28.8499C31.1667 31.9699 28.2567 34.4999 24.6667 34.4999C21.0767 34.4999 18.1667 31.9699 18.1667 28.8499V25.1499C18.1667 28.2699 21.0767 30.4999 24.6667 30.4999C28.2567 30.4999 31.1667 28.2699 31.1667 25.1499Z" stroke="#14667E" stroke-width="1.5" stroke-linecap="round" stroke-linejoin="round"/>
<path d="M31.1667 20.15C31.1667 21.06 30.9167 21.9 30.4767 22.62C29.4067 24.38 27.2067 25.5 24.6667 25.5C22.1267 25.5 19.9268 24.38 18.8568 22.62C18.4168 21.9 18.1667 21.06 18.1667 20.15C18.1667 18.59 18.8967 17.18 20.0667 16.16C21.2467 15.13 22.8667 14.5 24.6667 14.5C26.4667 14.5 28.0868 15.13 29.2668 16.15C30.4368 17.18 31.1667 18.59 31.1667 20.15Z" stroke="#14667E" stroke-width="1.5" stroke-linecap="round" stroke-linejoin="round"/>
<path d="M31.1667 20.15V25.15C31.1667 28.27 28.2567 30.5 24.6667 30.5C21.0767 30.5 18.1667 28.27 18.1667 25.15V20.15C18.1667 17.03 21.0767 14.5 24.6667 14.5C26.4667 14.5 28.0868 15.13 29.2668 16.15C30.4368 17.18 31.1667 18.59 31.1667 20.15Z" stroke="#14667E" stroke-width="1.5" stroke-linecap="round" stroke-linejoin="round"/>
</svg>
