<svg width="49" height="49" viewBox="0 0 49 49" fill="none" xmlns="http://www.w3.org/2000/svg">
<rect x="0.333252" y="0.5" width="48" height="48" rx="16" fill="#FE7C04" fill-opacity="0.2"/>
<path d="M14.3333 34.5H34.3333" stroke="#EF6C00" stroke-width="1.5" stroke-miterlimit="10" stroke-linecap="round" stroke-linejoin="round"/>
<path d="M22.0833 16.5V34.5H26.5833V16.5C26.5833 15.4 26.1333 14.5 24.7833 14.5H23.8833C22.5333 14.5 22.0833 15.4 22.0833 16.5Z" stroke="#EF6C00" stroke-width="1.5" stroke-linecap="round" stroke-linejoin="round"/>
<path d="M15.3333 22.5V34.5H19.3333V22.5C19.3333 21.4 18.9333 20.5 17.7333 20.5H16.9333C15.7333 20.5 15.3333 21.4 15.3333 22.5Z" stroke="#EF6C00" stroke-width="1.5" stroke-linecap="round" stroke-linejoin="round"/>
<path d="M29.3333 27.5V34.5H33.3333V27.5C33.3333 26.4 32.9333 25.5 31.7333 25.5H30.9333C29.7333 25.5 29.3333 26.4 29.3333 27.5Z" stroke="#FB8C00" stroke-width="1.5" stroke-linecap="round" stroke-linejoin="round"/>
</svg>
