<svg width="27" height="20" viewBox="0 0 27 20" fill="none" xmlns="http://www.w3.org/2000/svg">
<path d="M19.4974 9.99935C21.3374 9.99935 22.8174 8.50602 22.8174 6.66602C22.8174 4.82602 21.3374 3.33268 19.4974 3.33268C17.6574 3.33268 16.1641 4.82602 16.1641 6.66602C16.1641 8.50602 17.6574 9.99935 19.4974 9.99935ZM9.4974 8.66602C11.7107 8.66602 13.4841 6.87935 13.4841 4.66602C13.4841 2.45268 11.7107 0.666016 9.4974 0.666016C7.28406 0.666016 5.4974 2.45268 5.4974 4.66602C5.4974 6.87935 7.28406 8.66602 9.4974 8.66602ZM19.4974 12.666C17.0574 12.666 12.1641 13.8927 12.1641 16.3327V17.9993C12.1641 18.7327 12.7641 19.3327 13.4974 19.3327H25.4974C26.2307 19.3327 26.8307 18.7327 26.8307 17.9993V16.3327C26.8307 13.8927 21.9374 12.666 19.4974 12.666ZM9.4974 11.3327C6.39073 11.3327 0.164062 12.8927 0.164062 15.9993V17.9993C0.164062 18.7327 0.764063 19.3327 1.4974 19.3327H9.4974V16.3327C9.4974 15.1993 9.9374 13.2127 12.6574 11.706C11.4974 11.466 10.3774 11.3327 9.4974 11.3327Z" fill="black" fill-opacity="0.54"/>
</svg>
