<svg width="36" height="30" viewBox="0 0 36 30" fill="none" xmlns="http://www.w3.org/2000/svg">
<path d="M34.2384 16.9059V22.6202C34.2384 25.0964 28.2689 28.3345 20.905 28.3345C13.5412 28.3345 7.57172 25.0964 7.57172 22.6202V17.8583L8.13171 18.3516C9.77933 20.5382 14.8746 22.5897 20.9051 22.5897C28.2689 22.5897 34.2384 19.5306 34.2384 16.902C34.2384 15.4258 32.3584 13.8087 29.4079 12.6735L28.5242 13.0965M28.5242 7.3822V13.0965M28.5242 13.0965C28.5242 15.5727 22.5547 18.8108 15.1909 18.8108C7.82707 18.8108 1.85754 15.5727 1.85754 13.0965V7.3822M15.1908 13.0661C22.5546 13.0661 28.5241 10.007 28.5241 7.37844C28.5241 4.74797 22.5546 1.66797 15.1908 1.66797C7.82701 1.66797 1.85748 4.74797 1.85748 7.37844C1.85748 10.007 7.82701 13.0661 15.1908 13.0661Z" stroke="#136077" stroke-width="2.25" stroke-linecap="round" stroke-linejoin="round"/>
</svg>
