<svg width="25" height="20" viewBox="0 0 25 20" fill="none" xmlns="http://www.w3.org/2000/svg">
<path d="M1.83333 13.9993H9.83333C10.5667 13.9993 11.1667 13.3993 11.1667 12.666C11.1667 11.9327 10.5667 11.3327 9.83333 11.3327H1.83333C1.1 11.3327 0.5 11.9327 0.5 12.666C0.5 13.3993 1.1 13.9993 1.83333 13.9993ZM1.83333 19.3327H9.83333C10.5667 19.3327 11.1667 18.7327 11.1667 17.9993C11.1667 17.266 10.5667 16.666 9.83333 16.666H1.83333C1.1 16.666 0.5 17.266 0.5 17.9993C0.5 18.7327 1.1 19.3327 1.83333 19.3327ZM1.83333 8.66602H9.83333C10.5667 8.66602 11.1667 8.06602 11.1667 7.33268C11.1667 6.59935 10.5667 5.99935 9.83333 5.99935H1.83333C1.1 5.99935 0.5 6.59935 0.5 7.33268C0.5 8.06602 1.1 8.66602 1.83333 8.66602ZM0.5 1.99935C0.5 2.73268 1.1 3.33268 1.83333 3.33268H9.83333C10.5667 3.33268 11.1667 2.73268 11.1667 1.99935C11.1667 1.26602 10.5667 0.666016 9.83333 0.666016H1.83333C1.1 0.666016 0.5 1.26602 0.5 1.99935ZM15.1667 0.666016H23.1667C23.9 0.666016 24.5 1.26602 24.5 1.99935V17.9993C24.5 18.7327 23.9 19.3327 23.1667 19.3327H15.1667C14.4333 19.3327 13.8333 18.7327 13.8333 17.9993V1.99935C13.8333 1.26602 14.4333 0.666016 15.1667 0.666016Z" fill="black" fill-opacity="0.54"/>
</svg>
