<svg width="24" height="24" viewBox="0 0 24 24" fill="none" xmlns="http://www.w3.org/2000/svg">
<path d="M1.72553 15.6252V16.0111C1.72553 16.8335 2.40912 17.4999 3.25278 17.4999H3.76331C4.60697 17.4999 5.29056 16.8335 5.29056 16.0111V9.74628C5.29056 8.91862 5.28407 8.08992 5.29056 7.26121C5.30354 5.18311 7.0363 3.50145 9.17142 3.50145C11.3065 3.50145 12.9344 5.0819 13.0469 7.07354C13.0469 7.07775 13.0544 7.27808 13.0555 7.31287C13.0653 10.2123 13.0555 13.1117 13.0555 16.0111C13.0555 16.8335 13.7391 17.4999 14.5828 17.4999H15.0933C15.937 17.4999 16.6205 16.8335 16.6205 16.0111V9.36039C16.6205 8.22171 16.6768 7.07564 16.4897 5.94751C15.9272 2.55993 12.7235 0.0801295 9.27093 0.00316301C9.23848 0.00105434 9.20711 0 9.17466 0C5.10452 0 1.76015 3.3201 1.72553 7.26121C1.70066 10.0489 1.72553 12.8376 1.72553 15.6252Z" fill="#F5F2F2"/>
<path d="M9.17155 3.49997C10.1656 3.49997 10.9715 2.71648 10.9715 1.74999C10.9715 0.783495 10.1656 0 9.17155 0C8.17745 0 7.37158 0.783495 7.37158 1.74999C7.37158 2.71648 8.17745 3.49997 9.17155 3.49997Z" fill="white"/>
<path d="M22.2724 8.37485V7.98897C22.2724 7.16658 21.5889 6.50024 20.7453 6.50024H20.2349C19.3913 6.50024 18.7079 7.16658 18.7079 7.98897V14.2538C18.7079 15.0815 18.7143 15.9102 18.7079 16.7389C18.6949 18.817 16.9624 20.4987 14.8276 20.4987C12.6927 20.4987 11.0651 18.9182 10.9527 16.9266C10.9527 16.9223 10.9451 16.722 10.944 16.6872C10.9343 13.7878 10.944 10.8884 10.944 7.98897C10.944 7.16658 10.2605 6.50024 9.41699 6.50024H8.90654C8.06299 6.50024 7.37951 7.16658 7.37951 7.98897V14.6397C7.37951 15.7784 7.32327 16.9245 7.51037 18.0526C8.07489 21.4402 11.2782 23.92 14.7302 23.9969C14.7627 23.999 14.794 24.0001 14.8265 24.0001C18.8949 24.0001 22.2388 20.68 22.2745 16.7389C22.2994 13.9512 22.2745 11.1625 22.2745 8.37485H22.2724Z" fill="white"/>
</svg>
