<svg width="16" height="17" viewBox="0 0 16 17" fill="none" xmlns="http://www.w3.org/2000/svg">
<g clip-path="url(#clip0_152_1463)">
<path d="M15.9846 5.5412C15.9471 4.69106 15.8096 4.1066 15.6127 3.60015C15.4095 3.06257 15.0969 2.58127 14.6874 2.18117C14.2873 1.77484 13.8029 1.45911 13.2715 1.25912C12.7621 1.06218 12.1807 0.9247 11.3306 0.887217C10.4741 0.846559 10.2022 0.837158 8.02988 0.837158C5.85758 0.837158 5.58568 0.846559 4.73236 0.884042C3.88222 0.921525 3.29776 1.05913 2.79143 1.25594C2.25373 1.45911 1.77244 1.77167 1.37233 2.18117C0.966003 2.58127 0.65039 3.06574 0.450278 3.5971C0.25334 4.1066 0.115862 4.68789 0.0783789 5.53803C0.0377216 6.39452 0.0283203 6.66642 0.0283203 8.83872C0.0283203 11.011 0.0377216 11.2829 0.0752045 12.1362C0.112687 12.9864 0.250287 13.5708 0.447225 14.0773C0.65039 14.6149 0.966003 15.0962 1.37233 15.4963C1.77244 15.9026 2.25691 16.2183 2.78826 16.4183C3.29776 16.6153 3.87905 16.7527 4.72931 16.7902C5.58251 16.8278 5.85453 16.8371 8.02683 16.8371C10.1991 16.8371 10.471 16.8278 11.3244 16.7902C12.1745 16.7527 12.759 16.6153 13.2653 16.4183C14.3406 16.0026 15.1907 15.1525 15.6064 14.0773C15.8033 13.5678 15.9409 12.9864 15.9783 12.1362C16.0158 11.2829 16.0252 11.011 16.0252 8.83872C16.0252 6.66642 16.022 6.39452 15.9846 5.5412ZM14.5437 12.0737C14.5093 12.8551 14.378 13.2771 14.2687 13.5584C13.9998 14.2554 13.4466 14.8086 12.7496 15.0775C12.4683 15.1869 12.0432 15.3181 11.2649 15.3524C10.421 15.39 10.1679 15.3993 8.03306 15.3993C5.89824 15.3993 5.64197 15.39 4.8011 15.3524C4.0197 15.3181 3.59774 15.1869 3.31644 15.0775C2.96957 14.9493 2.65383 14.7461 2.39756 14.4804C2.13188 14.221 1.92872 13.9084 1.80052 13.5616C1.69112 13.2803 1.55987 12.8551 1.52556 12.0769C1.48796 11.233 1.47868 10.9798 1.47868 8.84495C1.47868 6.71013 1.48796 6.45386 1.52556 5.61312C1.55987 4.83171 1.69112 4.40976 1.80052 4.12845C1.92872 3.78146 2.13188 3.46585 2.40073 3.20945C2.66006 2.94377 2.97262 2.74061 3.31961 2.61253C3.60092 2.50313 4.02605 2.37188 4.80428 2.33745C5.64819 2.29997 5.90142 2.29057 8.03611 2.29057C10.1741 2.29057 10.4272 2.29997 11.2681 2.33745C12.0495 2.37188 12.4714 2.50313 12.7527 2.61253C13.0996 2.74061 13.4153 2.94377 13.6716 3.20945C13.9373 3.4689 14.1405 3.78146 14.2687 4.12845C14.378 4.40976 14.5093 4.83477 14.5437 5.61312C14.5812 6.45703 14.5906 6.71013 14.5906 8.84495C14.5906 10.9798 14.5812 11.2298 14.5437 12.0737Z" fill="white"/>
<path d="M8.0301 4.72852C5.76098 4.72852 3.91992 6.56945 3.91992 8.83869C3.91992 11.1079 5.76098 12.9489 8.0301 12.9489C10.2993 12.9489 12.1403 11.1079 12.1403 8.83869C12.1403 6.56945 10.2993 4.72852 8.0301 4.72852ZM8.0301 11.5049C6.55801 11.5049 5.36393 10.3109 5.36393 8.83869C5.36393 7.36648 6.55801 6.17252 8.0301 6.17252C9.50231 6.17252 10.6963 7.36648 10.6963 8.83869C10.6963 10.3109 9.50231 11.5049 8.0301 11.5049Z" fill="white"/>
<path d="M13.262 4.56598C13.262 5.09587 12.8323 5.52552 12.3023 5.52552C11.7724 5.52552 11.3428 5.09587 11.3428 4.56598C11.3428 4.03597 11.7724 3.60645 12.3023 3.60645C12.8323 3.60645 13.262 4.03597 13.262 4.56598Z" fill="white"/>
</g>
<defs>
<clipPath id="clip0_152_1463">
<rect width="16" height="16" fill="white" transform="translate(0 0.837158)"/>
</clipPath>
</defs>
</svg>
