<svg width="17" height="16" viewBox="0 0 17 16" fill="none" xmlns="http://www.w3.org/2000/svg">
<path d="M2.49967 4.0026C2.13301 4.0026 1.83301 4.3026 1.83301 4.66927V13.3359C1.83301 14.0693 2.43301 14.6693 3.16634 14.6693H11.833C12.1997 14.6693 12.4997 14.3693 12.4997 14.0026C12.4997 13.6359 12.1997 13.3359 11.833 13.3359H3.83301C3.46634 13.3359 3.16634 13.0359 3.16634 12.6693V4.66927C3.16634 4.3026 2.86634 4.0026 2.49967 4.0026ZM13.833 1.33594H5.83301C5.09967 1.33594 4.49967 1.93594 4.49967 2.66927V10.6693C4.49967 11.4026 5.09967 12.0026 5.83301 12.0026H13.833C14.5663 12.0026 15.1663 11.4026 15.1663 10.6693V2.66927C15.1663 1.93594 14.5663 1.33594 13.833 1.33594ZM12.4997 7.33594H7.16634C6.79967 7.33594 6.49967 7.03594 6.49967 6.66927C6.49967 6.3026 6.79967 6.0026 7.16634 6.0026H12.4997C12.8663 6.0026 13.1663 6.3026 13.1663 6.66927C13.1663 7.03594 12.8663 7.33594 12.4997 7.33594ZM9.83301 10.0026H7.16634C6.79967 10.0026 6.49967 9.7026 6.49967 9.33594C6.49967 8.96927 6.79967 8.66927 7.16634 8.66927H9.83301C10.1997 8.66927 10.4997 8.96927 10.4997 9.33594C10.4997 9.7026 10.1997 10.0026 9.83301 10.0026ZM12.4997 4.66927H7.16634C6.79967 4.66927 6.49967 4.36927 6.49967 4.0026C6.49967 3.63594 6.79967 3.33594 7.16634 3.33594H12.4997C12.8663 3.33594 13.1663 3.63594 13.1663 4.0026C13.1663 4.36927 12.8663 4.66927 12.4997 4.66927Z" fill="#212121"/>
</svg>
