<svg width="16" height="17" viewBox="0 0 16 17" fill="none" xmlns="http://www.w3.org/2000/svg">
<path d="M1.95042 1.72168C2.44861 1.72168 2.8387 1.87874 3.12213 2.19139C3.40556 2.50404 3.5575 2.8985 3.57796 3.37113C3.57796 3.83792 3.41871 4.23166 3.09802 4.55161C2.77734 4.87084 2.33904 5.03082 1.7846 5.03082H1.76487C1.22358 5.03082 0.794777 4.87084 0.475551 4.55161C0.159978 4.23166 0 3.83792 0 3.37113C0 2.8912 0.173857 2.49673 0.524494 2.18627C0.875131 1.87654 1.35141 1.72168 1.95042 1.72168ZM0.209652 6.34132H3.63055V15.9517H0.209652V6.34132ZM16 10.4416V15.9517H12.5798V10.8119C12.5798 10.1581 12.4454 9.63438 12.1781 9.23554C11.9122 8.84034 11.4673 8.64238 10.8391 8.64238C10.3606 8.64238 9.97635 8.76364 9.69 9.00762C9.40291 9.25015 9.19472 9.51824 9.06908 9.81263C9.02817 9.91928 9.0026 10.0369 8.98872 10.1676C8.97557 10.2962 8.96973 10.4357 8.96973 10.5826V15.9524H5.52838C5.54298 14.3263 5.55102 12.8347 5.55102 11.4818V9.77318V8.22088C5.55102 7.74825 5.54591 7.34502 5.53787 7.01045C5.53349 6.67881 5.52838 6.45455 5.52838 6.34132H8.96973V7.70223L8.95074 7.74168H8.96973V7.70223C9.07638 7.53495 9.21299 7.36036 9.37954 7.177C9.54828 6.99438 9.7499 6.82345 9.99534 6.66566C10.2386 6.50933 10.5315 6.38077 10.8749 6.27631C11.2204 6.17331 11.6134 6.12217 12.0612 6.12217C12.6178 6.12217 13.1379 6.20691 13.623 6.37711C14.1066 6.54732 14.5222 6.81395 14.8758 7.17774C15.2271 7.53933 15.5025 7.98931 15.7027 8.52696C15.9021 9.06314 16 9.70159 16 10.4416Z" fill="white"/>
</svg>
