<svg width="25" height="24" viewBox="0 0 25 24" fill="none" xmlns="http://www.w3.org/2000/svg">
<path d="M24.5 2.66667V11.4533L21.4467 8.38667C20.9267 7.86667 20.0733 7.86667 19.5533 8.38667L15.1667 12.7867L10.78 8.4C10.26 7.88 9.42 7.88 8.9 8.4L4.5 12.7867L0.5 8.77333V2.66667C0.5 1.2 1.7 0 3.16667 0H21.8333C23.3 0 24.5 1.2 24.5 2.66667ZM20.5 11.2267L24.5 15.24V21.3333C24.5 22.8 23.3 24 21.8333 24H3.16667C1.7 24 0.5 22.8 0.5 21.3333V12.56L3.55333 15.6133C4.07333 16.1333 4.91333 16.1333 5.43333 15.6133L9.83333 11.2133L14.22 15.6C14.74 16.12 15.58 16.12 16.1 15.6L20.5 11.2267Z" fill="black" fill-opacity="0.54"/>
</svg>