<svg width="33" height="33" viewBox="0 0 33 33" fill="none" xmlns="http://www.w3.org/2000/svg">
<path d="M16.5 19.8874C18.3409 19.8874 19.8333 18.395 19.8333 16.554C19.8333 14.7131 18.3409 13.2207 16.5 13.2207C14.659 13.2207 13.1667 14.7131 13.1667 16.554C13.1667 18.395 14.659 19.8874 16.5 19.8874Z" stroke="#5F7081" stroke-width="2" stroke-miterlimit="10" stroke-linecap="round" stroke-linejoin="round"/>
<path d="M25.1667 13.2207V19.8874" stroke="#5F7081" stroke-width="2" stroke-miterlimit="10" stroke-linecap="round" stroke-linejoin="round"/>
<path d="M12.5 24.554C12.5 25.554 12.22 26.5007 11.7267 27.3007C10.8067 28.8474 9.11334 29.8874 7.16667 29.8874C5.22 29.8874 3.52665 28.8474 2.60665 27.3007C2.11332 26.5007 1.83334 25.554 1.83334 24.554C1.83334 21.6074 4.22 19.2207 7.16667 19.2207C10.1133 19.2207 12.5 21.6074 12.5 24.554Z" stroke="#5F7081" stroke-width="2" stroke-miterlimit="10" stroke-linecap="round" stroke-linejoin="round"/>
<path d="M5.08855 24.5527L6.40853 25.8727L9.24854 23.2461" stroke="#5F7081" stroke-width="2" stroke-linecap="round" stroke-linejoin="round"/>
<path d="M3.16666 20.9553V12.5553C3.16666 7.88867 5.83333 5.88867 9.83333 5.88867H23.1667C27.1667 5.88867 29.8333 7.88867 29.8333 12.5553V20.5553C29.8333 25.222 27.1667 27.222 23.1667 27.222H11.8333" stroke="#5F7081" stroke-width="2" stroke-miterlimit="10" stroke-linecap="round" stroke-linejoin="round"/>
</svg>
