<svg width="32" height="33" viewBox="0 0 32 33" fill="none" xmlns="http://www.w3.org/2000/svg">
<path d="M28.88 14.4207L27.5733 19.994C26.4533 24.8073 24.24 26.754 20.08 26.354C19.4133 26.3007 18.6933 26.1807 17.92 25.994L15.68 25.4607C10.12 24.1407 8.39999 21.394 9.70665 15.8207L11.0133 10.234C11.28 9.10066 11.6 8.114 12 7.30066C13.56 4.07399 16.2133 3.20733 20.6667 4.26066L22.8933 4.78066C28.48 6.08733 30.1867 8.84733 28.88 14.4207Z" stroke="#5F7081" stroke-width="2" stroke-linecap="round" stroke-linejoin="round"/>
<path d="M20.08 26.3541C19.2533 26.9141 18.2133 27.3808 16.9467 27.7941L14.84 28.4874C9.54666 30.1941 6.76 28.7674 5.04 23.4741L3.33333 18.2074C1.62666 12.9141 3.04 10.1141 8.33333 8.40745L10.44 7.71411C10.9867 7.54078 11.5067 7.39411 12 7.30078C11.6 8.11411 11.28 9.10078 11.0133 10.2341L9.70666 15.8208C8.4 21.3941 10.12 24.1408 15.68 25.4608L17.92 25.9941C18.6933 26.1808 19.4133 26.3008 20.08 26.3541Z" stroke="#5F7081" stroke-width="2" stroke-linecap="round" stroke-linejoin="round"/>
<path d="M16.8533 11.873L23.32 13.513" stroke="#5F7081" stroke-width="2" stroke-linecap="round" stroke-linejoin="round"/>
<path d="M15.5467 17.0332L19.4133 18.0199" stroke="#5F7081" stroke-width="2" stroke-linecap="round" stroke-linejoin="round"/>
</svg>
