<svg width="13" height="12" viewBox="0 0 13 12" fill="none" xmlns="http://www.w3.org/2000/svg">
<path d="M11.0026 0H1.66927C0.935938 0 0.335938 0.6 0.335938 1.33333V6C0.335938 6.73333 0.935938 7.33333 1.66927 7.33333H11.0026C11.7359 7.33333 12.3359 6.73333 12.3359 6V1.33333C12.3359 0.6 11.7359 0 11.0026 0ZM11.0026 4H8.90927C8.59594 4 8.34927 4.22 8.2626 4.52C8.0226 5.36 7.23594 6 6.33594 6C5.43594 6 4.64927 5.36 4.40927 4.52C4.3226 4.22 4.07594 4 3.7626 4H1.66927V2C1.66927 1.63333 1.96927 1.33333 2.33594 1.33333H10.3359C10.7026 1.33333 11.0026 1.63333 11.0026 2V4ZM8.91594 8.66667H11.6693C12.0359 8.66667 12.3359 8.96667 12.3359 9.33333V10.6667C12.3359 11.4 11.7359 12 11.0026 12H1.66927C0.935938 12 0.335938 11.4 0.335938 10.6667V9.33333C0.335938 8.96667 0.635938 8.66667 1.0026 8.66667H3.75594C4.06927 8.66667 4.3226 8.89333 4.40927 9.2C4.6426 10.0467 5.41594 10.6667 6.33594 10.6667C7.25594 10.6667 8.02927 10.0467 8.2626 9.2C8.34927 8.89333 8.6026 8.66667 8.91594 8.66667Z" fill="#060606"/>
</svg>
