<svg width="27" height="28" viewBox="0 0 27 28" fill="none" xmlns="http://www.w3.org/2000/svg">
<path d="M13.4974 0.666016C6.1374 0.666016 0.164062 6.63935 0.164062 13.9993C0.164062 21.3594 6.1374 27.3327 13.4974 27.3327C20.8574 27.3327 26.8307 21.3594 26.8307 13.9993C26.8307 6.63935 20.8574 0.666016 13.4974 0.666016ZM18.3107 9.11935C19.7374 9.11935 20.8841 10.266 20.8841 11.6927C20.8841 13.1194 19.7374 14.266 18.3107 14.266C16.8841 14.266 15.7374 13.1194 15.7374 11.6927C15.7241 10.266 16.8841 9.11935 18.3107 9.11935ZM10.3107 7.01268C12.0441 7.01268 13.4574 8.42602 13.4574 10.1593C13.4574 11.8927 12.0441 13.306 10.3107 13.306C8.5774 13.306 7.16406 11.8927 7.16406 10.1593C7.16406 8.41268 8.56406 7.01268 10.3107 7.01268ZM10.3107 19.186V24.186C7.11073 23.186 4.5774 20.7193 3.4574 17.5727C4.8574 16.0793 8.35073 15.3193 10.3107 15.3193C11.0174 15.3193 11.9107 15.426 12.8441 15.6127C10.6574 16.7727 10.3107 18.306 10.3107 19.186ZM13.4974 24.666C13.1374 24.666 12.7907 24.6527 12.4441 24.6127V19.186C12.4441 17.2927 16.3641 16.346 18.3107 16.346C19.7374 16.346 22.2041 16.866 23.4307 17.8793C21.8707 21.8393 18.0174 24.666 13.4974 24.666Z" fill="black" fill-opacity="0.54"/>
</svg>
