<svg width="47" height="47" viewBox="0 0 47 47" fill="none" xmlns="http://www.w3.org/2000/svg">
<circle cx="23.8406" cy="23.4998" r="15.1806" stroke="#4169E1" stroke-opacity="0.24" stroke-width="4.03685"/>
<path d="M15.9755 8.2045C19.2485 6.52167 22.9749 5.93308 26.6072 6.52523C30.2395 7.11738 33.5861 8.85904 36.1551 11.4942C38.7241 14.1295 40.3801 17.5192 40.8797 21.1654C41.3793 24.8116 40.6961 28.5219 38.9306 31.751C37.1651 34.9801 34.4103 37.5577 31.0711 39.1051C27.732 40.6524 23.9846 41.0879 20.3796 40.3474C16.7746 39.607 13.5022 37.7297 11.0432 34.9914C8.58433 32.2532 7.06859 28.7984 6.71879 25.1349L10.7483 24.7501C11.0158 27.5515 12.1748 30.1931 14.055 32.2869C15.9352 34.3807 18.4374 35.8162 21.194 36.3823C23.9505 36.9485 26.816 36.6156 29.3692 35.4324C31.9225 34.2492 34.0289 32.2782 35.3789 29.8091C36.7289 27.34 37.2513 24.5029 36.8693 21.7149C36.4873 18.9269 35.2211 16.3349 33.2567 14.3199C31.2923 12.3049 28.7333 10.9731 25.9559 10.5203C23.1785 10.0675 20.3291 10.5176 17.8264 11.8044L15.9755 8.2045Z" fill="#4169E1"/>
<path d="M17.787 25.6973L19.7491 21.8136V21.7821H17.4716V21.0837H20.6141V21.7978L18.6542 25.6973H17.787ZM22.8839 25.7851C22.513 25.7851 22.1946 25.6913 21.9288 25.5035C21.6644 25.3143 21.4609 25.0417 21.3183 24.6858C21.1771 24.3284 21.1065 23.8981 21.1065 23.395C21.108 22.8919 21.1794 22.4639 21.3205 22.111C21.4632 21.7565 21.6667 21.4862 21.931 21.3C22.1968 21.1138 22.5145 21.0206 22.8839 21.0206C23.2534 21.0206 23.571 21.1138 23.8368 21.3C24.1026 21.4862 24.3061 21.7565 24.4473 22.111C24.59 22.4654 24.6613 22.8934 24.6613 23.395C24.6613 23.8996 24.59 24.3306 24.4473 24.6881C24.3061 25.044 24.1026 25.3158 23.8368 25.5035C23.5725 25.6913 23.2549 25.7851 22.8839 25.7851ZM22.8839 25.08C23.1723 25.08 23.3998 24.9381 23.5665 24.6543C23.7347 24.3689 23.8188 23.9492 23.8188 23.395C23.8188 23.0286 23.7805 22.7207 23.7039 22.4714C23.6273 22.2221 23.5192 22.0344 23.3795 21.9082C23.2398 21.7806 23.0746 21.7167 22.8839 21.7167C22.5971 21.7167 22.3703 21.8594 22.2036 22.1447C22.0369 22.4286 21.9528 22.8453 21.9513 23.395C21.9498 23.7629 21.9866 24.0723 22.0617 24.3231C22.1383 24.5739 22.2464 24.7631 22.3861 24.8908C22.5257 25.0169 22.6917 25.08 22.8839 25.08ZM27.813 24.8322V24.5889C27.813 24.4102 27.8506 24.2458 27.9257 24.0956C28.0023 23.9454 28.1134 23.8245 28.2591 23.7329C28.4048 23.6413 28.5812 23.5955 28.7885 23.5955C29.0017 23.5955 29.1804 23.6413 29.3246 23.7329C29.4688 23.823 29.5777 23.9432 29.6513 24.0933C29.7263 24.2435 29.7639 24.4087 29.7639 24.5889V24.8322C29.7639 25.0109 29.7263 25.1754 29.6513 25.3256C29.5762 25.4757 29.4658 25.5966 29.3201 25.6883C29.1759 25.7799 28.9987 25.8257 28.7885 25.8257C28.5782 25.8257 28.4002 25.7799 28.2546 25.6883C28.1089 25.5966 27.9985 25.4757 27.9234 25.3256C27.8498 25.1754 27.813 25.0109 27.813 24.8322ZM28.401 24.5889V24.8322C28.401 24.9509 28.4295 25.0597 28.4866 25.1589C28.5437 25.258 28.6443 25.3075 28.7885 25.3075C28.9341 25.3075 29.034 25.2587 29.0881 25.1611C29.1436 25.062 29.1714 24.9524 29.1714 24.8322V24.5889C29.1714 24.4688 29.1451 24.3592 29.0926 24.26C29.04 24.1594 28.9386 24.1091 28.7885 24.1091C28.6473 24.1091 28.5474 24.1594 28.4889 24.26C28.4303 24.3592 28.401 24.4688 28.401 24.5889ZM25.468 22.1921V21.9488C25.468 21.7685 25.5063 21.6033 25.5829 21.4532C25.6595 21.303 25.7706 21.1828 25.9163 21.0927C26.0619 21.0011 26.2384 20.9553 26.4456 20.9553C26.6574 20.9553 26.8354 21.0011 26.9795 21.0927C27.1252 21.1828 27.2348 21.303 27.3084 21.4532C27.382 21.6033 27.4188 21.7685 27.4188 21.9488V22.1921C27.4188 22.3723 27.3813 22.5375 27.3062 22.6876C27.2326 22.8363 27.123 22.9557 26.9773 23.0458C26.8316 23.1359 26.6544 23.181 26.4456 23.181C26.2339 23.181 26.0552 23.1359 25.9095 23.0458C25.7653 22.9557 25.6557 22.8356 25.5806 22.6854C25.5055 22.5352 25.468 22.3708 25.468 22.1921ZM26.0604 21.9488V22.1921C26.0604 22.3122 26.0882 22.4218 26.1438 22.5209C26.2009 22.6186 26.3015 22.6674 26.4456 22.6674C26.5898 22.6674 26.6889 22.6186 26.743 22.5209C26.7986 22.4218 26.8264 22.3122 26.8264 22.1921V21.9488C26.8264 21.8286 26.8001 21.719 26.7475 21.6199C26.6949 21.5192 26.5943 21.4689 26.4456 21.4689C26.303 21.4689 26.2031 21.5192 26.146 21.6199C26.089 21.7205 26.0604 21.8301 26.0604 21.9488ZM25.7248 25.6973L28.8966 21.0837H29.4598L26.288 25.6973H25.7248Z" fill="#0E132F"/>
</svg>
