<svg width="81" height="81" viewBox="0 0 81 81" fill="none" xmlns="http://www.w3.org/2000/svg">
<circle cx="40.8391" cy="40.4992" r="26.3234" stroke="#4169E1" stroke-opacity="0.24" stroke-width="7"/>
<path d="M27.202 13.9772C32.8773 11.0591 39.3391 10.0385 45.6376 11.0653C51.9361 12.0921 57.7391 15.1121 62.1938 19.6817C66.6486 24.2512 69.5201 30.1291 70.3864 36.4517C71.2527 42.7742 70.068 49.2079 67.0066 54.8073C63.9451 60.4066 59.1683 64.8763 53.3782 67.5595C47.588 70.2426 41.0899 70.9977 34.8387 69.7137C28.5876 68.4298 22.9131 65.1745 18.6493 60.4263C14.3855 55.6782 11.7572 49.6875 11.1506 43.3348L18.1379 42.6677C18.6017 47.5253 20.6114 52.106 23.8717 55.7366C27.1321 59.3673 31.471 61.8564 36.2509 62.8382C41.0308 63.82 45.9996 63.2426 50.427 61.191C54.8545 59.1393 58.507 55.7216 60.848 51.4401C63.1889 47.1585 64.0947 42.239 63.4323 37.4045C62.7699 32.57 60.5742 28.0754 57.1679 24.5814C53.7616 21.0873 49.3243 18.778 44.5082 17.9929C39.6921 17.2077 34.7512 17.9881 30.4115 20.2194L27.202 13.9772Z" fill="#FF4F79"/>
<path d="M30.3438 44.5L33.7461 37.7656V37.7109H29.7969V36.5H35.2461V37.7383L31.8477 44.5H30.3438ZM39.182 44.6523C38.5388 44.6523 37.9867 44.4896 37.5257 44.1641C37.0674 43.8359 36.7145 43.3633 36.4671 42.7461C36.2224 42.1263 36.1 41.3802 36.1 40.5078C36.1026 39.6354 36.2263 38.8932 36.4711 38.2812C36.7185 37.6667 37.0713 37.1979 37.5296 36.875C37.9906 36.5521 38.5414 36.3906 39.182 36.3906C39.8226 36.3906 40.3734 36.5521 40.8343 36.875C41.2953 37.1979 41.6481 37.6667 41.8929 38.2812C42.1403 38.8958 42.264 39.638 42.264 40.5078C42.264 41.3828 42.1403 42.1302 41.8929 42.75C41.6481 43.3672 41.2953 43.8385 40.8343 44.1641C40.376 44.4896 39.8252 44.6523 39.182 44.6523ZM39.182 43.4297C39.682 43.4297 40.0765 43.1836 40.3656 42.6914C40.6573 42.1966 40.8031 41.4687 40.8031 40.5078C40.8031 39.8724 40.7367 39.3385 40.6039 38.9062C40.4711 38.474 40.2836 38.1484 40.0414 37.9297C39.7992 37.7083 39.5127 37.5977 39.182 37.5977C38.6846 37.5977 38.2914 37.8451 38.0023 38.3398C37.7132 38.832 37.5674 39.5547 37.5648 40.5078C37.5622 41.1458 37.626 41.6823 37.7562 42.1172C37.889 42.5521 38.0765 42.8802 38.3187 43.1016C38.5609 43.3203 38.8487 43.4297 39.182 43.4297ZM47.7292 43V42.5781C47.7292 42.2682 47.7943 41.9831 47.9245 41.7227C48.0573 41.4622 48.2501 41.2526 48.5027 41.0937C48.7553 40.9349 49.0612 40.8555 49.4206 40.8555C49.7904 40.8555 50.1003 40.9349 50.3503 41.0937C50.6003 41.25 50.7891 41.4583 50.9167 41.7188C51.0469 41.9792 51.112 42.2656 51.112 42.5781V43C51.112 43.3099 51.0469 43.5951 50.9167 43.8555C50.7865 44.1159 50.5951 44.3255 50.3425 44.4844C50.0925 44.6432 49.7852 44.7227 49.4206 44.7227C49.056 44.7227 48.7474 44.6432 48.4948 44.4844C48.2422 44.3255 48.0508 44.1159 47.9206 43.8555C47.793 43.5951 47.7292 43.3099 47.7292 43ZM48.7488 42.5781V43C48.7488 43.2057 48.7982 43.3945 48.8972 43.5664C48.9961 43.7383 49.1706 43.8242 49.4206 43.8242C49.6732 43.8242 49.8464 43.7396 49.9402 43.5703C50.0365 43.3984 50.0847 43.2083 50.0847 43V42.5781C50.0847 42.3698 50.0391 42.1797 49.948 42.0078C49.8568 41.8333 49.681 41.7461 49.4206 41.7461C49.1758 41.7461 49.0027 41.8333 48.9011 42.0078C48.7995 42.1797 48.7488 42.3698 48.7488 42.5781ZM43.6628 38.4219V38C43.6628 37.6875 43.7292 37.401 43.862 37.1406C43.9948 36.8802 44.1876 36.6719 44.4402 36.5156C44.6928 36.3568 44.9987 36.2773 45.3581 36.2773C45.7253 36.2773 46.0339 36.3568 46.2839 36.5156C46.5365 36.6719 46.7266 36.8802 46.8542 37.1406C46.9818 37.401 47.0456 37.6875 47.0456 38V38.4219C47.0456 38.7344 46.9805 39.0208 46.8503 39.2812C46.7227 39.5391 46.5326 39.7461 46.28 39.9023C46.0274 40.0586 45.7201 40.1367 45.3581 40.1367C44.9909 40.1367 44.681 40.0586 44.4284 39.9023C44.1784 39.7461 43.9883 39.5378 43.8581 39.2773C43.7279 39.0169 43.6628 38.7318 43.6628 38.4219ZM44.6902 38V38.4219C44.6902 38.6302 44.7383 38.8203 44.8347 38.9922C44.9336 39.1615 45.1081 39.2461 45.3581 39.2461C45.6081 39.2461 45.78 39.1615 45.8737 38.9922C45.9701 38.8203 46.0183 38.6302 46.0183 38.4219V38C46.0183 37.7917 45.9727 37.6016 45.8816 37.4297C45.7904 37.2552 45.6159 37.168 45.3581 37.168C45.1107 37.168 44.9376 37.2552 44.8386 37.4297C44.7396 37.6042 44.6902 37.7943 44.6902 38ZM44.1081 44.5L49.6081 36.5H50.5847L45.0847 44.5H44.1081Z" fill="#0E132F"/>
</svg>
