<svg width="24" height="24" viewBox="0 0 24 24" fill="none" xmlns="http://www.w3.org/2000/svg">
<path d="M17 21H7C3 21 2 20 2 16V8C2 4 3 3 7 3H17C21 3 22 4 22 8V16C22 20 21 21 17 21Z" stroke="#5F7081" stroke-width="1.5" stroke-linecap="round" stroke-linejoin="round"/>
<path d="M14 8H19" stroke="#5F7081" stroke-width="1.5" stroke-linecap="round" stroke-linejoin="round"/>
<path d="M15 12H19" stroke="#5F7081" stroke-width="1.5" stroke-linecap="round" stroke-linejoin="round"/>
<path d="M17 16H19" stroke="#5F7081" stroke-width="1.5" stroke-linecap="round" stroke-linejoin="round"/>
<path d="M8.50043 11.2919C9.50007 11.2919 10.3104 10.4815 10.3104 9.48187C10.3104 8.48224 9.50007 7.67188 8.50043 7.67188C7.50079 7.67188 6.69043 8.48224 6.69043 9.48187C6.69043 10.4815 7.50079 11.2919 8.50043 11.2919Z" stroke="#5F7081" stroke-width="1.5" stroke-linecap="round" stroke-linejoin="round"/>
<path d="M12 16.3278C11.86 14.8778 10.71 13.7378 9.26 13.6078C8.76 13.5578 8.25 13.5578 7.74 13.6078C6.29 13.7478 5.14 14.8778 5 16.3278" stroke="#5F7081" stroke-width="1.5" stroke-linecap="round" stroke-linejoin="round"/>
</svg>
