<svg width="41" height="40" viewBox="0 0 41 40" fill="none" xmlns="http://www.w3.org/2000/svg">
<path d="M38.8334 25H35.5V28.3333H38.8334V25ZM38.8334 18.3333H35.5V21.6667H38.8334V18.3333ZM38.8334 31.6667H35.5V35C37.1667 35 38.8334 33.3333 38.8334 31.6667ZM25.5 5H22.1667V8.33333H25.5V5ZM38.8334 11.6667H35.5V15H38.8334V11.6667ZM35.5 5V8.33333H38.8334C38.8334 6.66667 37.1667 5 35.5 5ZM5.50002 35H18.8334V28.3333C18.8334 26.5 17.3334 25 15.5 25H2.16669V31.6667C2.16669 33.5 3.66669 35 5.50002 35ZM5.50002 11.6667H2.16669V15H5.50002V11.6667ZM25.5 31.6667H22.1667V35H25.5V31.6667ZM32.1667 5H28.8334V8.33333H32.1667V5ZM32.1667 31.6667H28.8334V35H32.1667V31.6667ZM5.50002 5C3.83335 5 2.16669 6.66667 2.16669 8.33333H5.50002V5ZM5.50002 18.3333H2.16669V21.6667H5.50002V18.3333ZM18.8334 5H15.5V8.33333H18.8334V5ZM12.1667 5H8.83335V8.33333H12.1667V5Z" fill="#FE9200"/>
</svg>
