<svg width="16" height="16" viewBox="0 0 16 16" fill="none" xmlns="http://www.w3.org/2000/svg">
<path d="M12.1127 7.99984C12.1393 8.21984 12.166 8.43984 12.166 8.6665C12.166 10.0532 11.6327 11.3132 10.766 12.2598C10.5927 11.7198 10.0993 11.3332 9.49935 11.3332H8.83268V9.33317C8.83268 8.9665 8.53268 8.6665 8.16602 8.6665H4.16602V7.33317H5.49935C5.86602 7.33317 6.16602 7.03317 6.16602 6.6665V5.33317H7.49935C8.23268 5.33317 8.83268 4.73317 8.83268 3.99984V2.3065C8.19935 2.1065 7.53268 1.99984 6.83268 1.99984C3.15268 1.99984 0.166016 4.9865 0.166016 8.6665C0.166016 12.3465 3.15268 15.3332 6.83268 15.3332C10.5127 15.3332 13.4993 12.3465 13.4993 8.6665C13.4993 8.43984 13.486 8.21984 13.466 7.99984H12.1127ZM6.16602 13.9532C3.53268 13.6265 1.49935 11.3865 1.49935 8.6665C1.49935 8.25317 1.55268 7.85984 1.63935 7.47317L4.83268 10.6665V11.3332C4.83268 12.0665 5.43268 12.6665 6.16602 12.6665V13.9532ZM14.166 2.6665V2.33317C14.166 1.41317 13.4193 0.666504 12.4993 0.666504C11.5793 0.666504 10.8327 1.41317 10.8327 2.33317V2.6665C10.466 2.6665 10.166 2.9665 10.166 3.33317V5.99984C10.166 6.3665 10.466 6.6665 10.8327 6.6665H14.166C14.5327 6.6665 14.8327 6.3665 14.8327 5.99984V3.33317C14.8327 2.9665 14.5327 2.6665 14.166 2.6665ZM13.4993 2.6665H11.4993V2.33317C11.4993 1.77984 11.946 1.33317 12.4993 1.33317C13.0527 1.33317 13.4993 1.77984 13.4993 2.33317V2.6665Z" fill="#817A7A"/>
</svg>
