<svg width="24" height="24" viewBox="0 0 24 24" fill="none" xmlns="http://www.w3.org/2000/svg">
<path d="M12.954 12.384L15.911 15.341L6.36 20.709C5.727 21.051 5.134 21.099 4.614 20.725L12.954 12.384ZM16.415 8.92199L19.489 10.651C20.089 10.987 20.418 11.463 20.418 11.991C20.418 12.518 20.089 12.995 19.49 13.331L16.707 14.894L13.574 11.762L16.415 8.92199ZM4.1 19.998C4.036 19.801 4 19.581 4 19.34V4.63499C4 4.25399 4.084 3.92599 4.236 3.66499L12.333 11.763L4.1 19.998ZM12.954 11.143L4.902 3.08999C5.056 3.03099 5.222 2.99999 5.397 2.99999C5.709 2.99999 6.034 3.09199 6.365 3.27599L15.62 8.47299L12.954 11.143Z" fill="white"/>
</svg>
