<svg width="14" height="12" viewBox="0 0 14 12" fill="none" xmlns="http://www.w3.org/2000/svg">
<path d="M13.2709 3.92667L12.5709 1.01333C12.4242 0.413333 11.9042 0 11.2976 0H9.82424H8.48424H7.33757H6.00424H4.85757H3.5109H2.03757C1.43757 0 0.910903 0.42 0.770903 1.01333L0.0709028 3.92667C-0.0890972 4.60667 0.0575696 5.3 0.484236 5.84667C0.53757 5.92 0.610903 5.97333 0.670903 6.04V10.6667C0.670903 11.4 1.2709 12 2.00424 12H11.3376C12.0709 12 12.6709 11.4 12.6709 10.6667V6.04C12.7309 5.98 12.8042 5.92 12.8576 5.85333C13.2842 5.30667 13.4376 4.60667 13.2709 3.92667ZM3.3509 1.33333L2.96424 4.57333C2.9109 5.00667 2.56424 5.33333 2.15757 5.33333C1.8309 5.33333 1.62424 5.14 1.53757 5.02C1.36424 4.8 1.30424 4.51333 1.3709 4.24L2.03757 1.33333H3.3509ZM11.2776 1.32667L11.9776 4.24C12.0442 4.52 11.9842 4.8 11.8109 5.02C11.7176 5.14 11.5176 5.33333 11.1842 5.33333C10.7776 5.33333 10.4242 5.00667 10.3776 4.57333L9.9909 1.33333L11.2776 1.32667ZM9.0109 4.34667C9.04424 4.60667 8.96424 4.86667 8.7909 5.06C8.63757 5.23333 8.42424 5.33333 8.1509 5.33333C7.70424 5.33333 7.33757 4.94 7.33757 4.46V1.33333H8.64424L9.0109 4.34667ZM6.00424 4.46C6.00424 4.94 5.63757 5.33333 5.14424 5.33333C4.91757 5.33333 4.7109 5.23333 4.5509 5.06C4.38424 4.86667 4.30424 4.60667 4.3309 4.34667L4.69757 1.33333H6.00424V4.46ZM10.6709 10.6667H2.6709C2.30424 10.6667 2.00424 10.3667 2.00424 10V6.64667C2.05757 6.65333 2.10424 6.66667 2.15757 6.66667C2.73757 6.66667 3.26424 6.42667 3.6509 6.03333C4.0509 6.43333 4.58424 6.66667 5.1909 6.66667C5.7709 6.66667 6.2909 6.42667 6.67757 6.04667C7.0709 6.42667 7.60424 6.66667 8.20424 6.66667C8.76424 6.66667 9.29757 6.43333 9.69757 6.03333C10.0842 6.42667 10.6109 6.66667 11.1909 6.66667C11.2442 6.66667 11.2909 6.65333 11.3442 6.64667V10C11.3376 10.3667 11.0376 10.6667 10.6709 10.6667Z" fill="#817A7A"/>
</svg>
