<svg width="16" height="16" viewBox="0 0 16 16" fill="none" xmlns="http://www.w3.org/2000/svg">
<g clip-path="url(#clip0_26641_22712)">
<path d="M5.33464 14.0013H2.66797C2.49116 14.0013 2.32159 13.9311 2.19656 13.806C2.07154 13.681 2.0013 13.5114 2.0013 13.3346V10.668C2.0013 10.4912 1.93106 10.3216 1.80604 10.1966C1.68102 10.0715 1.51145 10.0013 1.33464 10.0013C1.15782 10.0013 0.988255 10.0715 0.863231 10.1966C0.738207 10.3216 0.667969 10.4912 0.667969 10.668V13.3346C0.667969 13.8651 0.878682 14.3738 1.25376 14.7489C1.62883 15.1239 2.13754 15.3346 2.66797 15.3346H5.33464C5.51145 15.3346 5.68102 15.2644 5.80604 15.1394C5.93106 15.0144 6.0013 14.8448 6.0013 14.668C6.0013 14.4912 5.93106 14.3216 5.80604 14.1966C5.68102 14.0715 5.51145 14.0013 5.33464 14.0013ZM14.668 10.0013C14.4912 10.0013 14.3216 10.0715 14.1966 10.1966C14.0715 10.3216 14.0013 10.4912 14.0013 10.668V13.3346C14.0013 13.5114 13.9311 13.681 13.806 13.806C13.681 13.9311 13.5114 14.0013 13.3346 14.0013H10.668C10.4912 14.0013 10.3216 14.0715 10.1966 14.1966C10.0715 14.3216 10.0013 14.4912 10.0013 14.668C10.0013 14.8448 10.0715 15.0144 10.1966 15.1394C10.3216 15.2644 10.4912 15.3346 10.668 15.3346H13.3346C13.8651 15.3346 14.3738 15.1239 14.7489 14.7489C15.1239 14.3738 15.3346 13.8651 15.3346 13.3346V10.668C15.3346 10.4912 15.2644 10.3216 15.1394 10.1966C15.0144 10.0715 14.8448 10.0013 14.668 10.0013ZM13.3346 0.667969H10.668C10.4912 0.667969 10.3216 0.738207 10.1966 0.863231C10.0715 0.988255 10.0013 1.15782 10.0013 1.33464C10.0013 1.51145 10.0715 1.68102 10.1966 1.80604C10.3216 1.93106 10.4912 2.0013 10.668 2.0013H13.3346C13.5114 2.0013 13.681 2.07154 13.806 2.19656C13.9311 2.32159 14.0013 2.49116 14.0013 2.66797V5.33464C14.0013 5.51145 14.0715 5.68102 14.1966 5.80604C14.3216 5.93106 14.4912 6.0013 14.668 6.0013C14.8448 6.0013 15.0144 5.93106 15.1394 5.80604C15.2644 5.68102 15.3346 5.51145 15.3346 5.33464V2.66797C15.3346 2.13754 15.1239 1.62883 14.7489 1.25376C14.3738 0.878682 13.8651 0.667969 13.3346 0.667969ZM1.33464 6.0013C1.51145 6.0013 1.68102 5.93106 1.80604 5.80604C1.93106 5.68102 2.0013 5.51145 2.0013 5.33464V2.66797C2.0013 2.49116 2.07154 2.32159 2.19656 2.19656C2.32159 2.07154 2.49116 2.0013 2.66797 2.0013H5.33464C5.51145 2.0013 5.68102 1.93106 5.80604 1.80604C5.93106 1.68102 6.0013 1.51145 6.0013 1.33464C6.0013 1.15782 5.93106 0.988255 5.80604 0.863231C5.68102 0.738207 5.51145 0.667969 5.33464 0.667969H2.66797C2.13754 0.667969 1.62883 0.878682 1.25376 1.25376C0.878682 1.62883 0.667969 2.13754 0.667969 2.66797V5.33464C0.667969 5.51145 0.738207 5.68102 0.863231 5.80604C0.988255 5.93106 1.15782 6.0013 1.33464 6.0013ZM6.66797 3.33464H4.0013C3.82449 3.33464 3.65492 3.40487 3.5299 3.5299C3.40487 3.65492 3.33464 3.82449 3.33464 4.0013V6.66797C3.33464 6.84478 3.40487 7.01435 3.5299 7.13937C3.65492 7.2644 3.82449 7.33464 4.0013 7.33464H6.66797C6.84478 7.33464 7.01435 7.2644 7.13937 7.13937C7.2644 7.01435 7.33464 6.84478 7.33464 6.66797V4.0013C7.33464 3.82449 7.2644 3.65492 7.13937 3.5299C7.01435 3.40487 6.84478 3.33464 6.66797 3.33464ZM6.0013 6.0013H4.66797V4.66797H6.0013V6.0013ZM9.33464 7.33464H12.0013C12.1781 7.33464 12.3477 7.2644 12.4727 7.13937C12.5977 7.01435 12.668 6.84478 12.668 6.66797V4.0013C12.668 3.82449 12.5977 3.65492 12.4727 3.5299C12.3477 3.40487 12.1781 3.33464 12.0013 3.33464H9.33464C9.15783 3.33464 8.98826 3.40487 8.86323 3.5299C8.73821 3.65492 8.66797 3.82449 8.66797 4.0013V6.66797C8.66797 6.84478 8.73821 7.01435 8.86323 7.13937C8.98826 7.2644 9.15783 7.33464 9.33464 7.33464ZM10.0013 4.66797H11.3346V6.0013H10.0013V4.66797ZM6.66797 8.66797H4.0013C3.82449 8.66797 3.65492 8.73821 3.5299 8.86323C3.40487 8.98826 3.33464 9.15783 3.33464 9.33464V12.0013C3.33464 12.1781 3.40487 12.3477 3.5299 12.4727C3.65492 12.5977 3.82449 12.668 4.0013 12.668H6.66797C6.84478 12.668 7.01435 12.5977 7.13937 12.4727C7.2644 12.3477 7.33464 12.1781 7.33464 12.0013V9.33464C7.33464 9.15783 7.2644 8.98826 7.13937 8.86323C7.01435 8.73821 6.84478 8.66797 6.66797 8.66797ZM6.0013 11.3346H4.66797V10.0013H6.0013V11.3346ZM9.33464 10.668C9.51145 10.668 9.68102 10.5977 9.80604 10.4727C9.93107 10.3477 10.0013 10.1781 10.0013 10.0013C10.1781 10.0013 10.3477 9.93107 10.4727 9.80604C10.5977 9.68102 10.668 9.51145 10.668 9.33464C10.668 9.15783 10.5977 8.98826 10.4727 8.86323C10.3477 8.73821 10.1781 8.66797 10.0013 8.66797H9.33464C9.15783 8.66797 8.98826 8.73821 8.86323 8.86323C8.73821 8.98826 8.66797 9.15783 8.66797 9.33464V10.0013C8.66797 10.1781 8.73821 10.3477 8.86323 10.4727C8.98826 10.5977 9.15783 10.668 9.33464 10.668ZM12.0013 8.66797C11.8245 8.66797 11.6549 8.73821 11.5299 8.86323C11.4049 8.98826 11.3346 9.15783 11.3346 9.33464V11.3346C11.1578 11.3346 10.9883 11.4049 10.8632 11.5299C10.7382 11.6549 10.668 11.8245 10.668 12.0013C10.668 12.1781 10.7382 12.3477 10.8632 12.4727C10.9883 12.5977 11.1578 12.668 11.3346 12.668H12.0013C12.1781 12.668 12.3477 12.5977 12.4727 12.4727C12.5977 12.3477 12.668 12.1781 12.668 12.0013V9.33464C12.668 9.15783 12.5977 8.98826 12.4727 8.86323C12.3477 8.73821 12.1781 8.66797 12.0013 8.66797ZM9.33464 11.3346C9.20278 11.3346 9.07389 11.3737 8.96426 11.447C8.85462 11.5202 8.76918 11.6244 8.71872 11.7462C8.66826 11.868 8.65506 12.002 8.68078 12.1314C8.7065 12.2607 8.77 12.3795 8.86323 12.4727C8.95647 12.5659 9.07526 12.6294 9.20458 12.6552C9.3339 12.6809 9.46794 12.6677 9.58976 12.6172C9.71158 12.5668 9.81569 12.4813 9.88895 12.3717C9.9622 12.2621 10.0013 12.1332 10.0013 12.0013C10.0013 11.8245 9.93107 11.6549 9.80604 11.5299C9.68102 11.4049 9.51145 11.3346 9.33464 11.3346Z" fill="#19809E"/>
</g>
<defs>
<clipPath id="clip0_26641_22712">
<rect width="16" height="16" fill="white"/>
</clipPath>
</defs>
</svg>
