<svg width="32" height="32" viewBox="0 0 32 32" fill="none" xmlns="http://www.w3.org/2000/svg">
<path d="M27.3334 15.066V9.38603C27.3334 4.01269 26.08 2.66602 21.04 2.66602H10.96C5.92002 2.66602 4.66669 4.01269 4.66669 9.38603V24.3993C4.66669 27.946 6.61337 28.786 8.97337 26.2527L8.98667 26.2393C10.08 25.0793 11.7467 25.1727 12.6933 26.4393L14.04 28.2393" stroke="#5F7081" stroke-width="2" stroke-linecap="round" stroke-linejoin="round"/>
<path d="M24.2667 28.5333C26.6231 28.5333 28.5333 26.6231 28.5333 24.2667C28.5333 21.9103 26.6231 20 24.2667 20C21.9103 20 20 21.9103 20 24.2667C20 26.6231 21.9103 28.5333 24.2667 28.5333Z" stroke="#5F7081" stroke-width="2" stroke-linecap="round" stroke-linejoin="round"/>
<path d="M29.3333 29.3333L28 28" stroke="#5F7081" stroke-width="2" stroke-linecap="round" stroke-linejoin="round"/>
<path d="M10.6667 9.33398H21.3334" stroke="#5F7081" stroke-width="2" stroke-linecap="round" stroke-linejoin="round"/>
<path d="M12 14.666H20" stroke="#5F7081" stroke-width="2" stroke-linecap="round" stroke-linejoin="round"/>
</svg>
