<svg width="24" height="24" viewBox="0 0 24 24" fill="none" xmlns="http://www.w3.org/2000/svg">
<path d="M11.809 3C11.6137 3.0028 11.4273 3.08163 11.2892 3.21975L2.47073 12.0382C2.33006 12.1789 2.25102 12.3696 2.25098 12.5685V15.75C2.25098 15.9489 2.32999 16.1397 2.47065 16.2803C2.6113 16.421 2.80206 16.5 3.00098 16.5H6.18248C6.38137 16.5 6.57211 16.4209 6.71273 16.2803L15.5312 7.4625C15.6718 7.32185 15.7508 7.13112 15.7508 6.93225C15.7508 6.73338 15.6718 6.54265 15.5312 6.402L12.3497 3.2205C12.2789 3.14968 12.1947 3.09375 12.102 3.05601C12.0092 3.01827 11.9098 2.99948 11.8097 3.00075L11.809 3ZM11.8195 4.8105L13.9405 6.9315L5.87273 15H3.75098V12.879L11.8195 4.8105Z" fill="#5F7081"/>
<path d="M13.2281 13.5003C13.0331 13.5063 12.8478 13.5881 12.7121 13.7276L9.26807 17.1678C9.0347 17.4038 8.85756 17.6894 8.74982 18.0033H3.01232C2.81351 18.0033 2.62284 18.0823 2.48226 18.2229C2.34167 18.3635 2.2627 18.5541 2.2627 18.753C2.2627 18.9518 2.34167 19.1424 2.48226 19.283C2.62284 19.4236 2.81351 19.5026 3.01232 19.5026H8.74682C8.85407 19.8108 9.02357 20.1026 9.26807 20.3471C9.69199 20.7657 10.2638 21.0005 10.8596 21.0005C11.4554 21.0005 12.0271 20.7657 12.4511 20.3471L14.5736 18.2261C14.6726 18.4578 14.8061 18.6423 15.0116 18.8486C15.4351 19.2673 16.0067 19.5021 16.6023 19.5021C17.1979 19.5021 17.7695 19.2673 18.1931 18.8486L19.0458 17.9966H20.9898C22.0038 18.0108 22.0038 16.4838 20.9898 16.4981H18.7353C18.5365 16.4979 18.3458 16.5767 18.2051 16.7171L17.1326 17.7888C17.0641 17.8606 16.9819 17.9177 16.8907 17.9567C16.7996 17.9957 16.7015 18.0159 16.6023 18.0159C16.5032 18.0159 16.4051 17.9957 16.3139 17.9567C16.2228 17.9177 16.1405 17.8606 16.0721 17.7888C16.0002 17.7205 15.9431 17.6383 15.904 17.5472C15.8649 17.4562 15.8448 17.3581 15.8448 17.259C15.8448 17.1598 15.8649 17.0618 15.904 16.9707C15.9431 16.8796 16.0002 16.7974 16.0721 16.7291L16.5161 16.2858C17.1933 15.5793 16.1628 14.5496 15.4556 15.2261L15.0116 15.6693L11.3906 19.2873C11.322 19.359 11.2395 19.4161 11.1483 19.4551C11.057 19.494 10.9588 19.5141 10.8596 19.5141C10.7603 19.5141 10.6621 19.494 10.5709 19.4551C10.4796 19.4161 10.3972 19.359 10.3286 19.2873C10.2567 19.219 10.1996 19.1368 10.1605 19.0457C10.1214 18.9547 10.1013 18.8566 10.1013 18.7575C10.1013 18.6583 10.1214 18.5603 10.1605 18.4692C10.1996 18.3781 10.2567 18.2959 10.3286 18.2276L13.7726 14.7873C14.2631 14.3103 13.9121 13.4808 13.2281 13.5003Z" fill="#5F7081"/>
</svg>
