<svg width="32" height="33" viewBox="0 0 32 33" fill="none" xmlns="http://www.w3.org/2000/svg">
<g clip-path="url(#clip0_11714_11773)">
<path d="M28 28.6667V9.66669L19 0.666687H8C6.93913 0.666687 5.92172 1.08811 5.17157 1.83826C4.42143 2.58841 4 3.60582 4 4.66669V28.6667C4 29.7276 4.42143 30.745 5.17157 31.4951C5.92172 32.2453 6.93913 32.6667 8 32.6667H24C25.0609 32.6667 26.0783 32.2453 26.8284 31.4951C27.5786 30.745 28 29.7276 28 28.6667ZM19 6.66669C19 7.46234 19.3161 8.2254 19.8787 8.78801C20.4413 9.35062 21.2044 9.66669 22 9.66669H26V28.6667C26 29.1971 25.7893 29.7058 25.4142 30.0809C25.0391 30.456 24.5304 30.6667 24 30.6667H8C7.46957 30.6667 6.96086 30.456 6.58579 30.0809C6.21071 29.7058 6 29.1971 6 28.6667V4.66669C6 4.13625 6.21071 3.62755 6.58579 3.25247C6.96086 2.8774 7.46957 2.66669 8 2.66669H19V6.66669Z" fill="#5F7081"/>
<path d="M9.206 28.8408C8.81619 28.6849 8.50213 28.3837 8.33 28.0008C7.94 27.2248 8.07 26.4488 8.49 25.7968C8.886 25.1828 9.54201 24.6608 10.284 24.2228C11.2239 23.6898 12.2174 23.2574 13.248 22.9328C14.0484 21.494 14.7578 20.0064 15.372 18.4788C15.0048 17.6444 14.7168 16.7772 14.512 15.8888C14.34 15.0888 14.274 14.2968 14.42 13.6168C14.57 12.9088 14.968 12.2728 15.72 11.9708C16.104 11.8168 16.52 11.7308 16.924 11.8168C17.1272 11.8601 17.3183 11.948 17.4833 12.0743C17.6483 12.2006 17.7831 12.362 17.878 12.5468C18.054 12.8748 18.118 13.2588 18.132 13.6228C18.146 13.9988 18.108 14.4148 18.038 14.8508C17.87 15.8708 17.498 17.1188 16.998 18.4388C17.5498 19.6188 18.2057 20.7473 18.958 21.8108C19.8482 21.7405 20.7436 21.7741 21.626 21.9108C22.354 22.0428 23.094 22.3008 23.546 22.8408C23.786 23.1288 23.932 23.4808 23.946 23.8768C23.96 24.2608 23.852 24.6408 23.67 25.0028C23.5124 25.3383 23.2679 25.6255 22.962 25.8348C22.6596 26.0321 22.3026 26.1287 21.942 26.1108C21.28 26.0828 20.634 25.7188 20.076 25.2768C19.3975 24.7158 18.7861 24.0782 18.254 23.3768C16.9015 23.5303 15.5651 23.802 14.26 24.1888C13.6624 25.2487 12.9801 26.2587 12.22 27.2088C11.636 27.9088 11.002 28.5208 10.366 28.7828C10.0006 28.9481 9.5861 28.9688 9.206 28.8408ZM11.964 25.0388C11.632 25.1908 11.324 25.3508 11.046 25.5148C10.39 25.9028 9.964 26.2808 9.752 26.6088C9.564 26.8988 9.56 27.1088 9.672 27.3308C9.692 27.3748 9.712 27.4028 9.724 27.4188C9.74787 27.4124 9.77126 27.4044 9.794 27.3948C10.068 27.2828 10.504 26.9248 11.064 26.2508C11.3825 25.8609 11.6828 25.4564 11.964 25.0388ZM15.244 22.3788C15.9119 22.2229 16.5857 22.0942 17.264 21.9928C16.8998 21.4355 16.5595 20.863 16.244 20.2768C15.9303 20.986 15.5968 21.6863 15.244 22.3768V22.3788ZM20.136 23.2788C20.436 23.6048 20.728 23.8788 21.006 24.0988C21.486 24.4788 21.82 24.6048 22.002 24.6108C22.0507 24.6172 22.1002 24.6066 22.142 24.5808C22.2252 24.5151 22.29 24.429 22.33 24.3308C22.4011 24.209 22.4416 24.0717 22.448 23.9308C22.4469 23.8838 22.4283 23.8389 22.396 23.8048C22.292 23.6808 21.996 23.5008 21.36 23.3868C20.9555 23.3191 20.5462 23.2837 20.136 23.2808V23.2788ZM16.156 16.2668C16.3243 15.7239 16.4579 15.1707 16.556 14.6108C16.618 14.2348 16.642 13.9248 16.632 13.6808C16.6326 13.5462 16.6109 13.4124 16.568 13.2848C16.468 13.2972 16.3703 13.3241 16.278 13.3648C16.104 13.4348 15.962 13.5768 15.886 13.9308C15.806 14.3148 15.826 14.8688 15.978 15.5748C16.026 15.7968 16.086 16.0288 16.158 16.2668H16.156Z" fill="#5F7081"/>
</g>
<defs>
<clipPath id="clip0_11714_11773">
<rect width="32" height="32" fill="white" transform="translate(0 0.666687)"/>
</clipPath>
</defs>
</svg>
