<svg width="74" height="73" viewBox="0 0 74 73" fill="none" xmlns="http://www.w3.org/2000/svg">
<path d="M37 0.25C16.99 0.25 0.75 16.49 0.75 36.5C0.75 56.51 16.99 72.75 37 72.75C57.01 72.75 73.25 56.51 73.25 36.5C73.25 16.49 57.01 0.25 37 0.25ZM37 65.5C21.0138 65.5 8 52.4862 8 36.5C8 20.5138 21.0138 7.5 37 7.5C52.9862 7.5 66 20.5138 66 36.5C66 52.4862 52.9862 65.5 37 65.5ZM53.6388 20.4775L29.75 44.3663L20.3612 35.0138L15.25 40.125L29.75 54.625L58.75 25.625L53.6388 20.4775Z" fill="#19809E"/>
</svg>
