<svg width="17" height="16" viewBox="0 0 17 16" fill="none" xmlns="http://www.w3.org/2000/svg">
<path d="M14.8333 6.6665V3.99984C14.8333 3.25984 14.2333 2.6665 13.5 2.6665H2.83333C2.1 2.6665 1.50667 3.25984 1.50667 3.99984V6.6665C2.24 6.6665 2.83333 7.2665 2.83333 7.99984C2.83333 8.73317 2.24 9.33317 1.5 9.33317V11.9998C1.5 12.7332 2.1 13.3332 2.83333 13.3332H13.5C14.2333 13.3332 14.8333 12.7332 14.8333 11.9998V9.33317C14.1 9.33317 13.5 8.73317 13.5 7.99984C13.5 7.2665 14.1 6.6665 14.8333 6.6665ZM13.5 5.69317C12.7067 6.15317 12.1667 7.01984 12.1667 7.99984C12.1667 8.97984 12.7067 9.8465 13.5 10.3065V11.9998H2.83333V10.3065C3.62667 9.8465 4.16667 8.97984 4.16667 7.99984C4.16667 7.01317 3.63333 6.15317 2.84 5.69317L2.83333 3.99984H13.5V5.69317ZM7.5 9.99984H8.83333V11.3332H7.5V9.99984ZM7.5 7.33317H8.83333V8.6665H7.5V7.33317ZM7.5 4.6665H8.83333V5.99984H7.5V4.6665Z" fill="#817A7A"/>
</svg>
