<svg width="124" height="124" viewBox="0 0 124 124" fill="none" xmlns="http://www.w3.org/2000/svg">
<path d="M120.457 23.0286H3.54286C2.60323 23.0286 1.70209 23.4019 1.03768 24.0663C0.373264 24.7307 0 25.6318 0 26.5715V97.4285C0 98.3682 0.373264 99.2693 1.03768 99.9337C1.70209 100.598 2.60323 100.971 3.54286 100.971H120.457C121.397 100.971 122.298 100.598 122.962 99.9337C123.627 99.2693 124 98.3682 124 97.4285V26.5715C124 25.6318 123.627 24.7307 122.962 24.0663C122.298 23.4019 121.397 23.0286 120.457 23.0286ZM7.08571 30.1143H17.2484C16.6118 32.5593 15.3344 34.7901 13.5479 36.5765C11.7615 38.363 9.53066 39.6404 7.08571 40.277V30.1143ZM7.08571 93.8857V83.723C9.53066 84.3596 11.7615 85.637 13.5479 87.4235C15.3344 89.2099 16.6118 91.4407 17.2484 93.8857H7.08571ZM116.914 93.8857H106.752C107.388 91.4407 108.666 89.2099 110.452 87.4235C112.239 85.637 114.469 84.3596 116.914 83.723V93.8857ZM116.914 76.4672C108.025 77.9641 100.993 84.9967 99.4958 93.8857H24.5042C23.0073 84.9967 15.9747 77.9641 7.08571 76.4672V47.5328C15.9747 46.0359 23.0073 39.0033 24.5042 30.1143H99.4958C100.993 39.0033 108.025 46.0359 116.914 47.5328V76.4672ZM116.914 40.277C114.469 39.6404 112.239 38.363 110.452 36.5765C108.666 34.7901 107.388 32.5593 106.752 30.1143H116.914V40.277Z" fill="#363A3E"/>
<path d="M56.6857 47.8286H67.3143C69.2682 47.8286 70.8571 49.4175 70.8571 51.3714H77.9429C77.9429 45.5098 73.1759 40.7429 67.3143 40.7429H65.5429V37.2H58.4571V40.7429H56.6857C50.8241 40.7429 46.0571 45.5098 46.0571 51.3714V54.9143C46.0571 60.7759 50.8241 65.5428 56.6857 65.5428H67.3143C69.2682 65.5428 70.8571 67.1318 70.8571 69.0857V72.6286C70.8571 74.5824 69.2682 76.1714 67.3143 76.1714H56.6857C54.7318 76.1714 53.1429 74.5824 53.1429 72.6286H46.0571C46.0571 78.4902 50.8241 83.2571 56.6857 83.2571H58.4571V86.8H65.5429V83.2571H67.3143C73.1759 83.2571 77.9429 78.4902 77.9429 72.6286V69.0857C77.9429 63.2241 73.1759 58.4571 67.3143 58.4571H56.6857C54.7318 58.4571 53.1429 56.8682 53.1429 54.9143V51.3714C53.1429 49.4175 54.7318 47.8286 56.6857 47.8286ZM90.3429 62C90.3429 67.8616 95.1098 72.6286 100.971 72.6286C106.833 72.6286 111.6 67.8616 111.6 62C111.6 56.1383 106.833 51.3714 100.971 51.3714C95.1098 51.3714 90.3429 56.1383 90.3429 62ZM104.514 62C104.514 63.9539 102.925 65.5428 100.971 65.5428C99.0175 65.5428 97.4286 63.9539 97.4286 62C97.4286 60.0461 99.0175 58.4571 100.971 58.4571C102.925 58.4571 104.514 60.0461 104.514 62ZM23.0286 51.3714C17.1669 51.3714 12.4 56.1383 12.4 62C12.4 67.8616 17.1669 72.6286 23.0286 72.6286C28.8902 72.6286 33.6571 67.8616 33.6571 62C33.6571 56.1383 28.8902 51.3714 23.0286 51.3714ZM23.0286 65.5428C21.0747 65.5428 19.4857 63.9539 19.4857 62C19.4857 60.0461 21.0747 58.4571 23.0286 58.4571C24.9825 58.4571 26.5714 60.0461 26.5714 62C26.5714 63.9539 24.9825 65.5428 23.0286 65.5428ZM81.9144 17.7019C82.0302 18.1527 82.2338 18.5763 82.5134 18.9484C82.7929 19.3205 83.1431 19.6338 83.5438 19.8705C83.9446 20.1073 84.388 20.2627 84.8489 20.328C85.3097 20.3933 85.7789 20.3671 86.2296 20.251L96.5216 17.6027C96.7625 17.5407 96.9928 17.4504 97.2124 17.3423C97.2709 17.3122 97.3241 17.2715 97.3825 17.2378C97.5511 17.1444 97.7117 17.0371 97.8626 16.9172C97.9334 16.8605 97.9972 16.7967 98.0627 16.7329C98.1974 16.6072 98.3196 16.4725 98.433 16.3255C98.4649 16.2848 98.5056 16.2547 98.5357 16.2104C98.5623 16.1749 98.5782 16.1324 98.603 16.0935C98.6296 16.0527 98.665 16.0173 98.6916 15.9748C98.7288 15.9075 98.7518 15.8366 98.7855 15.7693C98.8386 15.6648 98.89 15.562 98.9307 15.4558C98.9715 15.3512 99.0016 15.245 99.0335 15.1369C99.0671 15.02 99.099 14.9048 99.1185 14.7862C99.1362 14.6799 99.1469 14.5754 99.1557 14.4691C99.1663 14.3468 99.1734 14.2264 99.1734 14.1024C99.1694 13.9963 99.1606 13.8905 99.1469 13.7853C99.1349 13.6634 99.1166 13.5422 99.0919 13.4222C99.0813 13.3779 99.0831 13.3336 99.0707 13.2893L96.4224 2.9973C96.3075 2.54565 96.1047 2.1211 95.8255 1.74797C95.5463 1.37484 95.1962 1.06046 94.7953 0.822841C94.3944 0.585221 93.9505 0.429029 93.4892 0.363214C93.0278 0.297398 92.558 0.323252 92.1067 0.439293C91.6553 0.555335 91.2313 0.759284 90.8589 1.03946C90.4865 1.31963 90.173 1.67053 89.9364 2.07204C89.6999 2.47356 89.5448 2.9178 89.4802 3.37933C89.4156 3.84086 89.4427 4.3106 89.5599 4.76164L90.0612 6.71021C81.3692 2.2874 71.7526 -0.0121823 62 4.85344e-05C49.1359 4.85344e-05 36.7979 3.89896 26.3199 11.2734C25.5513 11.8144 25.029 12.6386 24.8681 13.5646C24.7071 14.4906 24.9206 15.4427 25.4616 16.2113C26.0026 16.9799 26.8268 17.5021 27.7528 17.6631C28.6788 17.824 29.6309 17.6105 30.3995 17.0695C39.6765 10.5365 50.6044 7.08576 62 7.08576C70.6198 7.08576 78.9668 9.06621 86.5378 12.8553L84.4635 13.3903C83.5538 13.6243 82.7744 14.2099 82.2964 15.0184C81.8184 15.8269 81.681 16.7921 81.9144 17.7019ZM42.0856 106.298C41.9702 105.847 41.7669 105.423 41.4874 105.051C41.208 104.679 40.8578 104.365 40.4569 104.128C40.0561 103.891 39.6124 103.736 39.1514 103.671C38.6904 103.606 38.2211 103.632 37.7704 103.749L27.4784 106.397C27.4146 106.415 27.3579 106.445 27.2977 106.465C27.0787 106.533 26.8669 106.623 26.6653 106.732C26.4616 106.844 26.2694 106.976 26.0914 107.125C25.9082 107.279 25.7414 107.451 25.5936 107.639C25.5511 107.692 25.5015 107.735 25.4643 107.79C25.4377 107.825 25.4218 107.868 25.397 107.907C25.3704 107.947 25.335 107.983 25.3084 108.025C25.2712 108.093 25.2482 108.163 25.2145 108.231C25.161 108.332 25.1126 108.436 25.0693 108.542C25.0285 108.649 24.9984 108.755 24.9665 108.861C24.932 108.978 24.9036 109.096 24.8815 109.216C24.8638 109.318 24.8531 109.425 24.8443 109.531C24.8337 109.653 24.8266 109.774 24.8266 109.898C24.8301 110.004 24.8407 110.108 24.8531 110.213C24.8655 110.337 24.8815 110.457 24.9081 110.578C24.9187 110.622 24.9169 110.666 24.9293 110.711L27.5776 121.003C27.8135 121.911 28.3999 122.688 29.208 123.164C30.0162 123.64 30.9803 123.776 31.8887 123.543C32.7972 123.309 33.576 122.725 34.0543 121.918C34.5326 121.111 34.6713 120.147 34.4401 119.238L33.9388 117.29C42.6308 121.713 52.2474 124.012 62 124C74.8641 124 87.2021 120.101 97.6783 112.727C98.447 112.186 98.9692 111.361 99.1301 110.435C99.2911 109.509 99.0776 108.557 98.5366 107.789C97.9956 107.02 97.1714 106.498 96.2454 106.337C95.3194 106.176 94.3674 106.389 93.5987 106.93C84.3235 113.463 73.3956 116.914 62 116.914C53.483 116.929 45.0803 114.953 37.4622 111.145L39.5365 110.61C40.4461 110.376 41.2256 109.79 41.7036 108.982C42.1816 108.173 42.319 107.208 42.0856 106.298Z" fill="#363A3E"/>
</svg>
