<svg width="52" height="46" viewBox="0 0 52 46" fill="none" xmlns="http://www.w3.org/2000/svg">
<path d="M6.25489 14.553L6.36781 15.9302C6.38662 16.1839 6.53716 16.4194 6.76297 16.5463L8.00493 17.2349C8.56946 17.5611 8.51301 18.3765 7.89203 18.6121L6.5748 19.1376C6.33017 19.2282 6.14199 19.4456 6.08554 19.6812L5.78445 21.0403C5.63391 21.6564 4.82476 21.8557 4.39195 21.3665L3.46988 20.3154C3.30053 20.1161 3.03708 20.0074 2.77363 20.0436L1.34349 20.1705C0.684875 20.243 0.233252 19.5544 0.590787 19.0107L1.34349 17.8329C1.47522 17.6154 1.51285 17.3436 1.39994 17.108L0.816601 15.8577C0.553154 15.2597 1.09886 14.6436 1.73866 14.7885L3.13117 15.1328C3.39462 15.1872 3.65806 15.1147 3.86505 14.9516L4.93766 14.0275C5.42692 13.6107 6.21726 13.9187 6.25489 14.553Z" fill="url(#paint0_linear_27501_226022)"/>
<path fill-rule="evenodd" clip-rule="evenodd" d="M6.72559 14.518L6.8385 15.8952C6.8385 16.0039 6.89495 16.0946 6.98904 16.1489L8.231 16.8556C8.64499 17.0912 8.88961 17.5261 8.85198 17.9973C8.81434 18.4503 8.51326 18.8489 8.08046 19.0301L6.74441 19.5557C6.65032 19.5919 6.57504 19.6825 6.53741 19.7912L6.23633 21.1322C6.10461 21.6939 5.59653 22.0926 4.99436 22.0926C4.61801 22.0926 4.2793 21.9295 4.03467 21.6577L3.1126 20.6067C3.03733 20.5342 2.96206 20.4979 2.83033 20.4979C2.83033 20.4979 2.82406 20.4979 2.81152 20.4979L1.4002 20.6248C1.35002 20.6248 1.30611 20.6248 1.26847 20.6248C0.816847 20.6248 0.384048 20.3892 0.158237 20.0087C-0.0675752 19.61 -0.0487667 19.157 0.195863 18.7765L0.948568 17.5986C1.00502 17.508 1.02385 17.3993 0.967393 17.2905L0.402864 16.0402C0.233505 15.6596 0.252322 15.2247 0.496952 14.8804C0.722763 14.5362 1.11793 14.3187 1.55074 14.3187C1.6511 14.3187 1.75146 14.3308 1.85182 14.3549L3.24432 14.6811C3.26941 14.6932 3.30078 14.6992 3.33841 14.6992C3.41368 14.6992 3.48896 14.663 3.54541 14.6086L4.61801 13.7026C4.86264 13.5033 5.1449 13.3945 5.4648 13.3945C6.14224 13.3945 6.68795 13.8838 6.72559 14.518ZM4.93791 14.0288L3.8653 14.9529C3.71476 15.0798 3.52659 15.1523 3.33841 15.1523C3.27569 15.1523 3.20669 15.1462 3.13142 15.1341L1.73891 14.7898C1.67619 14.7778 1.61346 14.7717 1.55074 14.7717C1.00502 14.7717 0.591042 15.3335 0.816854 15.859L1.4002 17.1093C1.5131 17.3449 1.47547 17.6167 1.34375 17.8342L0.59104 19.012C0.252322 19.5194 0.647488 20.1899 1.26847 20.1899C1.29356 20.1899 1.31866 20.1839 1.34375 20.1718L2.77388 20.0449C2.79897 20.0449 2.82407 20.0449 2.84916 20.0449C3.09379 20.0449 3.3196 20.1355 3.47014 20.3167L4.39221 21.3678C4.56156 21.549 4.76855 21.6396 4.99436 21.6396C5.3519 21.6396 5.69062 21.4221 5.7847 21.0416L6.08579 19.6825C6.14225 19.4469 6.33042 19.2295 6.57505 19.1389L7.89228 18.6134C8.51326 18.3778 8.56971 17.5624 8.00518 17.2362L6.76322 16.5476C6.53741 16.4207 6.38688 16.1852 6.36806 15.9315L6.25515 14.5543C6.23633 14.1194 5.85997 13.8476 5.4648 13.8476C5.27663 13.8476 5.08845 13.9019 4.93791 14.0288Z" fill="#92632A"/>
<path opacity="0.5" d="M4.3329 16.309C4.21999 16.5808 3.80601 16.6895 3.44848 16.5445C3.07212 16.3996 2.86513 16.0553 2.97804 15.7834C3.09094 15.4935 3.4861 15.3848 3.86246 15.5298C4.23881 15.6747 4.4458 16.019 4.3329 16.309Z" fill="url(#paint1_linear_27501_226022)"/>
<path opacity="0.5" d="M5.06725 15.5684C4.99198 15.7134 4.76617 15.7858 4.55917 15.6952C4.35218 15.6046 4.23928 15.4234 4.29573 15.2603C4.371 15.0972 4.59681 15.0429 4.8038 15.1335C5.01079 15.206 5.1237 15.4053 5.06725 15.5684Z" fill="url(#paint2_linear_27501_226022)"/>
<path d="M9.05558 26.4962L9.86474 26.8767C10.0153 26.9492 10.2035 26.9311 10.3352 26.8586L11.1255 26.4237C11.5019 26.2244 11.9347 26.5143 11.8782 26.913L11.7653 27.7828C11.7277 27.9459 11.803 28.109 11.9159 28.2177L12.5933 28.7976C12.8944 29.0694 12.7438 29.5768 12.3298 29.6311L11.4454 29.7942C11.2761 29.8305 11.1443 29.9211 11.0691 30.066L10.6927 30.8633C10.5234 31.2439 9.97764 31.262 9.78946 30.8996L9.35666 30.1204C9.28139 29.9754 9.13085 29.8848 8.96149 29.8667L8.05825 29.7761C7.64426 29.7217 7.45608 29.2325 7.75716 28.9425L8.37814 28.3264C8.49104 28.1996 8.5475 28.0365 8.50986 27.8915L8.34051 27.0217C8.24642 26.623 8.67923 26.315 9.05558 26.4962Z" fill="url(#paint3_linear_27501_226022)"/>
<path fill-rule="evenodd" clip-rule="evenodd" d="M12.1233 26.2432C12.2927 26.4425 12.3868 26.7143 12.3491 26.9861L12.2362 27.8741L12.8948 28.472C13.1771 28.7076 13.29 29.07 13.1771 29.4143C13.083 29.7586 12.7819 30.0123 12.4244 30.0848L11.5023 30.266L11.126 31.0633C10.9566 31.3895 10.6179 31.607 10.2227 31.607C9.86521 31.607 9.54531 31.4076 9.37596 31.1177L8.90551 30.3204L8.02108 30.2117C7.64473 30.1754 7.32483 29.9398 7.21193 29.6137C7.0802 29.2694 7.15547 28.8888 7.41892 28.6351L8.05872 27.9828L7.87054 27.113C7.81409 26.8412 7.88936 26.5512 8.07753 26.3338C8.26571 26.1163 8.52916 25.9895 8.83024 25.9895C8.98078 25.9895 9.12505 26.0197 9.26304 26.0801L10.1098 26.4606L10.9002 26.0257C11.0507 25.9532 11.2201 25.917 11.3706 25.917C11.6529 25.917 11.9351 26.0257 12.1233 26.2432ZM11.126 26.4244L10.3357 26.8593C10.2604 26.8955 10.1788 26.9136 10.091 26.9136C10.0158 26.9136 9.94048 26.9016 9.86521 26.8774L9.05605 26.4969C8.98078 26.4606 8.90551 26.4425 8.83024 26.4425C8.52916 26.4425 8.26571 26.7143 8.34098 27.0224L8.51034 27.8922C8.54797 28.0371 8.49152 28.2002 8.37861 28.3271L7.75763 28.9432C7.45655 29.2331 7.64473 29.7224 8.05872 29.7768L8.96196 29.8674C9.13132 29.8855 9.28186 29.9761 9.35713 30.1211L9.78993 30.9003C9.88402 31.0633 10.0534 31.154 10.2227 31.154C10.4109 31.154 10.5991 31.0633 10.6932 30.864L11.0695 30.0667C11.1448 29.9217 11.2765 29.8311 11.4459 29.7949L12.3303 29.6318C12.7443 29.5774 12.8948 29.07 12.5938 28.7982L11.9163 28.2184C11.8034 28.1096 11.7282 27.9465 11.7658 27.7835L11.8787 26.9136C11.9352 26.6056 11.6717 26.3519 11.3706 26.3519C11.2954 26.3519 11.2138 26.3761 11.126 26.4244Z" fill="#92632A"/>
<path opacity="0.5" d="M9.43169 28.0735C9.56341 28.2185 9.48814 28.454 9.28115 28.6171C9.09297 28.7621 8.82952 28.7621 8.6978 28.6171C8.58489 28.454 8.64134 28.2185 8.84833 28.0735C9.05533 27.9104 9.31878 27.9104 9.43169 28.0735Z" fill="url(#paint4_linear_27501_226022)"/>
<path opacity="0.5" d="M9.24221 27.4369C9.31748 27.5275 9.27984 27.6543 9.16694 27.7449C9.05403 27.8355 8.90349 27.8355 8.82822 27.7449C8.75295 27.6543 8.79059 27.5275 8.9035 27.4369C9.0164 27.3462 9.16694 27.3462 9.24221 27.4369Z" fill="url(#paint5_linear_27501_226022)"/>
<path d="M16.7548 18.9423C16.4161 18.1994 15.8892 17.6195 15.3811 17.0396L15.3247 16.9853C13.9886 15.4812 12.9537 14.1765 12.2762 12.6906C11.5235 11.0416 11.3542 9.35635 11.8058 7.97915C12.295 6.47511 13.6311 5.29725 15.0424 5.15229C15.5693 5.0798 16.1527 5.15228 16.8489 5.31537C17.6769 5.53282 18.4108 5.82276 18.9941 6.2033C19.4269 6.47511 20.0103 6.36639 20.2925 5.96773C20.5748 5.55095 20.4619 4.98919 20.0479 4.71738C19.2764 4.20999 18.3543 3.84757 17.3193 3.57576C16.3973 3.34019 15.5693 3.2677 14.8354 3.35831C12.6714 3.59388 10.7332 5.24289 10.0181 7.43552L9.71703 8.5409L9.77348 8.52278C9.54767 10.0631 9.81112 11.7664 10.5638 13.4154C11.3918 15.1913 12.6526 16.7497 13.9134 18.145L13.9698 18.2175C14.4026 18.7068 14.8166 19.1779 15.0424 19.6672C15.2682 20.1383 15.287 20.6276 15.0989 20.9356C14.8919 21.2618 14.3838 21.4249 14.0263 21.2618C13.6687 21.0987 13.4617 20.6276 13.5935 20.2652C13.7628 19.794 13.4994 19.2866 13.0289 19.1235C12.5397 18.9423 11.994 19.196 11.8246 19.6672L11.5235 20.7726L11.7117 20.7544C11.8058 21.6605 12.3703 22.5122 13.2359 22.8927C13.3739 22.9531 13.5182 23.0014 13.6687 23.0377C14.8166 23.3276 16.115 22.8383 16.7172 21.8236C17.2064 21.0262 17.2064 19.939 16.7548 18.9423Z" fill="url(#paint6_linear_27501_226022)"/>
<path d="M13.3672 24.1431C13.2167 24.1069 13.0724 24.0586 12.9344 23.9982C11.7113 23.4545 11.0715 22.0049 11.5231 20.7726C11.6924 20.3015 12.2193 20.0478 12.7274 20.229C13.1979 20.3921 13.4613 20.8995 13.2919 21.3706C13.1602 21.7149 13.3672 22.2042 13.7247 22.3673C14.0823 22.5304 14.5904 22.3673 14.7974 22.0411C14.9855 21.7331 14.9667 21.2438 14.7409 20.7726C14.5151 20.2653 14.1011 19.8122 13.6683 19.323L13.6118 19.2505C12.3511 17.8552 11.0903 16.2968 10.2623 14.5209C9.32141 12.4732 9.13325 10.335 9.71659 8.54099C10.4317 6.34836 12.3699 4.69935 14.5339 4.46378C15.2678 4.37317 16.0958 4.44566 17.0178 4.68123C18.0528 4.95304 18.9749 5.31546 19.7464 5.82285C20.1604 6.09466 20.2733 6.65641 19.991 7.07319C19.7088 7.47186 19.1254 7.58058 18.6926 7.30877C18.1093 6.92823 17.3754 6.63829 16.5474 6.42084C15.8511 6.23963 15.2678 6.18527 14.7409 6.25775C13.3296 6.40272 11.9935 7.58058 11.5043 9.08462C11.0526 10.4618 11.222 12.1289 11.9747 13.7961C12.6521 15.282 13.6871 16.5867 15.0232 18.0907L15.0796 18.1451C15.5877 18.725 16.1146 19.3048 16.4533 20.0478C16.9049 21.0445 16.9049 22.1317 16.4157 22.929C15.8135 23.9438 14.5151 24.4331 13.3672 24.1431Z" fill="url(#paint7_linear_27501_226022)"/>
<path d="M38.7185 24.5055C39.3959 24.0163 40.1486 23.7445 40.8825 23.4908L40.9578 23.4727C42.896 22.7841 44.4579 22.1498 45.8127 21.1713C47.3182 20.1022 48.3155 18.7068 48.6354 17.2934C48.9741 15.7531 48.4096 14.1041 47.2429 13.2887C46.8289 12.9987 46.2832 12.7632 45.5869 12.582C44.759 12.3826 43.9874 12.292 43.2724 12.3464C42.7643 12.3826 42.3127 12.0202 42.2562 11.5309C42.2186 11.0236 42.6137 10.5887 43.1218 10.5524C44.0439 10.4799 45.0224 10.5887 46.0762 10.8605C46.9983 11.096 47.751 11.4222 48.3531 11.839C50.1032 13.0712 50.95 15.4088 50.4607 17.6739L50.1596 18.7793L50.122 18.7431C49.5198 20.1928 48.4284 21.5337 46.923 22.621C45.3047 23.7807 43.4041 24.5237 41.5976 25.1579L41.5223 25.1941C40.8825 25.4116 40.2992 25.6109 39.8287 25.9552C39.3959 26.2452 39.1513 26.6619 39.1513 27.0244C39.1513 27.3868 39.5276 27.7854 39.904 27.8036C40.2992 27.8398 40.732 27.5136 40.8073 27.1512C40.8825 26.6619 41.3718 26.3358 41.8799 26.4264C42.3879 26.4989 42.7266 26.97 42.6326 27.4593L42.3315 28.5646L42.1998 28.474C41.654 29.217 40.7132 29.6881 39.7535 29.5975C39.6029 29.5855 39.4587 29.5613 39.3207 29.5251C38.1728 29.2351 37.2883 28.2022 37.2695 27.0425C37.2695 26.1002 37.7964 25.1579 38.7185 24.5055Z" fill="url(#paint8_linear_27501_226022)"/>
<path d="M39.0179 30.6308C39.1559 30.667 39.3002 30.6912 39.4507 30.7033C40.8056 30.812 42.104 29.8516 42.3298 28.565C42.4239 28.0757 42.0852 27.6046 41.5771 27.5321C41.069 27.4415 40.5798 27.7677 40.5045 28.2569C40.4292 28.6193 39.9964 28.9455 39.6013 28.9093C39.2249 28.8912 38.8486 28.4925 38.8486 28.1301C38.8486 27.7677 39.0932 27.3509 39.526 27.0609C39.9964 26.7166 40.5798 26.5173 41.2008 26.2999L41.2949 26.2636C43.1013 25.6294 45.0019 24.8864 46.6202 23.7267C48.502 22.3857 49.744 20.628 50.158 18.7797C50.6472 16.5145 49.8004 14.1769 48.0504 12.9447C47.4482 12.5279 46.6955 12.2018 45.7735 11.9662C44.7197 11.6944 43.7411 11.5856 42.8191 11.6581C42.311 11.6944 41.9158 12.1293 41.9535 12.6367C42.0099 13.1259 42.4616 13.4883 42.9696 13.4521C43.6847 13.3977 44.4562 13.4883 45.2842 13.6877C45.9804 13.8689 46.5262 14.1045 46.9401 14.3944C48.1068 15.2098 48.6714 16.8588 48.3327 18.3991C48.0128 19.8126 47.0154 21.1897 45.51 22.277C44.1551 23.2555 42.5933 23.8898 40.655 24.5784L40.5798 24.5965C39.8459 24.8502 39.0932 25.122 38.4158 25.6113C37.4937 26.2636 36.9668 27.2059 36.9668 28.1482C36.9856 29.3079 37.87 30.3408 39.0179 30.6308Z" fill="url(#paint9_linear_27501_226022)"/>
<path d="M33.6919 39.6537C33.2215 36.8812 29.6273 33.9818 24.7159 32.7496C19.8233 31.5173 15.213 32.3147 13.3877 34.5254L13.0866 34.4529L12.7103 35.8301C11.8447 39.0013 15.8152 42.7523 21.5922 44.2201C27.3692 45.6879 32.7511 44.2926 33.6167 41.1396L33.993 39.7443L33.6919 39.6537Z" fill="url(#paint10_linear_27501_226022)"/>
<path d="M33.9917 39.7437C33.1261 42.8967 27.7442 44.292 21.9672 42.8243C16.1902 41.3565 12.2197 37.6054 13.0853 34.4524C13.9509 31.2812 19.3327 29.8859 25.1097 31.3537C30.8868 32.8215 34.8573 36.5725 33.9917 39.7437Z" fill="url(#paint11_linear_27501_226022)"/>
<path opacity="0.5" d="M23.0774 42.4259C17.3004 40.9581 13.3299 37.2071 14.1955 34.0359C14.5154 32.8399 15.4939 31.8977 16.8864 31.2634C14.9106 31.8614 13.4993 32.9487 13.0853 34.4527C12.2197 37.6058 16.1902 41.3568 21.9672 42.8246C25.5614 43.7306 29.005 43.5494 31.3008 42.5165C29.0803 43.1689 26.1259 43.187 23.0774 42.4259Z" fill="url(#paint12_linear_27501_226022)"/>
<path d="M23.2113 38.2984C20.765 37.6822 19.316 35.2903 19.9558 32.9346L22.007 25.3962L30.8513 27.6432L28.7813 35.1634C28.1415 37.5192 25.6576 38.9145 23.2113 38.2984Z" fill="url(#paint13_linear_27501_226022)"/>
<path d="M25.2041 31.0115C18.1287 29.2175 13.8947 22.2409 15.7577 15.4275L17.7147 8.23344C18.2604 6.27638 20.3492 5.09852 22.4003 5.6059L40.6158 10.2267C42.6669 10.7341 43.89 12.7637 43.3443 14.7207L41.3873 21.9148C39.5243 28.7282 32.2796 32.8055 25.2041 31.0115Z" fill="url(#paint14_linear_27501_226022)"/>
<path opacity="0.5" d="M16.8679 15.6993L18.8249 8.52338C19.3518 6.54819 21.4594 5.37033 23.5105 5.89584L22.4003 5.6059C20.3492 5.09852 18.2604 6.27638 17.7147 8.23344L15.7577 15.4275C13.8947 22.2409 18.1287 29.2175 25.2041 31.0115C25.3923 31.0598 25.5742 31.1021 25.7498 31.1383C19.0131 29.1269 15.0426 22.3315 16.8679 15.6993Z" fill="url(#paint15_linear_27501_226022)"/>
<path d="M43.9457 12.4138C43.3435 8.91646 38.8085 5.29227 32.6363 3.73387C26.4829 2.17547 20.6871 3.17212 18.3725 5.9265L17.9585 5.8359L17.4693 7.62988C16.3778 11.6165 21.4021 16.3642 28.6846 18.2125C35.9858 20.0427 42.779 18.3031 43.8704 14.3165L44.3597 12.5044L43.9457 12.4138Z" fill="url(#paint16_linear_27501_226022)"/>
<path d="M44.3606 12.5086C43.2692 16.5133 36.476 18.2529 29.1748 16.4227C21.8924 14.5744 16.8681 9.8267 17.9595 5.84009C19.0509 1.83536 25.8441 0.0957475 33.1265 1.94409C40.4278 3.7743 45.4521 8.52199 44.3606 12.5086Z" fill="url(#paint17_linear_27501_226022)"/>
<mask id="mask0_27501_226022" style="mask-type:luminance" maskUnits="userSpaceOnUse" x="17" y="1" width="28" height="17">
<path d="M44.3568 12.5177C43.2653 16.517 36.4722 18.262 29.1822 16.4173C21.8923 14.5708 16.8661 9.83398 17.9575 5.8365C19.0489 1.83721 25.844 0.0921593 33.1339 1.93868C40.4239 3.7834 45.4482 8.52022 44.3568 12.5177Z" fill="white"/>
</mask>
<g mask="url(#mask0_27501_226022)">
<g opacity="0.6">
<path d="M41.4248 4.48096L15.4941 5.387L23.8115 19.3583L43.5136 6.38366L41.4248 4.48096Z" fill="url(#paint18_linear_27501_226022)"/>
</g>
</g>
<path d="M29.2307 36.4628L29.1366 33.8715C28.271 34.0527 26.5021 34.3245 24.3757 33.7628C22.3246 33.2373 20.9697 32.2044 20.3111 31.6245C19.847 32.3735 19.3765 33.1165 18.8998 33.8534C18.6175 34.1071 18.4294 34.4151 18.3353 34.7594C17.8837 36.4084 19.9536 38.3655 22.9832 39.1266C25.9941 39.9058 28.8167 39.181 29.2683 37.5138C29.3624 37.1695 29.3436 36.8252 29.2307 36.4628Z" fill="url(#paint19_linear_27501_226022)"/>
<path d="M20.2357 26.4805C19.8593 26.0637 19.4453 25.5926 19.0502 25.0127C19.0376 25.0006 19.0314 24.9946 19.0314 24.9946C18.3539 24.016 18.1657 22.82 18.4856 21.6966L20.1416 15.6079C20.3298 15.8797 20.6685 16.2784 21.1766 16.6046C21.4588 16.7858 21.7223 16.9126 21.9481 16.9851C21.4212 17.9818 20.8379 19.3408 20.4803 21.0261C19.9722 23.255 20.0663 25.1758 20.2357 26.4805Z" fill="url(#paint20_linear_27501_226022)"/>
<path d="M41.9703 11.1295C41.1423 14.1919 35.704 15.4785 29.8329 13.9926C23.9806 12.5248 19.8972 8.82811 20.744 5.76567C21.572 2.6851 27.0103 1.39852 32.8814 2.88443C38.7336 4.37035 42.8171 8.06703 41.9703 11.1295Z" fill="url(#paint21_linear_27501_226022)"/>
<path d="M32.3569 4.80975C27.1068 3.4688 22.2142 4.35673 20.6523 6.74869C20.8029 9.59368 24.604 12.6742 29.8354 13.9971C35.0855 15.338 39.9781 14.4501 41.5588 12.0581C41.4082 9.21314 37.5882 6.13258 32.3569 4.80975Z" fill="url(#paint22_linear_27501_226022)"/>
<path d="M31.6982 7.21528C27.2949 6.09178 23.155 6.54481 21.0098 8.13945C22.0636 10.5314 25.4507 12.8871 29.8352 13.9925C34.2386 15.116 38.3784 14.663 40.5425 13.0684C39.4699 10.6764 36.1015 8.32066 31.6982 7.21528Z" fill="#BE6D00"/>
<path fill-rule="evenodd" clip-rule="evenodd" d="M33.2559 1.50766C39.2399 3.0117 43.9255 6.54529 44.81 10.1514C45.2616 10.2118 45.7257 10.3024 46.2024 10.4232C47.181 10.6769 47.9713 11.0212 48.6299 11.4742C50.5305 12.8151 51.4338 15.334 50.9069 17.7803L50.6058 18.8675C50.173 20.8246 48.8557 22.6729 46.8987 24.0864C45.5815 25.0287 44.0949 25.6991 42.6083 26.2609C42.7086 26.3334 42.7902 26.424 42.8529 26.5327C43.0787 26.8226 43.154 27.1851 43.0975 27.5294C43.0975 27.5414 43.0913 27.5535 43.0787 27.5656L42.7965 28.6529C42.5142 30.0844 41.1781 31.1717 39.6539 31.1717C39.5786 31.1717 39.4971 31.1656 39.4093 31.1535C39.2337 31.1415 39.0643 31.1113 38.9012 31.0629C37.9227 30.8274 37.1324 30.1388 36.756 29.269C34.8178 30.6462 32.5785 31.516 30.1886 31.7878L29.9064 32.7844C33.3688 34.7777 35.1 37.4596 34.4414 39.8516L34.0651 41.2469C33.4065 43.6751 30.2827 45.2516 26.1052 45.2516C24.5998 45.2516 23.0379 45.0523 21.4761 44.6537C18.597 43.9288 16.0566 42.6241 14.3254 40.9932C12.5189 39.2899 11.785 37.4234 12.2554 35.72L12.6318 34.3247C12.682 34.1314 12.751 33.9381 12.8388 33.7448L12.8576 33.7086C12.9329 33.5274 13.0458 33.3643 13.1587 33.1831C13.1775 33.165 13.1963 33.1287 13.1963 33.1287C13.3092 32.9838 13.4221 32.8207 13.5727 32.6576L13.6103 32.6032C13.7483 32.4703 13.8988 32.3314 14.0619 32.1864L14.1184 32.1502C14.2815 32.0173 14.4508 31.8965 14.6264 31.7878L14.7017 31.7334C14.8899 31.6247 15.0843 31.516 15.2851 31.4072L15.3415 31.3891C15.5548 31.2804 15.7681 31.1837 15.9813 31.0992L16.019 31.0811C16.2699 30.9844 16.5145 30.8999 16.7528 30.8274C17.7878 30.5193 18.9357 30.3562 20.1777 30.32L20.4599 29.3233C19.2744 28.4898 18.2394 27.475 17.3926 26.3153C17.1417 25.9891 16.9159 25.6569 16.7152 25.3186C16.5082 24.9562 16.3012 24.5756 16.113 24.1951C16.088 24.1347 16.0566 24.0743 16.019 24.0139C15.4732 24.4307 14.7582 24.6662 14.0243 24.6662C13.7608 24.6662 13.4974 24.636 13.2339 24.5756C13.0709 24.5273 12.9078 24.473 12.7447 24.4125C11.2957 23.7602 10.5618 22.0749 11.0699 20.6253L11.371 19.538C11.371 19.5259 11.3773 19.5199 11.3898 19.5199C11.5592 19.0487 11.9732 18.7226 12.4624 18.632C11.4651 17.4541 10.5054 16.1494 9.84677 14.6997C8.84944 12.5433 8.64244 10.3144 9.26342 8.42987L9.58332 7.28825C10.3548 4.93252 12.4436 3.17479 14.777 2.90297C14.9903 2.87881 15.2161 2.86673 15.4544 2.86673C16.0566 2.86673 16.7152 2.95734 17.4303 3.13855C17.8944 3.25935 18.3398 3.39828 18.7663 3.55533C20.4787 1.77948 23.6213 0.746582 27.4224 0.746582C29.323 0.746582 31.2801 1.00027 33.2559 1.50766ZM18.8981 4.09896C18.4088 3.89359 17.8819 3.71842 17.3174 3.57345C16.6399 3.41036 16.019 3.31976 15.4544 3.31976C15.2412 3.31976 15.0342 3.33184 14.8334 3.356C12.6694 3.59157 10.7312 5.24058 10.0161 7.43321L9.71505 8.53859C9.1317 10.3326 9.31987 12.4708 10.2608 14.5185C11.0887 16.2944 12.3495 17.8528 13.6103 19.2481L13.6668 19.3206C14.0996 19.8098 14.5135 20.2629 14.7394 20.7702C14.8021 20.9031 14.846 21.03 14.8711 21.1508C14.7205 21.2595 14.5135 21.3139 14.3254 21.3139C14.2125 21.3139 14.1121 21.2957 14.0243 21.2595C13.6667 21.0964 13.4598 20.6253 13.5915 20.2629C13.7608 19.7917 13.4974 19.2843 13.0269 19.1212C12.914 19.085 12.8074 19.0669 12.707 19.0669C12.3119 19.0669 11.9543 19.2843 11.8226 19.6649L11.5215 20.7702C11.0699 22.0025 11.7097 23.4521 12.9329 23.9958C13.0709 24.0562 13.2151 24.1045 13.3657 24.1407C13.5789 24.2011 13.7985 24.2313 14.0243 24.2313C14.8523 24.2313 15.6802 23.8689 16.1883 23.2347C16.3012 23.5005 16.4141 23.7602 16.527 24.0139C16.7152 24.3884 16.9159 24.7508 17.1292 25.1011C17.3299 25.4273 17.5432 25.7475 17.769 26.0616C18.6346 27.2394 19.726 28.2904 20.9868 29.1421L20.5352 30.773C19.1991 30.773 17.9572 30.9542 16.8846 31.2623C16.6462 31.3348 16.4141 31.4133 16.1883 31.4978C16.1758 31.4978 16.1695 31.5039 16.1695 31.516C15.9562 31.6005 15.7492 31.6911 15.5485 31.7878C15.5234 31.7878 15.5046 31.7938 15.4921 31.8059C15.3039 31.9025 15.122 32.0052 14.9464 32.114C14.9338 32.126 14.915 32.1381 14.8899 32.1502C14.7268 32.2589 14.57 32.3737 14.4195 32.4945C14.4069 32.5066 14.3881 32.5187 14.363 32.5307C14.225 32.6515 14.0933 32.7784 13.9678 32.9113C13.9427 32.9354 13.9239 32.9536 13.9114 32.9656C13.7859 33.0985 13.673 33.2375 13.5727 33.3824C13.5727 33.3945 13.5664 33.4126 13.5538 33.4368C13.4535 33.5818 13.3657 33.7328 13.2904 33.8898C13.2779 33.9019 13.2716 33.914 13.2716 33.9261C13.1963 34.0952 13.1336 34.2703 13.0834 34.4516L12.707 35.8288C11.8414 38.9999 15.812 42.751 21.589 44.2188C23.1508 44.6174 24.6939 44.7986 26.1052 44.7986C29.944 44.7986 32.9737 43.4396 33.6135 41.1382L33.9898 39.7429C34.6296 37.4415 32.6914 34.8321 29.3795 33.0019L29.8123 31.371C32.4844 31.1354 34.9871 30.1025 37.0006 28.4898C37.17 29.5045 37.9792 30.3743 39.0141 30.628C39.1521 30.6643 39.2964 30.6884 39.4469 30.7005C39.5222 30.7126 39.5912 30.7186 39.6539 30.7186C40.9335 30.7186 42.119 29.7945 42.326 28.5622L42.6271 27.4569C42.7212 26.9676 42.3825 26.4965 41.8744 26.424C41.8242 26.4119 41.7678 26.4059 41.705 26.4059C41.2722 26.4059 40.8771 26.7139 40.8018 27.1488C40.7265 27.5112 40.3314 27.8193 39.955 27.8193C39.9425 27.8193 39.9236 27.8133 39.8985 27.8012C39.6163 27.783 39.3528 27.5837 39.2211 27.3119C39.3089 27.2153 39.4093 27.1307 39.5222 27.0582C39.9926 26.7139 40.576 26.5146 41.197 26.2971L41.291 26.2609C43.0975 25.6267 44.9981 24.8837 46.6164 23.724C48.4982 22.383 49.7402 20.6253 50.1542 18.7769L50.4552 17.6716C50.9445 15.4064 50.0977 13.0688 48.3477 11.8366C47.7455 11.4198 46.9928 11.0936 46.0707 10.8581C45.5062 10.7131 44.9605 10.6165 44.4336 10.5681C43.7938 7.08892 39.2587 3.48285 33.1242 1.94256C31.1672 1.43518 29.2289 1.19961 27.4224 1.19961C23.6401 1.19961 20.4787 2.25062 18.8981 4.09896ZM41.3851 21.9119L43.0035 15.9501C43.4174 15.4608 43.6997 14.9172 43.8691 14.3192L44.0949 13.4675C44.4838 13.5158 44.879 13.5883 45.2804 13.6849C45.9766 13.8662 46.5224 14.1017 46.9363 14.3917C48.0278 15.1527 48.5735 16.6387 48.3665 18.0883C47.9149 19.2118 47.0304 20.2991 45.8073 21.1689C44.4524 22.1474 42.8906 22.7817 40.9523 23.4703L40.8771 23.4884C40.852 23.5005 40.8332 23.5065 40.8206 23.5065C41.0464 22.9991 41.2346 22.4676 41.3851 21.9119ZM15.3792 17.0373L15.3227 16.983C13.9867 15.4789 12.9517 14.1742 12.2742 12.6883C11.6533 11.3473 11.4463 9.98827 11.6156 8.77417C12.1802 7.41509 13.4221 6.40032 14.7394 6.25535C14.8774 6.23119 15.0153 6.21911 15.1533 6.21911C15.5673 6.21911 16.019 6.2916 16.5458 6.41844C16.9598 6.52717 17.3425 6.65401 17.6937 6.79898L17.4679 7.63255C17.2986 8.23054 17.2797 8.84665 17.3738 9.46276L15.7555 15.4246C15.605 15.9803 15.4921 16.536 15.4168 17.0917C15.4042 17.0796 15.3917 17.0615 15.3792 17.0373ZM12.707 12.5071C13.2716 13.7212 14.0807 14.8266 15.1157 16.0407C15.1784 15.7991 15.2412 15.5514 15.3039 15.2977L16.9034 9.44464C16.8093 8.77417 16.8469 8.12181 17.0163 7.5057L17.148 7.07079C16.9222 6.98623 16.6839 6.91375 16.4329 6.85334C15.9437 6.7265 15.5297 6.67213 15.1533 6.67213C15.0279 6.67213 14.9087 6.67818 14.7958 6.69026C13.6668 6.8171 12.5941 7.70503 12.0673 8.90101C11.9167 10.0245 12.1425 11.2749 12.707 12.5071ZM41.8368 22.0206C41.774 22.2622 41.6988 22.5038 41.611 22.7454C43.1352 22.1837 44.4148 21.6038 45.525 20.8065C46.6541 20.0092 47.4821 19.0306 47.9149 17.9796C48.0842 16.693 47.5761 15.4064 46.6729 14.7541C46.2965 14.5004 45.8073 14.3011 45.1675 14.1198C44.9166 14.0594 44.672 14.0111 44.4336 13.9749L44.3207 14.4279C44.1513 15.044 43.8503 15.6239 43.4363 16.1494L41.8368 22.0206ZM14.0243 20.4622C14.0055 20.6072 14.0996 20.8065 14.2313 20.8608C14.2438 20.8608 14.2564 20.8608 14.2689 20.8608C14.2062 20.728 14.1246 20.5951 14.0243 20.4622ZM39.955 27.3663C40.0867 27.3663 40.2749 27.2394 40.3314 27.1126C40.1683 27.1851 40.024 27.2636 39.8985 27.3481C39.9236 27.3602 39.9425 27.3663 39.955 27.3663ZM16.8846 31.2623H16.9034H16.8846Z" fill="#92632A"/>
<defs>
<linearGradient id="paint0_linear_27501_226022" x1="-0.637439" y1="19.4973" x2="2.11088" y2="12.468" gradientUnits="userSpaceOnUse">
<stop stop-color="#BE6D00"/>
<stop offset="1" stop-color="#FFF57F"/>
</linearGradient>
<linearGradient id="paint1_linear_27501_226022" x1="3.03562" y1="16.3847" x2="3.43352" y2="15.3669" gradientUnits="userSpaceOnUse">
<stop stop-color="white"/>
<stop offset="1" stop-color="white"/>
</linearGradient>
<linearGradient id="paint2_linear_27501_226022" x1="4.33017" y1="15.6059" x2="4.55578" y2="15.0288" gradientUnits="userSpaceOnUse">
<stop stop-color="white"/>
<stop offset="1" stop-color="white"/>
</linearGradient>
<linearGradient id="paint3_linear_27501_226022" x1="9.67675" y1="31.7016" x2="6.78627" y2="27.8396" gradientUnits="userSpaceOnUse">
<stop stop-color="#BE6D00"/>
<stop offset="1" stop-color="#FFF57F"/>
</linearGradient>
<linearGradient id="paint4_linear_27501_226022" x1="9.07095" y1="28.774" x2="8.65238" y2="28.2148" gradientUnits="userSpaceOnUse">
<stop stop-color="white"/>
<stop offset="1" stop-color="white"/>
</linearGradient>
<linearGradient id="paint5_linear_27501_226022" x1="9.0354" y1="27.8404" x2="8.79805" y2="27.5233" gradientUnits="userSpaceOnUse">
<stop stop-color="white"/>
<stop offset="1" stop-color="white"/>
</linearGradient>
<linearGradient id="paint6_linear_27501_226022" x1="-10.2568" y1="5.40109" x2="5.25861" y2="-10.8648" gradientUnits="userSpaceOnUse">
<stop stop-color="#FFF57F"/>
<stop offset="1" stop-color="#BE6D00"/>
</linearGradient>
<linearGradient id="paint7_linear_27501_226022" x1="11.1691" y1="3.19767" x2="21.1534" y2="5.92296" gradientUnits="userSpaceOnUse">
<stop stop-color="#FFF57F"/>
<stop offset="1" stop-color="#BE6D00"/>
</linearGradient>
<linearGradient id="paint8_linear_27501_226022" x1="69.1528" y1="25.5009" x2="63.5261" y2="4.10177" gradientUnits="userSpaceOnUse">
<stop stop-color="#FFF57F"/>
<stop offset="1" stop-color="#BE6D00"/>
</linearGradient>
<linearGradient id="paint9_linear_27501_226022" x1="51.6195" y1="13.4365" x2="41.6352" y2="10.7112" gradientUnits="userSpaceOnUse">
<stop stop-color="#FFF57F"/>
<stop offset="1" stop-color="#BE6D00"/>
</linearGradient>
<linearGradient id="paint10_linear_27501_226022" x1="14.2687" y1="30.1032" x2="35.0767" y2="35.7831" gradientUnits="userSpaceOnUse">
<stop stop-color="#BE6D00"/>
<stop offset="1" stop-color="#FFF57F"/>
</linearGradient>
<linearGradient id="paint11_linear_27501_226022" x1="11.6365" y1="40.2929" x2="26.1757" y2="25.0504" gradientUnits="userSpaceOnUse">
<stop stop-color="#FFF57F"/>
<stop offset="1" stop-color="#BE6D00"/>
</linearGradient>
<linearGradient id="paint12_linear_27501_226022" x1="18.4562" y1="41.9358" x2="20.9004" y2="32.2796" gradientUnits="userSpaceOnUse">
<stop stop-color="white"/>
<stop offset="1" stop-color="white"/>
</linearGradient>
<linearGradient id="paint13_linear_27501_226022" x1="14.7291" y1="36.1579" x2="17.7263" y2="24.3173" gradientUnits="userSpaceOnUse">
<stop stop-color="#FFF57F"/>
<stop offset="0.656" stop-color="#BE6D00"/>
</linearGradient>
<linearGradient id="paint14_linear_27501_226022" x1="18.6898" y1="4.67068" x2="44.189" y2="11.631" gradientUnits="userSpaceOnUse">
<stop stop-color="#FFF57F"/>
<stop offset="1" stop-color="#BE6D00"/>
</linearGradient>
<linearGradient id="paint15_linear_27501_226022" x1="18.6898" y1="4.67068" x2="31.9903" y2="8.30126" gradientUnits="userSpaceOnUse">
<stop stop-color="white"/>
<stop offset="1" stop-color="white"/>
</linearGradient>
<linearGradient id="paint16_linear_27501_226022" x1="19.4447" y1="0.386566" x2="45.711" y2="7.55618" gradientUnits="userSpaceOnUse">
<stop stop-color="#FFF57F"/>
<stop offset="1" stop-color="#BE6D00"/>
</linearGradient>
<linearGradient id="paint17_linear_27501_226022" x1="24.9017" y1="15.3311" x2="28.5839" y2="0.784161" gradientUnits="userSpaceOnUse">
<stop stop-color="#FFF57F"/>
<stop offset="1" stop-color="#BE6D00"/>
</linearGradient>
<linearGradient id="paint18_linear_27501_226022" x1="15.9215" y1="16.1855" x2="23.5063" y2="-2.70958" gradientUnits="userSpaceOnUse">
<stop stop-color="white"/>
<stop offset="1" stop-color="white"/>
</linearGradient>
<linearGradient id="paint19_linear_27501_226022" x1="20.9697" y1="38.6259" x2="22.5939" y2="32.2094" gradientUnits="userSpaceOnUse">
<stop stop-color="#FFF57F"/>
<stop offset="1" stop-color="#BE6D00"/>
</linearGradient>
<linearGradient id="paint20_linear_27501_226022" x1="-0.626891" y1="21.1991" x2="1.95291" y2="11.0077" gradientUnits="userSpaceOnUse">
<stop stop-color="white"/>
<stop offset="1" stop-color="white"/>
</linearGradient>
<linearGradient id="paint21_linear_27501_226022" x1="26.706" y1="13.2061" x2="29.5319" y2="2.04212" gradientUnits="userSpaceOnUse">
<stop stop-color="#BE6D00"/>
<stop offset="1" stop-color="#FFF57F"/>
</linearGradient>
<linearGradient id="paint22_linear_27501_226022" x1="27.66" y1="13.4515" x2="30.0006" y2="4.20458" gradientUnits="userSpaceOnUse">
<stop stop-color="#BE6D00"/>
<stop offset="1" stop-color="#FFF57F"/>
</linearGradient>
</defs>
</svg>
