<svg width="32" height="32" viewBox="0 0 32 32" fill="none" xmlns="http://www.w3.org/2000/svg">
<g id="video-library">
<path id="Vector" d="M3.9974 8.0013C3.26406 8.0013 2.66406 8.6013 2.66406 9.33464V26.668C2.66406 28.1346 3.86406 29.3346 5.33073 29.3346H22.6641C23.3974 29.3346 23.9974 28.7346 23.9974 28.0013C23.9974 27.268 23.3974 26.668 22.6641 26.668H6.66406C5.93073 26.668 5.33073 26.068 5.33073 25.3346V9.33464C5.33073 8.6013 4.73073 8.0013 3.9974 8.0013ZM26.6641 2.66797H10.6641C9.1974 2.66797 7.9974 3.86797 7.9974 5.33464V21.3346C7.9974 22.8013 9.1974 24.0013 10.6641 24.0013H26.6641C28.1307 24.0013 29.3307 22.8013 29.3307 21.3346V5.33464C29.3307 3.86797 28.1307 2.66797 26.6641 2.66797ZM15.9974 19.3346V7.33464L23.2907 12.8013C23.6507 13.068 23.6507 13.6013 23.2907 13.868L15.9974 19.3346Z" fill="black" fill-opacity="0.54"/>
</g>
</svg>
