<svg width="22" height="22" viewBox="0 0 22 22" fill="none" xmlns="http://www.w3.org/2000/svg">
<path d="M19.75 9.96784V6.29045C19.75 5.96535 19.6183 5.65356 19.3839 5.42368C19.1495 5.1938 18.8315 5.06465 18.5 5.06465H18.1275L17.7062 2.515C17.6934 2.43558 17.6645 2.35946 17.6214 2.29107C17.5783 2.22268 17.5217 2.16338 17.455 2.11662C17.3889 2.06878 17.3137 2.03456 17.2338 2.01602C17.1538 1.99748 17.0709 1.995 16.99 2.00875L3.4 4.17105C3.31892 4.18385 3.24121 4.21223 3.17134 4.25456C3.10147 4.29688 3.04081 4.35233 2.99284 4.4177C2.94488 4.48307 2.91055 4.55709 2.89183 4.63551C2.87311 4.71393 2.87036 4.7952 2.88375 4.87466L2.915 5.06465H2.25C1.91848 5.06465 1.60054 5.1938 1.36612 5.42368C1.1317 5.65356 1 5.96535 1 6.29045L1 19.7742C1 20.0993 1.1317 20.4111 1.36612 20.641C1.60054 20.8709 1.91848 21 2.25 21H18.5C18.8315 21 19.1495 20.8709 19.3839 20.641C19.6183 20.4111 19.75 20.0993 19.75 19.7742V16.0968C20.0815 16.0968 20.3995 15.9677 20.6339 15.7378C20.8683 15.5079 21 15.1961 21 14.871V11.1936C21 10.8685 20.8683 10.5567 20.6339 10.3269C20.3995 10.097 20.0815 9.96784 19.75 9.96784ZM2.25 6.29045H18.5V9.96784H13.5C13.1685 9.96784 12.8505 10.097 12.6161 10.3269C12.3817 10.5567 12.25 10.8685 12.25 11.1936V14.871C12.25 15.1961 12.3817 15.5079 12.6161 15.7378C12.8505 15.9677 13.1685 16.0968 13.5 16.0968H18.5V19.7742H2.25V6.29045ZM5.585 5.06465L16.5725 3.31544L16.8612 5.06465H5.585ZM13.5 14.871V11.1936H19.75V14.871H13.5ZM14.75 13.0323C14.75 13.1949 14.8158 13.3508 14.9331 13.4657C15.0503 13.5807 15.2092 13.6452 15.375 13.6452C15.5408 13.6452 15.6997 13.5807 15.8169 13.4657C15.9342 13.3508 16 13.1949 16 13.0323C16 12.8698 15.9342 12.7139 15.8169 12.5989C15.6997 12.484 15.5408 12.4194 15.375 12.4194C15.2092 12.4194 15.0503 12.484 14.9331 12.5989C14.8158 12.7139 14.75 12.8698 14.75 13.0323Z" fill="#575F6E"/>
</svg>
