<svg width="32" height="33" viewBox="0 0 32 33" fill="none" xmlns="http://www.w3.org/2000/svg">
<path d="M14.3355 22.9805V25.6872C14.3355 27.9805 12.2021 29.8338 9.57545 29.8338C6.94878 29.8338 4.80209 27.9805 4.80209 25.6872V22.9805C4.80209 25.2738 6.93545 26.9005 9.57545 26.9005C12.2021 26.9005 14.3355 25.2605 14.3355 22.9805Z" stroke="#5F7081" stroke-width="2" stroke-linecap="round" stroke-linejoin="round"/>
<path d="M14.3333 19.313C14.3333 19.9797 14.1467 20.593 13.8267 21.1263C13.04 22.4196 11.4267 23.233 9.55999 23.233C7.69332 23.233 6.07997 22.4063 5.2933 21.1263C4.9733 20.593 4.78671 19.9797 4.78671 19.313C4.78671 18.1663 5.32002 17.1397 6.17335 16.393C7.04002 15.633 8.22664 15.1797 9.54664 15.1797C10.8666 15.1797 12.0533 15.6463 12.92 16.393C13.8 17.1263 14.3333 18.1663 14.3333 19.313Z" stroke="#5F7081" stroke-width="2" stroke-linecap="round" stroke-linejoin="round"/>
<path d="M14.3355 19.3127V22.9793C14.3355 25.2727 12.2021 26.8993 9.57545 26.8993C6.94878 26.8993 4.80209 25.2593 4.80209 22.9793V19.3127C4.80209 17.0193 6.93545 15.166 9.57545 15.166C10.8954 15.166 12.0822 15.6326 12.9488 16.3793C13.8022 17.126 14.3355 18.166 14.3355 19.3127Z" stroke="#5F7081" stroke-width="2" stroke-linecap="round" stroke-linejoin="round"/>
<path d="M29.3334 15.1275V17.8743C29.3334 18.6076 28.7467 19.2075 28 19.2342H25.3867C23.9467 19.2342 22.6267 18.1809 22.5067 16.7409C22.4267 15.9009 22.7467 15.1142 23.3067 14.5675C23.8 14.0609 24.48 13.7676 25.2267 13.7676H28C28.7467 13.7942 29.3334 14.3942 29.3334 15.1275Z" stroke="#5F7081" stroke-width="2" stroke-linecap="round" stroke-linejoin="round"/>
<path d="M2.66666 14.4993V11.8327C2.66666 8.20602 4.85333 5.67268 8.25333 5.24601C8.59999 5.19268 8.95999 5.16602 9.33332 5.16602H21.3333C21.68 5.16602 22.0133 5.17933 22.3333 5.23267C25.7733 5.63267 28 8.17935 28 11.8327V13.766H25.2266C24.48 13.766 23.8 14.0593 23.3066 14.566C22.7466 15.1127 22.4267 15.8993 22.5067 16.7393C22.6267 18.1793 23.9466 19.2327 25.3866 19.2327H28V21.166C28 25.166 25.3333 27.8327 21.3333 27.8327H18" stroke="#5F7081" stroke-width="2" stroke-linecap="round" stroke-linejoin="round"/>
</svg>
