<svg width="24" height="24" viewBox="0 0 24 24" fill="none" xmlns="http://www.w3.org/2000/svg">
<path d="M21.1406 13.1426V16.5711C21.1406 18.0569 17.5589 19.9997 13.1406 19.9997C8.72234 19.9997 5.14062 18.0569 5.14062 16.5711V13.714" stroke="#19809E" stroke-width="0.9" stroke-linecap="round" stroke-linejoin="round"/>
<path d="M5.48047 14.0104C6.46904 15.3224 9.52618 16.5532 13.1445 16.5532C17.5628 16.5532 21.1445 14.7178 21.1445 13.1407C21.1445 12.2549 20.0165 11.2847 18.2462 10.6035" stroke="#19809E" stroke-width="0.9" stroke-linecap="round" stroke-linejoin="round"/>
<path d="M17.7148 7.42773V10.8563C17.7148 12.342 14.1331 14.2849 9.71484 14.2849C5.29656 14.2849 1.71484 12.342 1.71484 10.8563V7.42773" stroke="#19809E" stroke-width="0.9" stroke-linecap="round" stroke-linejoin="round"/>
<path fill-rule="evenodd" clip-rule="evenodd" d="M9.71484 10.8389C14.1331 10.8389 17.7148 9.00343 17.7148 7.42628C17.7148 5.848 14.1331 4 9.71484 4C5.29656 4 1.71484 5.848 1.71484 7.42628C1.71484 9.00343 5.29656 10.8389 9.71484 10.8389Z" stroke="#19809E" stroke-width="0.9" stroke-linecap="round" stroke-linejoin="round"/>
</svg>