<svg width="41" height="40" viewBox="0 0 41 40" fill="none" xmlns="http://www.w3.org/2000/svg">
<path d="M11.7667 8.06406L8.76669 5.08073L6.41669 7.43073L9.40002 10.4141L11.7667 8.06406ZM2.16669 17.4974H7.16669V20.8307H2.16669V17.4974ZM18.8334 0.914062H22.1667V5.83073H18.8334V0.914062ZM32.2334 5.0724L34.58 7.4174L31.5967 10.4007L29.2517 8.05406L32.2334 5.0724ZM29.2334 30.2641L32.2167 33.2641L34.5667 30.9141L31.5667 27.9307L29.2334 30.2641ZM33.8334 17.4974H38.8334V20.8307H33.8334V17.4974ZM20.5 9.16406C14.9834 9.16406 10.5 13.6474 10.5 19.1641C10.5 24.6807 14.9834 29.1641 20.5 29.1641C26.0167 29.1641 30.5 24.6807 30.5 19.1641C30.5 13.6474 26.0167 9.16406 20.5 9.16406ZM20.5 25.8307C16.8167 25.8307 13.8334 22.8474 13.8334 19.1641C13.8334 15.4807 16.8167 12.4974 20.5 12.4974C24.1834 12.4974 27.1667 15.4807 27.1667 19.1641C27.1667 22.8474 24.1834 25.8307 20.5 25.8307ZM18.8334 32.4974H22.1667V37.4141H18.8334V32.4974ZM6.41669 30.8974L8.76669 33.2474L11.75 30.2474L9.40002 27.8974L6.41669 30.8974Z" fill="#FE9200"/>
</svg>
