<svg width="54" height="69" viewBox="0 0 54 69" fill="none" xmlns="http://www.w3.org/2000/svg">
<path d="M48.4643 46.478C45.3615 46.7135 42.2588 46.965 39.162 47.2624C37.2605 47.4441 35.369 47.7195 33.3801 47.965C33.5889 46.5678 33.7819 45.2725 33.9907 43.8793C34.2572 44.0709 34.3925 44.1687 34.5297 44.2665C36.4411 45.6237 38.2709 45.4441 39.8263 43.7056C41.0256 42.3644 41.668 40.7177 42.1712 39.0231C42.9688 36.3326 43.5118 33.6081 42.7659 30.8038C42.1175 28.3628 39.7547 27.742 37.9268 29.5184C37.5609 29.8737 37.1869 30.219 36.8687 30.5204C36.7872 30.233 36.7931 29.8238 36.5922 29.6242C35.7072 28.746 34.2572 29.1851 34.0225 30.3787C33.3463 33.8037 32.7038 37.2348 31.9958 40.6538C31.9083 41.077 31.5622 41.4881 31.24 41.8035C31.0272 42.0111 30.6393 42.039 30.331 42.1488C30.2196 41.8135 29.983 41.4622 30.0207 41.1448C30.16 39.9333 30.3549 38.7277 30.5896 37.5302C31.0013 35.4424 31.4707 33.3666 31.8864 31.2809C32.0375 30.5244 31.7293 30.0454 30.9317 29.8498C29.8059 29.5743 29.6051 29.6561 28.8791 30.9635C26.914 29.8038 25.4959 30.0014 23.8848 31.6721C22.5145 33.0932 21.6791 34.8277 21.0287 36.6599C20.1317 39.1868 19.6543 41.7596 20.2809 44.4342C20.5573 45.6178 21.1858 46.492 22.415 46.8533C23.7317 47.2405 24.8256 46.8692 25.7306 45.9052C26.1324 45.478 26.4406 44.9651 26.8265 44.4441C27.0851 45.3882 27.644 46.1327 28.6165 46.0728C29.4658 46.0189 30.2932 45.6138 31.1445 45.3583C31.0033 46.0688 30.7945 46.8113 30.7229 47.5658C30.6592 48.2444 30.333 48.44 29.7105 48.5358C26.2417 49.0608 22.779 49.6256 19.3162 50.1845C18.2163 50.3621 17.1224 50.5637 15.8972 50.7773C16.4004 48.9809 16.8638 47.3443 17.3173 45.7056C18.5505 41.2466 19.7975 36.7917 21.0009 32.3247C21.3151 31.1611 20.8278 30.702 19.6603 30.9835C18.284 31.3148 17.4307 32.189 16.9553 33.5423C16.0026 36.2448 15.0261 38.9393 13.9441 41.5899C13.6378 42.3404 12.9953 42.9951 12.3827 43.5599C12.0983 43.8214 11.3962 43.9611 11.1038 43.7875C10.8055 43.6098 10.6285 42.9631 10.6643 42.544C10.7319 41.7316 10.9567 40.9273 11.1675 40.1349C11.609 38.4922 12.1441 36.8715 12.524 35.2149C12.7726 34.1331 11.8855 33.2728 10.6404 33.2129C9.82694 33.173 9.6002 33.5682 9.53655 34.8376C9.50672 35.4484 9.36948 36.0691 9.18848 36.6579C8.916 37.5521 8.50031 38.4064 8.26163 39.3086C7.81213 41.0071 7.35666 42.7117 7.07821 44.4421C6.87534 45.7116 7.14981 46.985 8.35114 47.7435C9.56241 48.5079 10.7518 48.1885 11.8298 47.3882C12.4325 46.9391 12.9814 46.4161 13.6537 45.8413C13.0212 47.7814 12.4464 49.6157 11.8119 51.428C11.7204 51.6914 11.3704 51.905 11.0939 52.0567C9.56042 52.901 7.92948 53.5976 6.48749 54.5736C3.2276 56.7811 0.946274 59.7451 0.134782 63.6991C-0.223229 65.4395 0.0950035 67.0143 1.53699 68.158C3.02871 69.3396 4.65766 69.148 6.26075 68.3676C7.80815 67.6131 8.90804 66.3477 9.93434 65.0084C12.0247 62.2859 13.234 59.1343 14.2782 55.9109C14.4791 55.2881 14.7814 54.9848 15.4099 54.859C18.988 54.1425 22.5582 53.384 26.1363 52.6655C27.3158 52.4279 28.5111 52.2663 29.7642 52.0587C29.7841 52.4838 29.7204 52.7992 29.8278 53.0327C30.0287 53.4658 30.2554 54.0706 30.6135 54.1964C30.9695 54.3221 31.6099 54.0586 31.9262 53.7572C32.2882 53.41 32.5268 52.8531 32.6422 52.3461C32.7655 51.7972 33.032 51.6016 33.5392 51.5358C36.7951 51.1186 40.051 50.6935 43.3049 50.2603C45.2382 50.0029 47.1794 49.7753 49.0968 49.426C50.0833 49.2464 50.4015 48.3782 50.0097 47.448C49.7173 46.7495 49.1624 46.4261 48.4623 46.48L48.4643 46.478ZM34.9533 41.1189C35.552 38.8794 36.103 36.624 36.819 34.4225C37.0676 33.658 37.6623 32.9535 38.2411 32.3627C38.9253 31.6641 39.6154 31.9096 39.8541 32.8537C39.9794 33.3427 40.0033 33.8576 40.0431 34.1391C39.9357 36.4424 39.333 38.3884 38.434 40.2307C37.9069 41.3125 37.1114 42.1688 35.733 42.049C35.1781 42.0011 34.7803 41.7596 34.9514 41.1189H34.9533ZM28.3659 34.2468C27.628 36.7378 26.8185 39.2088 26.011 41.6798C25.9096 41.9911 25.6828 42.2785 25.4561 42.524C24.8674 43.1627 23.9982 43.0849 23.6402 42.3005C23.3538 41.6738 23.2504 40.9612 23.1191 40.4822C23.4473 37.9932 23.9425 35.8216 25.6828 34.1949C26.1224 33.7838 26.6972 33.4724 27.2641 33.2588C27.9662 32.9934 28.5807 33.5243 28.3659 34.2488V34.2468ZM6.27069 64.0084C5.8729 64.4775 5.3876 64.9046 4.86252 65.218C4.54429 65.4076 3.92771 65.5194 3.70694 65.3417C3.43047 65.1182 3.24152 64.5134 3.33103 64.1541C3.54384 63.3139 3.8581 62.4716 4.28572 61.7191C5.68395 59.2601 7.71069 57.4777 10.4952 56.2043C9.39136 59.1703 8.16815 61.779 6.27069 64.0104V64.0084ZM46.6603 38.085C46.7637 37.5641 47.0223 37.3306 47.5971 37.2128C50.849 36.5422 53.369 33.8876 53.9379 30.6382C54.2979 28.5883 53.1105 27.1093 51.04 27.0235C49.9083 26.9776 48.9098 27.3309 48.0844 28.0953C44.8126 31.1272 43.5277 35.0272 43.1876 39.3205C43.2632 40.0371 43.301 40.7217 43.4143 41.3903C43.8121 43.7216 45.6181 44.8992 47.8915 44.3184C49.8267 43.8254 51.3324 42.6558 52.6828 41.2327C53.5838 40.2806 53.6912 39.8395 53.1662 38.6599C52.7286 37.6739 52.3248 37.6579 51.5511 38.4303C50.8152 39.1649 50.0137 39.8515 49.1604 40.4403C48.5319 40.8734 47.7324 41.1708 47.0223 40.6219C46.2924 40.057 46.4674 39.2008 46.5589 38.4104C46.5708 38.3006 46.6364 38.1968 46.6583 38.085H46.6603ZM49.4249 30.6821C49.7173 30.225 50.2941 29.7879 50.7655 30.1851C51.0459 30.4206 51.1116 31.199 50.9584 31.6162C50.3975 33.1331 49.1584 33.9155 47.6866 34.3566C47.5852 34.2828 47.4837 34.2069 47.3803 34.1331C48.0566 32.9794 48.703 31.8058 49.4249 30.6821Z" fill="#5F0B72"/>
<path d="M30.0831 0C23.4638 0 18.0977 5.38507 18.0977 12.0276C18.0977 15.1972 19.3228 18.0793 21.3198 20.229L21.0373 25.3266C21.0115 25.7897 21.5266 26.0811 21.9085 25.8176L25.6815 23.2149C27.0459 23.7558 28.5297 24.0572 30.0851 24.0572C36.7043 24.0572 42.0705 18.6721 42.0705 12.0296C42.0705 5.38707 36.7023 0 30.0831 0ZM30.9562 16.8099C30.6519 17.3308 30.2303 17.734 29.7052 18.0075C29.1861 18.2769 28.5556 18.4126 27.8336 18.4126C26.7019 18.4126 25.7849 18.0733 25.1067 17.4027C24.4265 16.7321 24.0705 15.8199 24.0446 14.6882C24.0446 14.6822 24.0247 14.4547 24.1918 14.2631C24.3211 14.1134 24.518 14.0355 24.7746 14.0275C25.0749 14.0235 25.3096 14.0894 25.4548 14.2351C25.5682 14.3469 25.6059 14.4846 25.604 14.5764C25.6557 15.0714 25.775 15.4826 25.958 15.764C26.137 16.0415 26.4015 16.271 26.7396 16.4426C27.0837 16.6163 27.4775 16.7041 27.9131 16.7041C28.5337 16.7041 29.015 16.5604 29.3452 16.275C29.6694 15.9955 29.8265 15.6423 29.8265 15.1932C29.8265 14.9317 29.7708 14.7121 29.6554 14.5225C29.5421 14.3349 29.3651 14.1772 29.1304 14.0535C28.8698 13.9158 28.2811 13.7162 27.3861 13.4567C26.5368 13.2112 25.9441 12.9677 25.5741 12.7102C25.1982 12.4507 24.8999 12.1154 24.691 11.7142C24.4822 11.313 24.3748 10.858 24.3748 10.357C24.3748 9.45881 24.6791 8.71232 25.2778 8.13948C25.8725 7.56864 26.68 7.27923 27.6764 7.27923C28.3547 7.27923 28.9593 7.41296 29.4745 7.67842C29.9956 7.94787 30.4073 8.33708 30.6957 8.84006C30.9801 9.33706 31.1352 9.92386 31.1551 10.5885C31.1551 10.6065 31.167 10.852 30.988 11.0496C30.9005 11.1474 30.7315 11.2671 30.4411 11.2751C30.1388 11.2871 29.9061 11.2152 29.7509 11.0675C29.5878 10.9139 29.5739 10.7342 29.5739 10.7003C29.5222 10.1095 29.3412 9.66239 29.0369 9.38296C28.7306 9.10353 28.2851 8.96182 27.7122 8.96182C27.1394 8.96182 26.676 9.08557 26.3816 9.33107C26.0952 9.56859 25.956 9.86598 25.956 10.2452C25.956 10.5945 26.0535 10.854 26.2524 11.0356C26.4035 11.1753 26.8013 11.3989 27.8375 11.6783C28.7127 11.9138 29.3153 12.1154 29.6793 12.2951C30.2442 12.5765 30.6798 12.9557 30.9701 13.4188C31.2625 13.8838 31.4117 14.4427 31.4117 15.0794C31.4117 15.7161 31.2585 16.2909 30.9542 16.8119L30.9562 16.8099ZM38.0906 9.06561L33.4563 17.5264C33.3091 17.7959 33.0267 17.9636 32.7204 17.9636C32.5792 17.9636 32.44 17.9276 32.3167 17.8598C31.9109 17.6362 31.7637 17.1233 31.9845 16.7161L36.6188 8.25525C36.8415 7.85007 37.3527 7.70038 37.7584 7.92193C38.1642 8.14547 38.3114 8.65843 38.0886 9.06561H38.0906Z" fill="#01D0B5"/>
</svg>
