<svg width="16" height="17" viewBox="0 0 16 17" fill="none" xmlns="http://www.w3.org/2000/svg">
<path d="M15.32 4.39716C14.886 3.62516 14.415 3.48316 13.456 3.42916C12.498 3.36416 10.089 3.33716 8.002 3.33716C5.911 3.33716 3.501 3.36416 2.544 3.42816C1.587 3.48316 1.115 3.62416 0.677 4.39716C0.23 5.16816 0 6.49616 0 8.83416C0 8.83616 0 8.83716 0 8.83716C0 8.83916 0 8.84016 0 8.84016V8.84216C0 11.1702 0.23 12.5082 0.677 13.2712C1.115 14.0432 1.586 14.1832 2.543 14.2482C3.501 14.3042 5.911 14.3372 8.002 14.3372C10.089 14.3372 12.498 14.3042 13.457 14.2492C14.416 14.1842 14.887 14.0442 15.321 13.2722C15.772 12.5092 16 11.1712 16 8.84316C16 8.84316 16 8.84016 16 8.83816C16 8.83816 16 8.83616 16 8.83516C16 6.49616 15.772 5.16816 15.32 4.39716ZM6 11.8372V5.83716L11 8.83716L6 11.8372Z" fill="white"/>
</svg>
