<?xml version="1.0" encoding="UTF-8"?>
<svg id="Capa_2" data-name="Capa 2" xmlns="http://www.w3.org/2000/svg" viewBox="0 0 1143 365.27">
  <defs>
    <style>
      .cls-1 {
        fill: #fff;
      }
    </style>
  </defs>
  <g id="Capa_1-2" data-name="Capa 1">
    <g id="Inclub">
      <g>
        <path class="cls-1" d="m.16,238.37v5.89c0,12.55,10.17,22.72,22.72,22.72h7.6c12.55,0,22.72-10.17,22.72-22.72v-95.58c0-12.63-.1-25.27,0-37.91,0,0,0,0,0,0,.2-31.71,25.96-57.36,57.72-57.36s55.95,24.11,57.63,54.49c.01.06.12,3.12.12,3.66.15,44.23,0,88.47,0,132.71,0,12.55,10.17,22.72,22.72,22.72h7.59c12.55,0,22.72-10.17,22.72-22.72v-101.46c0-17.37.84-34.86-1.95-52.06C211.36,39.05,163.71,1.23,112.37.05c-.48-.03-.95-.05-1.43-.05C50.42,0,.68,50.65.16,110.77-.2,153.3.16,195.84.16,238.37Z"/>
        <circle class="cls-1" cx="111.01" cy="26.58" r="26.44"/>
        <g>
          <rect class="cls-1" x="374.05" y="124.18" width="26.12" height="109.93"/>
          <polygon class="cls-1" points="533.09 188.33 486.99 123.88 458.01 123.88 458.01 234.26 481.13 234.26 481.13 162.5 533.71 234.26 555.61 234.26 555.61 123.88 533.09 123.88 533.09 188.33"/>
          <path class="cls-1" d="m690.73,192.24l-.56,1.06c-5.59,10.56-16.95,16.85-29.2,15.95-16.09-1.18-28.34-14.44-28.33-30.58,0-16.89,13.75-30.64,30.65-30.64,10.78,0,20.74,5.7,26,14.87l.58,1.01,27.12-.03c-.57-2.27-1.43-4.95-2.79-7.81-.83-1.75-1.71-3.29-2.57-4.64-2.39-4.39-8.07-13.42-19.09-20.28-11.12-6.92-22.22-8.23-29.25-8.2-23.51.09-38.46,15.28-40.35,17.26-14.96,15.7-15.37,34.56-15.37,38.46,0,4.03.44,21.83,14.2,37.19,1.6,1.79,16.98,18.39,41.52,18.53,5.33.03,16.36-.69,27.89-7.34,8.86-5.11,16.26-12.73,21.36-22.36.98-1.84,1.97-3.97,2.88-6.39.82-2.18,1.43-4.22,1.89-6.08-8.86,0-17.73,0-26.59,0Z"/>
          <polygon class="cls-1" points="789.87 123.72 764.2 123.72 764.2 233.36 844.94 233.36 844.94 211 789.87 211 789.87 123.72"/>
          <path class="cls-1" d="m964.91,192.23c0,16.3-5.5,22.07-21.02,22.07-18.39,0-20.87-11.16-20.87-22.07v-68.06h-26.13v68.06c0,29.07,16.25,44.43,46.99,44.43s47.14-15.78,47.14-44.43v-68.06h-26.12v68.06Z"/>
          <path class="cls-1" d="m1125.22,174.21c8.63-5.01,12.67-12.11,12.67-22.15,0-18.76-11.63-27.88-35.56-27.88h-51.81v109.93h53.31c18.07,0,39.17-8.48,39.17-32.4,0-13.49-6.29-23.15-17.78-27.5Zm-48.57,12.05h24.48c10.6,0,15.75,4.61,15.75,14.1,0,8.68-5.3,12.9-16.2,12.9h-24.03v-26.99Zm22.67-18.6h-22.67v-22.63h20.87c10.23,0,15,3.52,15,11.09,0,9.54-7.18,11.54-13.19,11.54Z"/>
        </g>
        <path class="cls-1" d="m305.96,126.9v-5.89c0-12.55-10.17-22.72-22.72-22.72h-7.6c-12.55,0-22.72,10.17-22.72,22.72v95.58c0,12.63.1,25.27,0,37.91,0,0,0,0,0,0-.2,31.71-25.96,57.36-57.72,57.36s-55.95-24.11-57.63-54.49c-.01-.06-.12-3.12-.12-3.66-.15-44.23,0-88.47,0-132.71,0-12.55-10.17-22.72-22.72-22.72h-7.59c-12.55,0-22.72,10.17-22.72,22.72v101.46c0,17.37-.84,34.86,1.95,52.06,8.39,51.68,56.04,89.51,107.39,90.69.48.03.95.05,1.43.05,60.52,0,110.25-50.65,110.77-110.77.37-42.53,0-85.07,0-127.6Z"/>
      </g>
      <g>
        <path class="cls-1" d="m376.92,285.6c0-10.17,5.99-16.37,13.99-16.37,3.83,0,6.82,1.86,8.67,3.89l-2.2,2.61c-1.66-1.77-3.74-2.97-6.4-2.97-5.96,0-9.92,4.88-9.92,12.73s3.78,12.89,9.76,12.89c3.01,0,5.29-1.31,7.31-3.54l2.2,2.52c-2.49,2.89-5.58,4.55-9.67,4.55-7.85,0-13.74-6.07-13.74-16.31Z"/>
        <path class="cls-1" d="m415.44,285.46c0-10.1,5.56-16.22,13.47-16.22s13.47,6.14,13.47,16.22-5.56,16.45-13.47,16.45-13.47-6.35-13.47-16.45Zm22.8,0c0-7.85-3.7-12.7-9.33-12.7s-9.33,4.84-9.33,12.7,3.7,12.92,9.33,12.92,9.33-5.07,9.33-12.92Z"/>
        <path class="cls-1" d="m461.64,269.81h4.14l11.41,19.82,3.4,6.53h.19c-.2-3.18-.51-6.73-.51-10.03v-16.31h3.81v31.52h-4.14l-11.41-19.83-3.4-6.51h-.19c.2,3.19.51,6.55.51,9.85v16.5h-3.81v-31.52Z"/>
        <path class="cls-1" d="m502.91,297.23l2.4-2.75c2.27,2.35,5.42,3.91,8.7,3.91,4.14,0,6.59-2.06,6.59-5.12,0-3.22-2.28-4.25-5.26-5.55l-4.53-2c-2.94-1.25-6.38-3.48-6.38-8.12s4.2-8.37,9.92-8.37c3.74,0,7.07,1.62,9.28,3.9l-2.13,2.58c-1.93-1.82-4.24-2.96-7.15-2.96-3.53,0-5.88,1.78-5.88,4.6,0,3.04,2.75,4.17,5.22,5.22l4.49,1.94c3.65,1.57,6.49,3.74,6.49,8.43,0,4.98-4.11,8.96-10.74,8.96-4.42,0-8.27-1.8-11.03-4.68Z"/>
        <path class="cls-1" d="m548.93,273.21h-9.54v-3.4h23.08v3.4h-9.54v28.13h-4.01v-28.13Z"/>
        <path class="cls-1" d="m580.6,269.81h9.87c6.42,0,11.03,2.31,11.03,8.87s-4.61,9.33-11.03,9.33h-5.86v13.32h-4.01v-31.52Zm9.3,14.95c4.91,0,7.61-1.99,7.61-6.07s-2.7-5.62-7.61-5.62h-5.28v11.69h5.28Zm-.21,2.15l3.14-2.07,9.62,16.5h-4.55l-8.21-14.42Z"/>
        <path class="cls-1" d="m620.28,288.32v-18.51h4.01v18.62c0,7.57,3.2,9.96,7.32,9.96s7.47-2.38,7.47-9.96v-18.62h3.84v18.51c0,10.12-4.88,13.59-11.32,13.59s-11.33-3.48-11.33-13.59Z"/>
        <path class="cls-1" d="m668.31,289.12l-9.47-19.31h4.28l4.07,8.9c1.01,2.32,1.96,4.51,3.05,6.87h.19c1.09-2.36,2.18-4.55,3.15-6.87l4.07-8.9h4.15l-9.47,19.31v12.22h-4.01v-12.22Z"/>
        <path class="cls-1" d="m698.02,269.81h18.17v3.4h-14.16v9.88h11.94v3.39h-11.94v11.46h14.64v3.39h-18.65v-31.52Z"/>
        <path class="cls-1" d="m735.82,269.81h4.14l11.41,19.82,3.4,6.53h.19c-.2-3.18-.51-6.73-.51-10.03v-16.31h3.81v31.52h-4.14l-11.41-19.83-3.4-6.51h-.19c.2,3.19.51,6.55.51,9.85v16.5h-3.81v-31.52Z"/>
        <path class="cls-1" d="m779.38,269.81h7.89c9.69,0,14.89,5.63,14.89,15.65s-5.2,15.87-14.71,15.87h-8.06v-31.52Zm7.59,28.23c7.37,0,11.04-4.62,11.04-12.59s-3.68-12.36-11.04-12.36h-3.58v24.94h3.58Z"/>
        <path class="cls-1" d="m819.57,285.46c0-10.1,5.56-16.22,13.47-16.22s13.47,6.14,13.47,16.22-5.56,16.45-13.47,16.45-13.47-6.35-13.47-16.45Zm22.8,0c0-7.85-3.7-12.7-9.33-12.7s-9.33,4.84-9.33,12.7,3.7,12.92,9.33,12.92,9.33-5.07,9.33-12.92Z"/>
        <path class="cls-1" d="m894.34,269.81h4.53l10.66,31.52h-4.25l-5.5-17.61c-1.13-3.52-2.14-6.98-3.16-10.62h-.19c-.98,3.66-1.99,7.1-3.12,10.62l-5.56,17.61h-4.08l10.66-31.52Zm-5.06,18.72h14.51v3.2h-14.51v-3.2Z"/>
        <path class="cls-1" d="m924.16,285.6c0-10.17,5.99-16.37,13.99-16.37,3.83,0,6.82,1.86,8.67,3.89l-2.2,2.61c-1.66-1.77-3.74-2.97-6.4-2.97-5.96,0-9.92,4.88-9.92,12.73s3.78,12.89,9.76,12.89c3.01,0,5.29-1.31,7.31-3.54l2.2,2.52c-2.49,2.89-5.58,4.55-9.67,4.55-7.85,0-13.74-6.07-13.74-16.31Z"/>
        <path class="cls-1" d="m971.6,273.21h-9.54v-3.4h23.08v3.4h-9.54v28.13h-4.01v-28.13Z"/>
        <path class="cls-1" d="m1003.27,269.81h4.01v31.52h-4.01v-31.52Z"/>
        <path class="cls-1" d="m1024.08,269.81h4.25l5.09,17.04c1.11,3.71,1.87,6.71,3.03,10.41h.19c1.17-3.7,1.94-6.7,3.03-10.41l5.05-17.04h4.08l-10.01,31.52h-4.65l-10.07-31.52Z"/>
        <path class="cls-1" d="m1063.29,285.46c0-10.1,5.56-16.22,13.47-16.22s13.47,6.14,13.47,16.22-5.56,16.45-13.47,16.45-13.47-6.35-13.47-16.45Zm22.8,0c0-7.85-3.7-12.7-9.33-12.7s-9.33,4.84-9.33,12.7,3.7,12.92,9.33,12.92,9.33-5.07,9.33-12.92Z"/>
        <path class="cls-1" d="m1107.21,297.23l2.4-2.75c2.27,2.35,5.42,3.91,8.7,3.91,4.14,0,6.59-2.06,6.59-5.12,0-3.22-2.28-4.25-5.26-5.55l-4.53-2c-2.94-1.25-6.38-3.48-6.38-8.12s4.2-8.37,9.92-8.37c3.74,0,7.07,1.62,9.28,3.9l-2.13,2.58c-1.93-1.82-4.24-2.96-7.16-2.96-3.53,0-5.88,1.78-5.88,4.6,0,3.04,2.75,4.17,5.22,5.22l4.49,1.94c3.65,1.57,6.49,3.74,6.49,8.43,0,4.98-4.11,8.96-10.74,8.96-4.42,0-8.27-1.8-11.03-4.68Z"/>
      </g>
    </g>
  </g>
</svg>