<?xml version="1.0" encoding="UTF-8"?>
<svg id="Capa_2" data-name="Capa 2" xmlns="http://www.w3.org/2000/svg" viewBox="0 0 1100.45 508.54">
  <defs>
    <style>
      .cls-1 {
        fill: #fff;
      }
    </style>
  </defs>
  <g id="Capa_1-2" data-name="Capa 1">
    <g id="InResort">
      <path class="cls-1" d="m819.4,229.86c-8.75,3.93-17.59,7.41-26.85,9.95-9.41,2.58-18.95,2.25-28.49,2.54-12.44-2.36-24.28-6.35-35.31-12.65-7.45-4.26-14.94-8.47-22.4-12.7-15.34-9.23-31.79-15.67-49.29-19.47-14.77-3.93-29.76-5.53-45.02-4.01l-5.64.85c-1.13.23-2.26.45-3.4.68-.91.17-2.26.44-3.88.79-13.05,2.8-27.9,5.74-42.88,15.17-14.59,9.18-26.64,22.11-36.26,38.55-.86,1.47-2.88,3.03-1.47,5.57,24.28-15.92,50.5-24.67,79.47-24.34,1.89.03,3.77.05,5.66.08,2.8.36,5.6.72,8.4,1.08,10.55,1.39,20.5,5.22,30.82,7.58,18.22,7.32,35.32,16.83,52.24,26.69,15.74,10.63,33.03,16.41,52.11,16.62,34.41,1.96,74.49-27.37,72.2-52.96Z"/>
      <path class="cls-1" d="m451.53,252.32c-4.18-1.31-8.49-2.05-12.7-3.35-10.62-3.28-35.59-15.28-35.99-15.51-11.97-6.98-21.38-17.24-32.99-24.73-23.89-15.41-37.87-17.19-37.87-17.19-26.85-8.58-60.71,2.75-68.51,19.81,14,.18,27.45,2.57,40.1,8.51,4.81,2.26,9.47,4.81,14.2,7.23,5.12,2.21,29.53,22.47,39.46,30.64,12.46,10.25,26.48,17.57,42.22,21.45,14.27,4.73,28.8,6.46,43.71,3.78,17.93.2,50.37-15.33,55.69-27.48-16,.81-31.68-.88-47.32-3.15Z"/>
      <path class="cls-1" d="m685.39,132.68c-10.03-22.23-22.54-42.94-39.45-60.76-12.12-14.42-26.09-26.71-42.27-36.42-6.42-5.09-13.64-8.86-21-12.29-7.74-3.61-25.1-10.54-25.84-10.79-15.04-4.96-30.21-9.33-46.12-10.52-15.89-2.85-31.89-1.81-47.87-1.18l-6.58.67c-15.98,1.49-31.94,4.09-47.02,10.04-18.77,5.51-36.26,13.63-52.12,25.15-51.1,37.24-88.84,82.99-95.6,148.6,9.47-10.73,20.59-18.28,34.42-21.73,14.49-3.62,28.79-2.27,43.04,1.29,14.99,4.94,27.93,13.61,40.83,22.36,14.34,10.97,28.34,22.44,45.02,29.9,15.76,8.75,32.9,12.52,50.69,13.87,8.12.19,16.23.58,24.35.59,4.33,0,4.27-.5,5.76-2.86,6.47-10.26,14.78-19,23.38-27.49,1.31-1.4,2.01-1.93,2.01-1.93,13.5-10.85,28.36-19.35,44.51-25.61l1.31-.4c.97-.34,1.96-.6,2.93-.94l1.3-.38c.99-.3,1.98-.6,2.98-.89,15.67-3.45,18.77-3.1,29.44-4.29,18.98.6,37.74,2.63,55.93,8.5,11.39,3.68,22.45,8.24,34.03,13.39-3.55-20.12-10.11-38.25-18.06-55.88Z"/>
      <g>
        <path class="cls-1" d="m667,508.54c-47.15.05-84.28-36.06-84.55-82.2-.27-46.77,36.88-84.63,83.18-84.77,47.96-.15,84.76,35.92,84.98,83.3.22,47.15-36.23,83.63-83.62,83.67Zm67.77-82.98c.11-38.17-29.88-68.89-67.4-69.03-38.54-.14-68.77,30.05-69.12,69.02-.34,37.45,29.99,68.35,67.27,68.53,39.17.2,69.14-29.46,69.25-68.53Z"/>
        <g>
          <path class="cls-1" d="m0,345.61h20.09v157.85H0v-157.85Z"/>
          <path class="cls-1" d="m63.25,345.61h20.74l57.13,99.24,17.04,32.68h.96c-1.01-15.92-2.56-33.71-2.56-50.22v-81.7h19.07v157.85h-20.74l-57.13-99.32-17.04-32.59h-.96c1.01,15.97,2.55,32.81,2.55,49.31v82.61h-19.07v-157.85Z"/>
          <path class="cls-1" d="m218.85,345.61h49.44c32.15,0,55.23,11.55,55.23,44.43s-23.08,46.71-55.23,46.71h-29.35v66.72h-20.09v-157.85Zm46.55,74.84c24.56,0,38.09-9.95,38.09-30.41s-13.52-28.13-38.09-28.13h-26.46v58.55h26.46Zm-19.66,13.04l15.74-10.39,66.76,80.37h-22.77l-59.72-69.97Z"/>
          <path class="cls-1" d="m770.55,345.61h49.44c32.15,0,55.23,11.55,55.23,44.43s-23.08,46.71-55.23,46.71h-29.35v66.72h-20.09v-157.85Zm46.55,74.84c24.56,0,38.09-9.95,38.09-30.41s-13.52-28.13-38.09-28.13h-26.46v58.55h26.46Zm-19.66,13.04l15.74-10.39,66.76,80.37h-22.77l-59.72-69.97Z"/>
          <path class="cls-1" d="m355.69,345.61h90.98v17h-70.89v49.46h59.8v17h-59.8v57.39h73.3v17h-93.39v-157.85Z"/>
          <path class="cls-1" d="m470.99,482.92l10.64-13.79c10.07,11.79,24.03,19.56,38.56,19.56,18.34,0,29.21-10.32,29.21-25.66,0-16.12-10.12-21.26-23.32-27.77l-20.07-10c-13.02-6.28-28.3-17.43-28.3-40.64s18.6-41.9,44-41.9c16.56,0,31.34,8.1,41.15,19.56l-9.43,12.9c-8.56-9.13-18.81-14.8-31.72-14.8-15.67,0-26.05,8.93-26.05,23.05,0,15.21,12.18,20.89,23.13,26.12l19.92,9.74c16.17,7.85,28.79,18.73,28.79,42.2,0,24.94-18.24,44.86-47.63,44.86-19.62,0-36.67-9.04-48.89-23.43Z"/>
          <path class="cls-1" d="m1003.94,482.92l10.64-13.79c10.07,11.79,24.03,19.56,38.56,19.56,18.34,0,29.21-10.32,29.21-25.66,0-16.12-10.12-21.26-23.32-27.77l-20.07-10c-13.02-6.28-28.3-17.43-28.3-40.64s18.6-41.9,44-41.9c16.56,0,31.34,8.1,41.15,19.56l-9.43,12.9c-8.56-9.13-18.81-14.8-31.72-14.8-15.67,0-26.05,8.93-26.05,23.05,0,15.21,12.18,20.89,23.13,26.12l19.92,9.74c16.17,7.85,28.79,18.73,28.79,42.2,0,24.94-18.24,44.86-47.63,44.86-19.62,0-36.67-9.04-48.89-23.43Z"/>
          <path class="cls-1" d="m936.89,362.62h-47.75v-17h115.59v17h-47.75v140.85h-20.09v-140.85Z"/>
        </g>
      </g>
    </g>
  </g>
</svg>