<?xml version="1.0" encoding="UTF-8"?>
<svg id="Capa_2" data-name="Capa 2" xmlns="http://www.w3.org/2000/svg" viewBox="0 0 1043 377.86">
  <defs>
    <style>
      .cls-1 {
        fill: #fff;
      }

      .cls-2 {
        fill: #f9f9f9;
      }

      .cls-3 {
        fill: none;
      }
    </style>
  </defs>
  <g id="Capa_1-2" data-name="Capa 1">
    <g id="Keola">
      <g>
        <path class="cls-1" d="m.82,4.43h57.57v98.9s7.38,13.29,16.24,2.95L155.82,4.43h70.86l-95.95,118.09,104.81,186h-66.32l-73.92-134.33s-5.9-7.38-11.81-2.95l-25.09,31v106.28H0V4.43h.82Z"/>
        <path class="cls-1" d="m372.82,76.76c-70.86-54.62-131.38-10.33-131.38-10.33-63.48,41.33-49.32,112.19-49.32,112.19,17.11,81.19,93.6,87.09,93.6,87.09,82.67,10.33,112.19-54.62,112.19-54.62l-56.09-11.81c-14.76,17.71-39.86,17.71-39.86,17.71-50.19,0-56.09-38.38-56.09-38.38h160.9c5.9-73.81-33.95-101.86-33.95-101.86Zm-124,56.09c13.29-32.48,50.19-32.48,50.19-32.48,41.33-1.48,50.03,32.48,50.03,32.48h-100.22Z"/>
        <path class="cls-1" d="m576.53,0c-86.42,0-156.47,70.06-156.47,156.47s70.06,156.47,156.47,156.47,156.47-70.06,156.47-156.47S662.95,0,576.53,0Zm0,255.38c-55.44,0-100.38-44.94-100.38-100.38s44.94-100.38,100.38-100.38,100.38,44.94,100.38,100.38-44.94,100.38-100.38,100.38Z"/>
        <rect class="cls-1" x="744.81" y="4.43" width="56.09" height="304.09"/>
        <g>
          <circle class="cls-3" cx="933.76" cy="155" r="56.09" transform="translate(-10.63 218.68) rotate(-13.28)"/>
          <path class="cls-1" d="m1043,51.67h-56.09v19.04c-17.3-15.59-39.39-24.95-63.48-24.95-55.44,0-100.38,49.57-100.38,110.71s44.94,110.71,100.38,110.71c20.95,0,40.39-7.09,56.49-19.19l6.99-5.9.04.11,1.44,4.32v5.9l-1.45,7.38h56.07V51.67Zm-109.24,159.43c-30.98,0-56.09-25.11-56.09-56.09s25.11-56.09,56.09-56.09,56.09,25.11,56.09,56.09-25.11,56.09-56.09,56.09Z"/>
          <path class="cls-2" d="m988.38,246.52l-1.44-4.32-.04-.11-6.99,5.9-.14.12c6.16.11,7.13,11.7,7.13,11.7v.14l.03-.14,1.45-7.38v-5.9Z"/>
        </g>
        <path class="cls-1" d="m685.77,333.62s100.38,48.71,175.66-20.67h33.95v31.16h-28.05s-112.19,82.5-181.57-10.5Z"/>
      </g>
    </g>
  </g>
</svg>