<svg width="32" height="32" viewBox="0 0 32 32" fill="none" xmlns="http://www.w3.org/2000/svg">
<path d="M4.22656 9.92004L15.9999 16.7334L27.6932 9.96" stroke="#546E7A" stroke-width="2" stroke-linecap="round" stroke-linejoin="round"/>
<path d="M16 28.8134V16.72" stroke="#546E7A" stroke-width="2" stroke-linecap="round" stroke-linejoin="round"/>
<path d="M13.2408 3.30669L6.12081 7.26673C4.50748 8.16006 3.1875 10.4 3.1875 12.24V19.7734C3.1875 21.6134 4.50748 23.8534 6.12081 24.7467L13.2408 28.7068C14.7608 29.5468 17.2541 29.5468 18.7741 28.7068L25.8942 24.7467C27.5075 23.8534 28.8275 21.6134 28.8275 19.7734V12.24C28.8275 10.4 27.5075 8.16006 25.8942 7.26673L18.7741 3.30669C17.2408 2.45335 14.7608 2.45335 13.2408 3.30669Z" stroke="#546E7A" stroke-width="2" stroke-linecap="round" stroke-linejoin="round"/>
<path d="M22.667 17.6533V12.7733L10.0137 5.46661" stroke="#546E7A" stroke-width="2" stroke-linecap="round" stroke-linejoin="round"/>
</svg>
