<svg width="16" height="16" viewBox="0 0 16 16" fill="none" xmlns="http://www.w3.org/2000/svg">
<path d="M4 4.16406V5.4974" stroke="#5F7081" stroke-width="1.2" stroke-linecap="round" stroke-linejoin="round"/>
<path d="M14.6654 8.0026V6.0026C14.6654 2.66927 13.332 1.33594 9.9987 1.33594H5.9987C2.66536 1.33594 1.33203 2.66927 1.33203 6.0026V10.0026C1.33203 13.3359 2.66536 14.6693 5.9987 14.6693H7.9987" stroke="#5F7081" stroke-width="1.2" stroke-linecap="round" stroke-linejoin="round"/>
<path d="M6.66797 4.16406V5.4974" stroke="#5F7081" stroke-width="1.2" stroke-linecap="round" stroke-linejoin="round"/>
<path d="M4 10.6641V11.9974" stroke="#5F7081" stroke-width="1.2" stroke-linecap="round" stroke-linejoin="round"/>
<path d="M6.66797 10.6641V11.9974" stroke="#5F7081" stroke-width="1.2" stroke-linecap="round" stroke-linejoin="round"/>
<path d="M9.33203 4.83594H11.9987" stroke="#5F7081" stroke-width="1.2" stroke-linecap="round" stroke-linejoin="round"/>
<path d="M1.33203 8H14.6654" stroke="#5F7081" stroke-width="1.2" stroke-linecap="round" stroke-linejoin="round"/>
<path d="M14.3742 13.5507C14.0009 14.1974 13.3009 14.6307 12.5009 14.6307C11.3076 14.6307 10.5742 13.4307 10.5742 13.4307M10.6209 11.3907C10.9942 10.7374 11.6942 10.3041 12.5009 10.3041C13.9476 10.3041 14.6676 11.5041 14.6676 11.5041M14.6676 10.1641V11.4974H13.3342M11.9076 13.4241H10.5742V14.6641" stroke="#5F7081" stroke-width="1.2" stroke-linecap="round" stroke-linejoin="round"/>
</svg>