<svg width="32" height="32" viewBox="0 0 32 32" fill="none" xmlns="http://www.w3.org/2000/svg">
<path d="M28.1908 17.5239V22.0954C28.1908 24.0763 23.4151 26.6668 17.5241 26.6668C11.633 26.6668 6.85742 24.0763 6.85742 22.0954V18.2858" stroke="#546E7A" stroke-width="1.8" stroke-linecap="round" stroke-linejoin="round"/>
<path d="M7.30469 18.6807C8.62278 20.43 12.699 22.0711 17.5234 22.0711C23.4144 22.0711 28.19 19.6239 28.19 17.521C28.19 16.3401 26.686 15.0464 24.3256 14.1382" stroke="#546E7A" stroke-width="1.8" stroke-linecap="round" stroke-linejoin="round"/>
<path d="M23.6185 9.90491V14.4763C23.6185 16.4573 18.8429 19.0478 12.9518 19.0478C7.06078 19.0478 2.28516 16.4573 2.28516 14.4763V9.90491" stroke="#546E7A" stroke-width="1.8" stroke-linecap="round" stroke-linejoin="round"/>
<path fill-rule="evenodd" clip-rule="evenodd" d="M12.9518 14.452C18.8429 14.452 23.6185 12.0047 23.6185 9.90188C23.6185 7.7975 18.8429 5.3335 12.9518 5.3335C7.06078 5.3335 2.28516 7.7975 2.28516 9.90188C2.28516 12.0047 7.06078 14.452 12.9518 14.452Z" stroke="#546E7A" stroke-width="1.8" stroke-linecap="round" stroke-linejoin="round"/>
</svg>
