<svg width="32" height="32" viewBox="0 0 32 32" fill="none" xmlns="http://www.w3.org/2000/svg">
<path d="M29.3333 20C29.3333 25.16 25.16 29.3333 20 29.3333L21.4 27" stroke="#546E7A" stroke-width="2" stroke-linecap="round" stroke-linejoin="round"/>
<path d="M2.66602 12C2.66602 6.83996 6.83935 2.66663 11.9993 2.66663L10.5993 4.99996" stroke="#546E7A" stroke-width="2" stroke-linecap="round" stroke-linejoin="round"/>
<path d="M18.2676 5.93335L23.5742 9L28.8276 5.9467" stroke="#546E7A" stroke-width="2" stroke-linecap="round" stroke-linejoin="round"/>
<path d="M23.5742 14.4267V8.98669" stroke="#546E7A" stroke-width="2" stroke-linecap="round" stroke-linejoin="round"/>
<path d="M22.3208 2.94663L19.1208 4.7199C18.4008 5.1199 17.8008 6.13322 17.8008 6.95989V10.3466C17.8008 11.1733 18.3874 12.1866 19.1208 12.5866L22.3208 14.36C23.0008 14.7466 24.1208 14.7466 24.8141 14.36L28.0141 12.5866C28.7341 12.1866 29.3341 11.1733 29.3341 10.3466V6.95989C29.3341 6.13322 28.7474 5.1199 28.0141 4.7199L24.8141 2.94663C24.1341 2.57329 23.0141 2.57329 22.3208 2.94663Z" stroke="#5F7081" stroke-width="2" stroke-linecap="round" stroke-linejoin="round"/>
<path d="M3.13281 20.6001L8.42615 23.6667L13.6928 20.6134" stroke="#5F7081" stroke-width="2" stroke-linecap="round" stroke-linejoin="round"/>
<path d="M8.42578 29.0935V23.6534" stroke="#5F7081" stroke-width="2" stroke-linecap="round" stroke-linejoin="round"/>
<path d="M7.18601 17.6134L3.98602 19.3866C3.26602 19.7866 2.66602 20.8 2.66602 21.6266V25.0134C2.66602 25.84 3.25269 26.8533 3.98602 27.2533L7.18601 29.0267C7.86601 29.4134 8.98601 29.4134 9.67934 29.0267L12.8794 27.2533C13.5994 26.8533 14.1993 25.84 14.1993 25.0134V21.6266C14.1993 20.8 13.6127 19.7866 12.8794 19.3866L9.67934 17.6134C8.98601 17.24 7.86601 17.24 7.18601 17.6134Z" stroke="#5F7081" stroke-width="2" stroke-linecap="round" stroke-linejoin="round"/>
</svg>
