<svg  viewBox="0 0 87 87" fill="none" xmlns="http://www.w3.org/2000/svg">
<path d="M39.875 25.375H47.125V32.625H39.875V25.375ZM39.875 39.875H47.125V61.625H39.875V39.875ZM43.5 7.25C23.49 7.25 7.25 23.49 7.25 43.5C7.25 63.51 23.49 79.75 43.5 79.75C63.51 79.75 79.75 63.51 79.75 43.5C79.75 23.49 63.51 7.25 43.5 7.25ZM43.5 72.5C27.5138 72.5 14.5 59.4862 14.5 43.5C14.5 27.5138 27.5138 14.5 43.5 14.5C59.4862 14.5 72.5 27.5138 72.5 43.5C72.5 59.4862 59.4862 72.5 43.5 72.5Z" fill="currentColor"/>
</svg>
