<svg width="17" height="17" viewBox="0 0 17 17" fill="none" xmlns="http://www.w3.org/2000/svg">
<path d="M12.5 5.83398C12.5 4.77312 12.0786 3.7557 11.3284 3.00556C10.5783 2.25541 9.56087 1.83398 8.5 1.83398C7.43913 1.83398 6.42172 2.25541 5.67157 3.00556C4.92143 3.7557 4.5 4.77312 4.5 5.83398C4.5 10.5007 2.5 11.834 2.5 11.834H14.5C14.5 11.834 12.5 10.5007 12.5 5.83398Z" stroke="#17738E" stroke-width="1.33333" stroke-linecap="round" stroke-linejoin="round"/>
<path d="M9.65432 14.5C9.53712 14.7021 9.36888 14.8698 9.16647 14.9864C8.96406 15.1029 8.73458 15.1643 8.50099 15.1643C8.2674 15.1643 8.03792 15.1029 7.83551 14.9864C7.63309 14.8698 7.46486 14.7021 7.34766 14.5" stroke="#17738E" stroke-width="1.33333" stroke-linecap="round" stroke-linejoin="round"/>
</svg>
