<svg width="72" height="72" viewBox="0 0 72 72" fill="none" xmlns="http://www.w3.org/2000/svg">
  <rect width="72" height="72" rx="36" fill="white" />

  <!-- Bloque izquierdo: ala azul + punto naranja -->
  <g class="left">
    <path d="M19.3499 42.0422V42.6854C19.3499 44.056 20.4576 45.1666 21.8247 45.1666H22.652C24.019 45.1666 25.1267 44.056 25.1267 42.6854V32.2439C25.1267 30.8645 25.1162 29.4833 25.1267 28.1021C25.1477 24.6386 27.9555 21.8358 31.4152 21.8358C34.875 21.8358 37.5127 24.4699 37.695 27.7893C37.695 27.7963 37.7073 28.1302 37.709 28.1882C37.7248 33.0206 37.709 37.853 37.709 42.6854C37.709 44.056 38.8167 45.1666 40.1838 45.1666H41.011C42.3781 45.1666 43.4858 44.056 43.4858 42.6854V31.6007C43.4858 29.7029 43.5769 27.7928 43.2737 25.9126C42.3623 20.2666 37.171 16.1335 31.5765 16.0053C31.5239 16.0018 31.4731 16 31.4205 16C24.8252 16 19.406 21.5335 19.3499 28.1021C19.3096 32.7482 19.3499 37.3961 19.3499 42.0422Z" fill="#0090BC"/>
    <path d="M31.4167 21.8333C33.0275 21.8333 34.3333 20.5275 34.3333 18.9167C34.3333 17.3058 33.0275 16 31.4167 16C29.8058 16 28.5 17.3058 28.5 18.9167C28.5 20.5275 29.8058 21.8333 31.4167 21.8333Z" fill="#E9662A"/>
  </g>

  <!-- Bloque derecho: ala naranja -->
  <g class="right">
    <path d="M52.6452 29.9564V29.3132C52.6452 27.9426 51.5377 26.832 50.1708 26.832H49.3437C47.9768 26.832 46.8693 27.9426 46.8693 29.3132V39.7547C46.8693 41.1342 46.8798 42.5154 46.8693 43.8965C46.8482 47.3601 44.0409 50.1628 40.5816 50.1628C37.1224 50.1628 34.485 47.5288 34.3028 44.2093C34.3028 44.2023 34.2905 43.8684 34.2888 43.8104C34.273 38.978 34.2888 34.1456 34.2888 29.3132C34.2888 27.9426 33.1812 26.832 31.8144 26.832H30.9872C29.6204 26.832 28.5128 27.9426 28.5128 29.3132V40.3979C28.5128 42.2957 28.4217 44.2058 28.7249 46.0861C29.6396 51.7321 34.8303 55.8651 40.4239 55.9934C40.4765 55.9969 40.5273 55.9986 40.5799 55.9986C47.1724 55.9986 52.5909 50.4651 52.6487 43.8965C52.689 39.2504 52.6487 34.6025 52.6487 29.9564H52.6452Z" fill="#E9662A"/>
  </g>
</svg>
